G75*
%MOIN*%
%OFA0B0*%
%FSLAX25Y25*%
%IPPOS*%
%LPD*%
%AMOC8*
5,1,8,0,0,1.08239X$1,22.5*
%
%ADD10C,0.00000*%
%ADD11C,0.00600*%
%ADD12R,0.00700X0.00100*%
%ADD13R,0.01500X0.00100*%
%ADD14R,0.02100X0.00100*%
%ADD15R,0.02700X0.00100*%
%ADD16R,0.03100X0.00100*%
%ADD17R,0.01600X0.00100*%
%ADD18R,0.01200X0.00100*%
%ADD19R,0.00100X0.00100*%
%ADD20R,0.01000X0.00100*%
%ADD21R,0.01100X0.00100*%
%ADD22R,0.00900X0.00100*%
%ADD23R,0.00800X0.00100*%
%ADD24R,0.00500X0.00100*%
%ADD25R,0.00600X0.00100*%
%ADD26R,0.00300X0.00100*%
%ADD27R,0.01400X0.00100*%
%ADD28R,0.00200X0.00100*%
%ADD29R,0.00400X0.00100*%
%ADD30R,0.08300X0.00100*%
%ADD31R,0.03000X0.00100*%
%ADD32R,0.02900X0.00100*%
%ADD33R,0.09000X0.00100*%
%ADD34R,0.02400X0.00100*%
%ADD35R,0.09100X0.00100*%
%ADD36R,0.01300X0.00100*%
%ADD37R,0.09200X0.00100*%
%ADD38R,0.09300X0.00100*%
%ADD39R,0.09400X0.00100*%
%ADD40R,0.09500X0.00100*%
%ADD41R,0.09600X0.00100*%
%ADD42R,0.09700X0.00100*%
%ADD43R,0.09800X0.00100*%
%ADD44R,0.09900X0.00100*%
%ADD45R,0.10000X0.00100*%
%ADD46R,0.10100X0.00100*%
%ADD47R,0.10200X0.00100*%
%ADD48R,0.10300X0.00100*%
%ADD49R,0.10400X0.00100*%
%ADD50R,0.10500X0.00100*%
%ADD51R,0.10600X0.00100*%
%ADD52R,0.10700X0.00100*%
%ADD53R,0.10800X0.00100*%
%ADD54R,0.10900X0.00100*%
%ADD55R,0.11000X0.00100*%
%ADD56R,0.11100X0.00100*%
%ADD57R,0.11400X0.00100*%
%ADD58R,0.03700X0.00100*%
%ADD59R,0.01700X0.00100*%
%ADD60R,0.02000X0.00100*%
%ADD61R,0.04400X0.00100*%
%ADD62R,0.04000X0.00100*%
%ADD63R,0.03600X0.00100*%
%ADD64R,0.02500X0.00100*%
%ADD65R,0.05000X0.00100*%
%ADD66R,0.08900X0.00100*%
%ADD67R,0.08800X0.00100*%
%ADD68R,0.02600X0.00100*%
%ADD69R,0.08700X0.00100*%
%ADD70R,0.05300X0.00100*%
%ADD71R,0.08600X0.00100*%
%ADD72R,0.04100X0.00100*%
%ADD73R,0.08500X0.00100*%
%ADD74R,0.03400X0.00100*%
%ADD75R,0.08400X0.00100*%
%ADD76R,0.08200X0.00100*%
%ADD77R,0.01800X0.00100*%
%ADD78R,0.01900X0.00100*%
%ADD79R,0.02200X0.00100*%
%ADD80R,0.03900X0.00100*%
%ADD81R,0.06100X0.00100*%
%ADD82R,0.06200X0.00100*%
%ADD83R,0.05700X0.00100*%
%ADD84R,0.05400X0.00100*%
%ADD85R,0.05600X0.00100*%
%ADD86R,0.05100X0.00100*%
%ADD87R,0.03200X0.00100*%
%ADD88R,0.02300X0.00100*%
%ADD89R,0.03800X0.00100*%
%ADD90R,0.13300X0.00100*%
%ADD91R,0.04500X0.00100*%
%ADD92R,0.13400X0.00100*%
%ADD93R,0.12600X0.00100*%
%ADD94R,0.12400X0.00100*%
%ADD95R,0.12100X0.00100*%
%ADD96R,0.11900X0.00100*%
%ADD97R,0.11600X0.00100*%
%ADD98R,0.11300X0.00100*%
%ADD99R,0.07700X0.00100*%
%ADD100R,0.07300X0.00100*%
%ADD101R,0.06700X0.00100*%
%ADD102R,0.04700X0.00100*%
%ADD103R,0.02800X0.00100*%
%ADD104R,0.03500X0.00100*%
%ADD105R,0.04300X0.00100*%
%ADD106R,0.04800X0.00100*%
%ADD107R,0.04900X0.00100*%
%ADD108R,0.05200X0.00100*%
%ADD109R,0.05800X0.00100*%
%ADD110R,0.06400X0.00100*%
%ADD111R,0.06800X0.00100*%
%ADD112R,0.15600X0.00100*%
%ADD113R,0.14500X0.00100*%
%ADD114R,0.12200X0.00100*%
%ADD115R,0.07100X0.00100*%
%ADD116R,0.04200X0.00100*%
%ADD117C,0.00500*%
D10*
X0005060Y0004200D02*
X0005060Y0201050D01*
X0201910Y0201050D01*
X0201910Y0004200D01*
X0005060Y0004200D01*
D11*
X0022354Y0071000D02*
X0024131Y0071000D01*
X0024131Y0077400D01*
X0022354Y0077400D01*
X0022272Y0077398D01*
X0022190Y0077392D01*
X0022108Y0077383D01*
X0022027Y0077370D01*
X0021947Y0077353D01*
X0021867Y0077332D01*
X0021789Y0077308D01*
X0021712Y0077280D01*
X0021636Y0077249D01*
X0021561Y0077214D01*
X0021489Y0077175D01*
X0021418Y0077134D01*
X0021349Y0077089D01*
X0021283Y0077041D01*
X0021218Y0076990D01*
X0021156Y0076936D01*
X0021097Y0076879D01*
X0021040Y0076820D01*
X0020986Y0076758D01*
X0020935Y0076693D01*
X0020887Y0076627D01*
X0020842Y0076558D01*
X0020801Y0076487D01*
X0020762Y0076415D01*
X0020727Y0076340D01*
X0020696Y0076264D01*
X0020668Y0076187D01*
X0020644Y0076109D01*
X0020623Y0076029D01*
X0020606Y0075949D01*
X0020593Y0075868D01*
X0020584Y0075786D01*
X0020578Y0075704D01*
X0020576Y0075622D01*
X0020576Y0072778D01*
X0020578Y0072696D01*
X0020584Y0072614D01*
X0020593Y0072532D01*
X0020606Y0072451D01*
X0020623Y0072371D01*
X0020644Y0072291D01*
X0020668Y0072213D01*
X0020696Y0072136D01*
X0020727Y0072060D01*
X0020762Y0071985D01*
X0020801Y0071913D01*
X0020842Y0071842D01*
X0020887Y0071773D01*
X0020935Y0071707D01*
X0020986Y0071642D01*
X0021040Y0071580D01*
X0021097Y0071521D01*
X0021156Y0071464D01*
X0021218Y0071410D01*
X0021283Y0071359D01*
X0021349Y0071311D01*
X0021418Y0071266D01*
X0021489Y0071225D01*
X0021561Y0071186D01*
X0021636Y0071151D01*
X0021712Y0071120D01*
X0021789Y0071092D01*
X0021867Y0071068D01*
X0021947Y0071047D01*
X0022027Y0071030D01*
X0022108Y0071017D01*
X0022190Y0071008D01*
X0022272Y0071002D01*
X0022354Y0071000D01*
X0027140Y0071000D02*
X0027140Y0077400D01*
X0030696Y0077400D02*
X0027140Y0071000D01*
X0030696Y0071000D02*
X0030696Y0077400D01*
X0033704Y0077400D02*
X0035838Y0077400D01*
X0035912Y0077398D01*
X0035987Y0077392D01*
X0036060Y0077382D01*
X0036134Y0077369D01*
X0036206Y0077352D01*
X0036277Y0077330D01*
X0036348Y0077306D01*
X0036416Y0077277D01*
X0036484Y0077245D01*
X0036549Y0077209D01*
X0036612Y0077171D01*
X0036674Y0077128D01*
X0036733Y0077083D01*
X0036790Y0077035D01*
X0036844Y0076984D01*
X0036895Y0076930D01*
X0036943Y0076873D01*
X0036988Y0076814D01*
X0037031Y0076752D01*
X0037069Y0076689D01*
X0037105Y0076624D01*
X0037137Y0076556D01*
X0037166Y0076488D01*
X0037190Y0076417D01*
X0037212Y0076346D01*
X0037229Y0076274D01*
X0037242Y0076200D01*
X0037252Y0076127D01*
X0037258Y0076052D01*
X0037260Y0075978D01*
X0037260Y0072422D01*
X0037258Y0072348D01*
X0037252Y0072273D01*
X0037242Y0072200D01*
X0037229Y0072126D01*
X0037212Y0072054D01*
X0037190Y0071983D01*
X0037166Y0071912D01*
X0037137Y0071844D01*
X0037105Y0071776D01*
X0037069Y0071711D01*
X0037031Y0071648D01*
X0036988Y0071586D01*
X0036943Y0071527D01*
X0036895Y0071470D01*
X0036844Y0071416D01*
X0036790Y0071365D01*
X0036733Y0071317D01*
X0036674Y0071272D01*
X0036612Y0071229D01*
X0036549Y0071191D01*
X0036484Y0071155D01*
X0036416Y0071123D01*
X0036348Y0071094D01*
X0036277Y0071070D01*
X0036206Y0071048D01*
X0036134Y0071031D01*
X0036060Y0071018D01*
X0035987Y0071008D01*
X0035912Y0071002D01*
X0035838Y0071000D01*
X0033704Y0071000D01*
X0033704Y0074556D01*
X0034771Y0074556D01*
X0034982Y0081000D02*
X0036760Y0081000D01*
X0034982Y0081000D02*
X0034899Y0081002D01*
X0034816Y0081008D01*
X0034733Y0081018D01*
X0034650Y0081031D01*
X0034569Y0081049D01*
X0034488Y0081070D01*
X0034409Y0081095D01*
X0034331Y0081124D01*
X0034254Y0081156D01*
X0034179Y0081192D01*
X0034105Y0081231D01*
X0034034Y0081274D01*
X0033964Y0081320D01*
X0033897Y0081370D01*
X0033832Y0081422D01*
X0033770Y0081477D01*
X0033710Y0081536D01*
X0033653Y0081597D01*
X0033599Y0081660D01*
X0033548Y0081726D01*
X0033501Y0081795D01*
X0033456Y0081865D01*
X0033415Y0081938D01*
X0033378Y0082012D01*
X0033343Y0082088D01*
X0033313Y0082166D01*
X0033286Y0082244D01*
X0033263Y0082325D01*
X0033243Y0082406D01*
X0033228Y0082488D01*
X0033216Y0082570D01*
X0033208Y0082653D01*
X0033204Y0082736D01*
X0033204Y0082820D01*
X0033208Y0082903D01*
X0033216Y0082986D01*
X0033228Y0083068D01*
X0033243Y0083150D01*
X0033263Y0083231D01*
X0033286Y0083312D01*
X0033313Y0083390D01*
X0033343Y0083468D01*
X0033378Y0083544D01*
X0033415Y0083618D01*
X0033456Y0083691D01*
X0033501Y0083761D01*
X0033548Y0083830D01*
X0033599Y0083896D01*
X0033653Y0083959D01*
X0033710Y0084020D01*
X0033770Y0084079D01*
X0033832Y0084134D01*
X0033897Y0084186D01*
X0033964Y0084236D01*
X0034034Y0084282D01*
X0034105Y0084325D01*
X0034179Y0084364D01*
X0034254Y0084400D01*
X0034331Y0084432D01*
X0034409Y0084461D01*
X0034488Y0084486D01*
X0034569Y0084507D01*
X0034650Y0084525D01*
X0034733Y0084538D01*
X0034816Y0084548D01*
X0034899Y0084554D01*
X0034982Y0084556D01*
X0034627Y0084556D02*
X0036049Y0084556D01*
X0034627Y0084556D02*
X0034553Y0084558D01*
X0034478Y0084564D01*
X0034405Y0084574D01*
X0034331Y0084587D01*
X0034259Y0084604D01*
X0034188Y0084626D01*
X0034117Y0084650D01*
X0034049Y0084679D01*
X0033981Y0084711D01*
X0033916Y0084747D01*
X0033853Y0084785D01*
X0033791Y0084828D01*
X0033732Y0084873D01*
X0033675Y0084921D01*
X0033621Y0084972D01*
X0033570Y0085026D01*
X0033522Y0085083D01*
X0033477Y0085142D01*
X0033434Y0085204D01*
X0033396Y0085267D01*
X0033360Y0085332D01*
X0033328Y0085400D01*
X0033299Y0085468D01*
X0033275Y0085539D01*
X0033253Y0085610D01*
X0033236Y0085682D01*
X0033223Y0085756D01*
X0033213Y0085829D01*
X0033207Y0085904D01*
X0033205Y0085978D01*
X0033207Y0086052D01*
X0033213Y0086127D01*
X0033223Y0086200D01*
X0033236Y0086274D01*
X0033253Y0086346D01*
X0033275Y0086417D01*
X0033299Y0086488D01*
X0033328Y0086556D01*
X0033360Y0086624D01*
X0033396Y0086689D01*
X0033434Y0086752D01*
X0033477Y0086814D01*
X0033522Y0086873D01*
X0033570Y0086930D01*
X0033621Y0086984D01*
X0033675Y0087035D01*
X0033732Y0087083D01*
X0033791Y0087128D01*
X0033853Y0087171D01*
X0033916Y0087209D01*
X0033981Y0087245D01*
X0034049Y0087277D01*
X0034117Y0087306D01*
X0034188Y0087330D01*
X0034259Y0087352D01*
X0034331Y0087369D01*
X0034405Y0087382D01*
X0034478Y0087392D01*
X0034553Y0087398D01*
X0034627Y0087400D01*
X0036760Y0087400D01*
X0036760Y0090000D02*
X0034627Y0096400D01*
X0032493Y0090000D01*
X0033027Y0091600D02*
X0036227Y0091600D01*
X0030250Y0091422D02*
X0026695Y0091422D01*
X0027762Y0092844D02*
X0027762Y0090000D01*
X0028144Y0087400D02*
X0026011Y0087400D01*
X0025937Y0087398D01*
X0025862Y0087392D01*
X0025789Y0087382D01*
X0025715Y0087369D01*
X0025643Y0087352D01*
X0025572Y0087330D01*
X0025501Y0087306D01*
X0025433Y0087277D01*
X0025365Y0087245D01*
X0025300Y0087209D01*
X0025237Y0087171D01*
X0025175Y0087128D01*
X0025116Y0087083D01*
X0025059Y0087035D01*
X0025005Y0086984D01*
X0024954Y0086930D01*
X0024906Y0086873D01*
X0024861Y0086814D01*
X0024818Y0086752D01*
X0024780Y0086689D01*
X0024744Y0086624D01*
X0024712Y0086556D01*
X0024683Y0086488D01*
X0024659Y0086417D01*
X0024637Y0086346D01*
X0024620Y0086274D01*
X0024607Y0086200D01*
X0024597Y0086127D01*
X0024591Y0086052D01*
X0024589Y0085978D01*
X0024591Y0085904D01*
X0024597Y0085829D01*
X0024607Y0085756D01*
X0024620Y0085682D01*
X0024637Y0085610D01*
X0024659Y0085539D01*
X0024683Y0085468D01*
X0024712Y0085400D01*
X0024744Y0085332D01*
X0024780Y0085267D01*
X0024818Y0085204D01*
X0024861Y0085142D01*
X0024906Y0085083D01*
X0024954Y0085026D01*
X0025005Y0084972D01*
X0025059Y0084921D01*
X0025116Y0084873D01*
X0025175Y0084828D01*
X0025237Y0084785D01*
X0025300Y0084747D01*
X0025365Y0084711D01*
X0025433Y0084679D01*
X0025501Y0084650D01*
X0025572Y0084626D01*
X0025643Y0084604D01*
X0025715Y0084587D01*
X0025789Y0084574D01*
X0025862Y0084564D01*
X0025937Y0084558D01*
X0026011Y0084556D01*
X0027433Y0084556D01*
X0026367Y0084556D02*
X0026284Y0084554D01*
X0026201Y0084548D01*
X0026118Y0084538D01*
X0026035Y0084525D01*
X0025954Y0084507D01*
X0025873Y0084486D01*
X0025794Y0084461D01*
X0025716Y0084432D01*
X0025639Y0084400D01*
X0025564Y0084364D01*
X0025490Y0084325D01*
X0025419Y0084282D01*
X0025349Y0084236D01*
X0025282Y0084186D01*
X0025217Y0084134D01*
X0025155Y0084079D01*
X0025095Y0084020D01*
X0025038Y0083959D01*
X0024984Y0083896D01*
X0024933Y0083830D01*
X0024886Y0083761D01*
X0024841Y0083691D01*
X0024800Y0083618D01*
X0024763Y0083544D01*
X0024728Y0083468D01*
X0024698Y0083390D01*
X0024671Y0083312D01*
X0024648Y0083231D01*
X0024628Y0083150D01*
X0024613Y0083068D01*
X0024601Y0082986D01*
X0024593Y0082903D01*
X0024589Y0082820D01*
X0024589Y0082736D01*
X0024593Y0082653D01*
X0024601Y0082570D01*
X0024613Y0082488D01*
X0024628Y0082406D01*
X0024648Y0082325D01*
X0024671Y0082244D01*
X0024698Y0082166D01*
X0024728Y0082088D01*
X0024763Y0082012D01*
X0024800Y0081938D01*
X0024841Y0081865D01*
X0024886Y0081795D01*
X0024933Y0081726D01*
X0024984Y0081660D01*
X0025038Y0081597D01*
X0025095Y0081536D01*
X0025155Y0081477D01*
X0025217Y0081422D01*
X0025282Y0081370D01*
X0025349Y0081320D01*
X0025419Y0081274D01*
X0025490Y0081231D01*
X0025564Y0081192D01*
X0025639Y0081156D01*
X0025716Y0081124D01*
X0025794Y0081095D01*
X0025873Y0081070D01*
X0025954Y0081049D01*
X0026035Y0081031D01*
X0026118Y0081018D01*
X0026201Y0081008D01*
X0026284Y0081002D01*
X0026367Y0081000D01*
X0028144Y0081000D01*
X0030497Y0081000D02*
X0030852Y0081000D01*
X0030852Y0081356D01*
X0030497Y0081356D01*
X0030497Y0081000D01*
X0020213Y0081000D02*
X0022346Y0087400D01*
X0018079Y0087400D02*
X0020213Y0081000D01*
X0030250Y0091422D02*
X0028828Y0096400D01*
X0028905Y0100500D02*
X0028905Y0103344D01*
X0027839Y0101922D02*
X0031394Y0101922D01*
X0029972Y0106900D01*
X0029116Y0111000D02*
X0030894Y0111000D01*
X0029116Y0111000D02*
X0029033Y0111002D01*
X0028950Y0111008D01*
X0028867Y0111018D01*
X0028784Y0111031D01*
X0028703Y0111049D01*
X0028622Y0111070D01*
X0028543Y0111095D01*
X0028465Y0111124D01*
X0028388Y0111156D01*
X0028313Y0111192D01*
X0028239Y0111231D01*
X0028168Y0111274D01*
X0028098Y0111320D01*
X0028031Y0111370D01*
X0027966Y0111422D01*
X0027904Y0111477D01*
X0027844Y0111536D01*
X0027787Y0111597D01*
X0027733Y0111660D01*
X0027682Y0111726D01*
X0027635Y0111795D01*
X0027590Y0111865D01*
X0027549Y0111938D01*
X0027512Y0112012D01*
X0027477Y0112088D01*
X0027447Y0112166D01*
X0027420Y0112244D01*
X0027397Y0112325D01*
X0027377Y0112406D01*
X0027362Y0112488D01*
X0027350Y0112570D01*
X0027342Y0112653D01*
X0027338Y0112736D01*
X0027338Y0112820D01*
X0027342Y0112903D01*
X0027350Y0112986D01*
X0027362Y0113068D01*
X0027377Y0113150D01*
X0027397Y0113231D01*
X0027420Y0113312D01*
X0027447Y0113390D01*
X0027477Y0113468D01*
X0027512Y0113544D01*
X0027549Y0113618D01*
X0027590Y0113691D01*
X0027635Y0113761D01*
X0027682Y0113830D01*
X0027733Y0113896D01*
X0027787Y0113959D01*
X0027844Y0114020D01*
X0027904Y0114079D01*
X0027966Y0114134D01*
X0028031Y0114186D01*
X0028098Y0114236D01*
X0028168Y0114282D01*
X0028239Y0114325D01*
X0028313Y0114364D01*
X0028388Y0114400D01*
X0028465Y0114432D01*
X0028543Y0114461D01*
X0028622Y0114486D01*
X0028703Y0114507D01*
X0028784Y0114525D01*
X0028867Y0114538D01*
X0028950Y0114548D01*
X0029033Y0114554D01*
X0029116Y0114556D01*
X0028761Y0114556D02*
X0030183Y0114556D01*
X0028761Y0114556D02*
X0028687Y0114558D01*
X0028612Y0114564D01*
X0028539Y0114574D01*
X0028465Y0114587D01*
X0028393Y0114604D01*
X0028322Y0114626D01*
X0028251Y0114650D01*
X0028183Y0114679D01*
X0028115Y0114711D01*
X0028050Y0114747D01*
X0027987Y0114785D01*
X0027925Y0114828D01*
X0027866Y0114873D01*
X0027809Y0114921D01*
X0027755Y0114972D01*
X0027704Y0115026D01*
X0027656Y0115083D01*
X0027611Y0115142D01*
X0027568Y0115204D01*
X0027530Y0115267D01*
X0027494Y0115332D01*
X0027462Y0115400D01*
X0027433Y0115468D01*
X0027409Y0115539D01*
X0027387Y0115610D01*
X0027370Y0115682D01*
X0027357Y0115756D01*
X0027347Y0115829D01*
X0027341Y0115904D01*
X0027339Y0115978D01*
X0027341Y0116052D01*
X0027347Y0116127D01*
X0027357Y0116200D01*
X0027370Y0116274D01*
X0027387Y0116346D01*
X0027409Y0116417D01*
X0027433Y0116488D01*
X0027462Y0116556D01*
X0027494Y0116624D01*
X0027530Y0116689D01*
X0027568Y0116752D01*
X0027611Y0116814D01*
X0027656Y0116873D01*
X0027704Y0116930D01*
X0027755Y0116984D01*
X0027809Y0117035D01*
X0027866Y0117083D01*
X0027925Y0117128D01*
X0027987Y0117171D01*
X0028050Y0117209D01*
X0028115Y0117245D01*
X0028183Y0117277D01*
X0028251Y0117306D01*
X0028322Y0117330D01*
X0028393Y0117352D01*
X0028465Y0117369D01*
X0028539Y0117382D01*
X0028612Y0117392D01*
X0028687Y0117398D01*
X0028761Y0117400D01*
X0030894Y0117400D01*
X0031394Y0121000D02*
X0027839Y0121000D01*
X0031394Y0121000D02*
X0028372Y0124556D01*
X0029439Y0127400D02*
X0029528Y0127398D01*
X0029617Y0127392D01*
X0029706Y0127383D01*
X0029794Y0127369D01*
X0029881Y0127352D01*
X0029968Y0127331D01*
X0030054Y0127306D01*
X0030138Y0127278D01*
X0030221Y0127245D01*
X0030303Y0127210D01*
X0030383Y0127170D01*
X0030461Y0127128D01*
X0030538Y0127082D01*
X0030612Y0127033D01*
X0030684Y0126980D01*
X0030754Y0126925D01*
X0030821Y0126866D01*
X0030886Y0126805D01*
X0030948Y0126741D01*
X0031007Y0126674D01*
X0031063Y0126605D01*
X0031116Y0126533D01*
X0031166Y0126459D01*
X0031213Y0126383D01*
X0031256Y0126306D01*
X0031296Y0126226D01*
X0031333Y0126144D01*
X0031366Y0126062D01*
X0031395Y0125977D01*
X0028371Y0124555D02*
X0028314Y0124613D01*
X0028258Y0124674D01*
X0028206Y0124737D01*
X0028157Y0124802D01*
X0028111Y0124870D01*
X0028069Y0124940D01*
X0028029Y0125012D01*
X0027994Y0125085D01*
X0027961Y0125161D01*
X0027933Y0125237D01*
X0027908Y0125315D01*
X0027887Y0125394D01*
X0027869Y0125474D01*
X0027856Y0125555D01*
X0027846Y0125636D01*
X0027840Y0125718D01*
X0027838Y0125800D01*
X0027839Y0125800D02*
X0027841Y0125879D01*
X0027847Y0125957D01*
X0027856Y0126035D01*
X0027870Y0126112D01*
X0027887Y0126189D01*
X0027908Y0126264D01*
X0027933Y0126339D01*
X0027961Y0126412D01*
X0027993Y0126484D01*
X0028028Y0126554D01*
X0028067Y0126623D01*
X0028109Y0126689D01*
X0028154Y0126753D01*
X0028202Y0126815D01*
X0028253Y0126874D01*
X0028308Y0126931D01*
X0028365Y0126986D01*
X0028424Y0127037D01*
X0028486Y0127085D01*
X0028550Y0127130D01*
X0028616Y0127172D01*
X0028685Y0127211D01*
X0028755Y0127246D01*
X0028827Y0127278D01*
X0028900Y0127306D01*
X0028975Y0127331D01*
X0029050Y0127352D01*
X0029127Y0127369D01*
X0029204Y0127383D01*
X0029282Y0127392D01*
X0029360Y0127398D01*
X0029439Y0127400D01*
X0028973Y0131000D02*
X0028973Y0137400D01*
X0030750Y0135978D01*
X0033527Y0132600D02*
X0036727Y0132600D01*
X0037260Y0131000D02*
X0035127Y0137400D01*
X0032993Y0131000D01*
X0030750Y0131000D02*
X0027195Y0131000D01*
X0035482Y0127400D02*
X0037260Y0127400D01*
X0037260Y0121000D01*
X0035482Y0121000D01*
X0035399Y0121002D01*
X0035316Y0121008D01*
X0035233Y0121018D01*
X0035150Y0121031D01*
X0035069Y0121049D01*
X0034988Y0121070D01*
X0034909Y0121095D01*
X0034831Y0121124D01*
X0034754Y0121156D01*
X0034679Y0121192D01*
X0034605Y0121231D01*
X0034534Y0121274D01*
X0034464Y0121320D01*
X0034397Y0121370D01*
X0034332Y0121422D01*
X0034270Y0121477D01*
X0034210Y0121536D01*
X0034153Y0121597D01*
X0034099Y0121660D01*
X0034048Y0121726D01*
X0034001Y0121795D01*
X0033956Y0121865D01*
X0033915Y0121938D01*
X0033878Y0122012D01*
X0033843Y0122088D01*
X0033813Y0122166D01*
X0033786Y0122244D01*
X0033763Y0122325D01*
X0033743Y0122406D01*
X0033728Y0122488D01*
X0033716Y0122570D01*
X0033708Y0122653D01*
X0033704Y0122736D01*
X0033704Y0122820D01*
X0033708Y0122903D01*
X0033716Y0122986D01*
X0033728Y0123068D01*
X0033743Y0123150D01*
X0033763Y0123231D01*
X0033786Y0123312D01*
X0033813Y0123390D01*
X0033843Y0123468D01*
X0033878Y0123544D01*
X0033915Y0123618D01*
X0033956Y0123691D01*
X0034001Y0123761D01*
X0034048Y0123830D01*
X0034099Y0123896D01*
X0034153Y0123959D01*
X0034210Y0124020D01*
X0034270Y0124079D01*
X0034332Y0124134D01*
X0034397Y0124186D01*
X0034464Y0124236D01*
X0034534Y0124282D01*
X0034605Y0124325D01*
X0034679Y0124364D01*
X0034754Y0124400D01*
X0034831Y0124432D01*
X0034909Y0124461D01*
X0034988Y0124486D01*
X0035069Y0124507D01*
X0035150Y0124525D01*
X0035233Y0124538D01*
X0035316Y0124548D01*
X0035399Y0124554D01*
X0035482Y0124556D01*
X0037260Y0124556D01*
X0035482Y0124556D02*
X0035408Y0124558D01*
X0035333Y0124564D01*
X0035260Y0124574D01*
X0035186Y0124587D01*
X0035114Y0124604D01*
X0035043Y0124626D01*
X0034972Y0124650D01*
X0034904Y0124679D01*
X0034836Y0124711D01*
X0034771Y0124747D01*
X0034708Y0124785D01*
X0034646Y0124828D01*
X0034587Y0124873D01*
X0034530Y0124921D01*
X0034476Y0124972D01*
X0034425Y0125026D01*
X0034377Y0125083D01*
X0034332Y0125142D01*
X0034289Y0125204D01*
X0034251Y0125267D01*
X0034215Y0125332D01*
X0034183Y0125400D01*
X0034154Y0125468D01*
X0034130Y0125539D01*
X0034108Y0125610D01*
X0034091Y0125682D01*
X0034078Y0125756D01*
X0034068Y0125829D01*
X0034062Y0125904D01*
X0034060Y0125978D01*
X0034062Y0126052D01*
X0034068Y0126127D01*
X0034078Y0126200D01*
X0034091Y0126274D01*
X0034108Y0126346D01*
X0034130Y0126417D01*
X0034154Y0126488D01*
X0034183Y0126556D01*
X0034215Y0126624D01*
X0034251Y0126689D01*
X0034289Y0126752D01*
X0034332Y0126814D01*
X0034377Y0126873D01*
X0034425Y0126930D01*
X0034476Y0126984D01*
X0034530Y0127035D01*
X0034587Y0127083D01*
X0034646Y0127128D01*
X0034708Y0127171D01*
X0034771Y0127209D01*
X0034836Y0127245D01*
X0034904Y0127277D01*
X0034972Y0127306D01*
X0035043Y0127330D01*
X0035114Y0127352D01*
X0035186Y0127369D01*
X0035260Y0127382D01*
X0035333Y0127392D01*
X0035408Y0127398D01*
X0035482Y0127400D01*
X0034982Y0117400D02*
X0036760Y0117400D01*
X0036760Y0111000D01*
X0034982Y0111000D01*
X0034899Y0111002D01*
X0034816Y0111008D01*
X0034733Y0111018D01*
X0034650Y0111031D01*
X0034569Y0111049D01*
X0034488Y0111070D01*
X0034409Y0111095D01*
X0034331Y0111124D01*
X0034254Y0111156D01*
X0034179Y0111192D01*
X0034105Y0111231D01*
X0034034Y0111274D01*
X0033964Y0111320D01*
X0033897Y0111370D01*
X0033832Y0111422D01*
X0033770Y0111477D01*
X0033710Y0111536D01*
X0033653Y0111597D01*
X0033599Y0111660D01*
X0033548Y0111726D01*
X0033501Y0111795D01*
X0033456Y0111865D01*
X0033415Y0111938D01*
X0033378Y0112012D01*
X0033343Y0112088D01*
X0033313Y0112166D01*
X0033286Y0112244D01*
X0033263Y0112325D01*
X0033243Y0112406D01*
X0033228Y0112488D01*
X0033216Y0112570D01*
X0033208Y0112653D01*
X0033204Y0112736D01*
X0033204Y0112820D01*
X0033208Y0112903D01*
X0033216Y0112986D01*
X0033228Y0113068D01*
X0033243Y0113150D01*
X0033263Y0113231D01*
X0033286Y0113312D01*
X0033313Y0113390D01*
X0033343Y0113468D01*
X0033378Y0113544D01*
X0033415Y0113618D01*
X0033456Y0113691D01*
X0033501Y0113761D01*
X0033548Y0113830D01*
X0033599Y0113896D01*
X0033653Y0113959D01*
X0033710Y0114020D01*
X0033770Y0114079D01*
X0033832Y0114134D01*
X0033897Y0114186D01*
X0033964Y0114236D01*
X0034034Y0114282D01*
X0034105Y0114325D01*
X0034179Y0114364D01*
X0034254Y0114400D01*
X0034331Y0114432D01*
X0034409Y0114461D01*
X0034488Y0114486D01*
X0034569Y0114507D01*
X0034650Y0114525D01*
X0034733Y0114538D01*
X0034816Y0114548D01*
X0034899Y0114554D01*
X0034982Y0114556D01*
X0036760Y0114556D01*
X0034982Y0114556D02*
X0034908Y0114558D01*
X0034833Y0114564D01*
X0034760Y0114574D01*
X0034686Y0114587D01*
X0034614Y0114604D01*
X0034543Y0114626D01*
X0034472Y0114650D01*
X0034404Y0114679D01*
X0034336Y0114711D01*
X0034271Y0114747D01*
X0034208Y0114785D01*
X0034146Y0114828D01*
X0034087Y0114873D01*
X0034030Y0114921D01*
X0033976Y0114972D01*
X0033925Y0115026D01*
X0033877Y0115083D01*
X0033832Y0115142D01*
X0033789Y0115204D01*
X0033751Y0115267D01*
X0033715Y0115332D01*
X0033683Y0115400D01*
X0033654Y0115468D01*
X0033630Y0115539D01*
X0033608Y0115610D01*
X0033591Y0115682D01*
X0033578Y0115756D01*
X0033568Y0115829D01*
X0033562Y0115904D01*
X0033560Y0115978D01*
X0033562Y0116052D01*
X0033568Y0116127D01*
X0033578Y0116200D01*
X0033591Y0116274D01*
X0033608Y0116346D01*
X0033630Y0116417D01*
X0033654Y0116488D01*
X0033683Y0116556D01*
X0033715Y0116624D01*
X0033751Y0116689D01*
X0033789Y0116752D01*
X0033832Y0116814D01*
X0033877Y0116873D01*
X0033925Y0116930D01*
X0033976Y0116984D01*
X0034030Y0117035D01*
X0034087Y0117083D01*
X0034146Y0117128D01*
X0034208Y0117171D01*
X0034271Y0117209D01*
X0034336Y0117245D01*
X0034404Y0117277D01*
X0034472Y0117306D01*
X0034543Y0117330D01*
X0034614Y0117352D01*
X0034686Y0117369D01*
X0034760Y0117382D01*
X0034833Y0117392D01*
X0034908Y0117398D01*
X0034982Y0117400D01*
X0035482Y0106900D02*
X0037260Y0106900D01*
X0037260Y0100500D01*
X0035482Y0100500D01*
X0035399Y0100502D01*
X0035316Y0100508D01*
X0035233Y0100518D01*
X0035150Y0100531D01*
X0035069Y0100549D01*
X0034988Y0100570D01*
X0034909Y0100595D01*
X0034831Y0100624D01*
X0034754Y0100656D01*
X0034679Y0100692D01*
X0034605Y0100731D01*
X0034534Y0100774D01*
X0034464Y0100820D01*
X0034397Y0100870D01*
X0034332Y0100922D01*
X0034270Y0100977D01*
X0034210Y0101036D01*
X0034153Y0101097D01*
X0034099Y0101160D01*
X0034048Y0101226D01*
X0034001Y0101295D01*
X0033956Y0101365D01*
X0033915Y0101438D01*
X0033878Y0101512D01*
X0033843Y0101588D01*
X0033813Y0101666D01*
X0033786Y0101744D01*
X0033763Y0101825D01*
X0033743Y0101906D01*
X0033728Y0101988D01*
X0033716Y0102070D01*
X0033708Y0102153D01*
X0033704Y0102236D01*
X0033704Y0102320D01*
X0033708Y0102403D01*
X0033716Y0102486D01*
X0033728Y0102568D01*
X0033743Y0102650D01*
X0033763Y0102731D01*
X0033786Y0102812D01*
X0033813Y0102890D01*
X0033843Y0102968D01*
X0033878Y0103044D01*
X0033915Y0103118D01*
X0033956Y0103191D01*
X0034001Y0103261D01*
X0034048Y0103330D01*
X0034099Y0103396D01*
X0034153Y0103459D01*
X0034210Y0103520D01*
X0034270Y0103579D01*
X0034332Y0103634D01*
X0034397Y0103686D01*
X0034464Y0103736D01*
X0034534Y0103782D01*
X0034605Y0103825D01*
X0034679Y0103864D01*
X0034754Y0103900D01*
X0034831Y0103932D01*
X0034909Y0103961D01*
X0034988Y0103986D01*
X0035069Y0104007D01*
X0035150Y0104025D01*
X0035233Y0104038D01*
X0035316Y0104048D01*
X0035399Y0104054D01*
X0035482Y0104056D01*
X0037260Y0104056D01*
X0035482Y0104056D02*
X0035408Y0104058D01*
X0035333Y0104064D01*
X0035260Y0104074D01*
X0035186Y0104087D01*
X0035114Y0104104D01*
X0035043Y0104126D01*
X0034972Y0104150D01*
X0034904Y0104179D01*
X0034836Y0104211D01*
X0034771Y0104247D01*
X0034708Y0104285D01*
X0034646Y0104328D01*
X0034587Y0104373D01*
X0034530Y0104421D01*
X0034476Y0104472D01*
X0034425Y0104526D01*
X0034377Y0104583D01*
X0034332Y0104642D01*
X0034289Y0104704D01*
X0034251Y0104767D01*
X0034215Y0104832D01*
X0034183Y0104900D01*
X0034154Y0104968D01*
X0034130Y0105039D01*
X0034108Y0105110D01*
X0034091Y0105182D01*
X0034078Y0105256D01*
X0034068Y0105329D01*
X0034062Y0105404D01*
X0034060Y0105478D01*
X0034062Y0105552D01*
X0034068Y0105627D01*
X0034078Y0105700D01*
X0034091Y0105774D01*
X0034108Y0105846D01*
X0034130Y0105917D01*
X0034154Y0105988D01*
X0034183Y0106056D01*
X0034215Y0106124D01*
X0034251Y0106189D01*
X0034289Y0106252D01*
X0034332Y0106314D01*
X0034377Y0106373D01*
X0034425Y0106430D01*
X0034476Y0106484D01*
X0034530Y0106535D01*
X0034587Y0106583D01*
X0034646Y0106628D01*
X0034708Y0106671D01*
X0034771Y0106709D01*
X0034836Y0106745D01*
X0034904Y0106777D01*
X0034972Y0106806D01*
X0035043Y0106830D01*
X0035114Y0106852D01*
X0035186Y0106869D01*
X0035260Y0106882D01*
X0035333Y0106892D01*
X0035408Y0106898D01*
X0035482Y0106900D01*
X0037260Y0141500D02*
X0035127Y0147900D01*
X0032993Y0141500D01*
X0033527Y0143100D02*
X0036727Y0143100D01*
X0027728Y0142389D02*
X0027668Y0142516D01*
X0027612Y0142645D01*
X0027559Y0142775D01*
X0027509Y0142907D01*
X0027463Y0143040D01*
X0027421Y0143174D01*
X0027382Y0143309D01*
X0027346Y0143446D01*
X0027315Y0143583D01*
X0027287Y0143721D01*
X0027262Y0143859D01*
X0027242Y0143998D01*
X0027225Y0144138D01*
X0027212Y0144278D01*
X0027203Y0144419D01*
X0027197Y0144559D01*
X0027195Y0144700D01*
X0030750Y0144700D02*
X0030748Y0144841D01*
X0030742Y0144981D01*
X0030733Y0145122D01*
X0030720Y0145262D01*
X0030703Y0145402D01*
X0030683Y0145541D01*
X0030658Y0145679D01*
X0030630Y0145817D01*
X0030599Y0145954D01*
X0030563Y0146091D01*
X0030524Y0146226D01*
X0030482Y0146360D01*
X0030436Y0146493D01*
X0030386Y0146625D01*
X0030333Y0146755D01*
X0030277Y0146884D01*
X0030217Y0147011D01*
X0028973Y0147900D02*
X0028902Y0147898D01*
X0028831Y0147892D01*
X0028761Y0147883D01*
X0028691Y0147869D01*
X0028622Y0147852D01*
X0028555Y0147832D01*
X0028488Y0147807D01*
X0028423Y0147779D01*
X0028359Y0147748D01*
X0028297Y0147713D01*
X0028237Y0147675D01*
X0028180Y0147634D01*
X0028124Y0147590D01*
X0028071Y0147542D01*
X0028021Y0147492D01*
X0027973Y0147440D01*
X0027928Y0147385D01*
X0027887Y0147327D01*
X0027848Y0147267D01*
X0027813Y0147206D01*
X0027781Y0147142D01*
X0027753Y0147077D01*
X0027728Y0147011D01*
X0027550Y0146478D02*
X0030395Y0142922D01*
X0028973Y0141500D02*
X0028902Y0141502D01*
X0028831Y0141508D01*
X0028761Y0141517D01*
X0028691Y0141531D01*
X0028622Y0141548D01*
X0028555Y0141568D01*
X0028488Y0141593D01*
X0028423Y0141621D01*
X0028359Y0141652D01*
X0028297Y0141687D01*
X0028237Y0141725D01*
X0028180Y0141766D01*
X0028124Y0141810D01*
X0028071Y0141858D01*
X0028021Y0141908D01*
X0027973Y0141960D01*
X0027928Y0142015D01*
X0027887Y0142073D01*
X0027848Y0142133D01*
X0027813Y0142194D01*
X0027781Y0142258D01*
X0027753Y0142323D01*
X0027728Y0142389D01*
X0028973Y0141500D02*
X0029044Y0141502D01*
X0029115Y0141508D01*
X0029185Y0141517D01*
X0029255Y0141531D01*
X0029324Y0141548D01*
X0029391Y0141568D01*
X0029458Y0141593D01*
X0029523Y0141621D01*
X0029587Y0141652D01*
X0029649Y0141687D01*
X0029709Y0141725D01*
X0029767Y0141766D01*
X0029822Y0141810D01*
X0029875Y0141858D01*
X0029925Y0141908D01*
X0029973Y0141960D01*
X0030018Y0142015D01*
X0030059Y0142073D01*
X0030098Y0142133D01*
X0030133Y0142194D01*
X0030165Y0142258D01*
X0030193Y0142323D01*
X0030218Y0142389D01*
X0027195Y0144700D02*
X0027197Y0144841D01*
X0027203Y0144981D01*
X0027212Y0145122D01*
X0027225Y0145262D01*
X0027242Y0145402D01*
X0027262Y0145541D01*
X0027287Y0145679D01*
X0027315Y0145817D01*
X0027346Y0145954D01*
X0027382Y0146091D01*
X0027421Y0146226D01*
X0027463Y0146360D01*
X0027509Y0146493D01*
X0027559Y0146625D01*
X0027612Y0146755D01*
X0027668Y0146884D01*
X0027728Y0147011D01*
X0028973Y0147900D02*
X0029044Y0147898D01*
X0029115Y0147892D01*
X0029185Y0147883D01*
X0029255Y0147869D01*
X0029324Y0147852D01*
X0029391Y0147832D01*
X0029458Y0147807D01*
X0029523Y0147779D01*
X0029587Y0147748D01*
X0029649Y0147713D01*
X0029709Y0147675D01*
X0029767Y0147634D01*
X0029822Y0147590D01*
X0029875Y0147542D01*
X0029925Y0147492D01*
X0029973Y0147440D01*
X0030018Y0147385D01*
X0030059Y0147327D01*
X0030098Y0147267D01*
X0030133Y0147206D01*
X0030165Y0147142D01*
X0030193Y0147077D01*
X0030218Y0147011D01*
X0030750Y0144700D02*
X0030748Y0144559D01*
X0030742Y0144419D01*
X0030733Y0144278D01*
X0030720Y0144138D01*
X0030703Y0143998D01*
X0030683Y0143859D01*
X0030658Y0143721D01*
X0030630Y0143583D01*
X0030599Y0143446D01*
X0030563Y0143309D01*
X0030524Y0143174D01*
X0030482Y0143040D01*
X0030436Y0142907D01*
X0030386Y0142775D01*
X0030333Y0142645D01*
X0030277Y0142516D01*
X0030217Y0142389D01*
X0173775Y0088400D02*
X0175908Y0082000D01*
X0178042Y0088400D01*
X0180285Y0088400D02*
X0183840Y0088400D01*
X0183840Y0085556D01*
X0181707Y0085556D01*
X0181707Y0085555D02*
X0181633Y0085553D01*
X0181558Y0085547D01*
X0181485Y0085537D01*
X0181411Y0085524D01*
X0181339Y0085507D01*
X0181268Y0085485D01*
X0181197Y0085461D01*
X0181129Y0085432D01*
X0181061Y0085400D01*
X0180996Y0085364D01*
X0180933Y0085326D01*
X0180871Y0085283D01*
X0180812Y0085238D01*
X0180755Y0085190D01*
X0180701Y0085139D01*
X0180650Y0085085D01*
X0180602Y0085028D01*
X0180557Y0084969D01*
X0180514Y0084907D01*
X0180476Y0084844D01*
X0180440Y0084779D01*
X0180408Y0084711D01*
X0180379Y0084643D01*
X0180355Y0084572D01*
X0180333Y0084501D01*
X0180316Y0084429D01*
X0180303Y0084355D01*
X0180293Y0084282D01*
X0180287Y0084207D01*
X0180285Y0084133D01*
X0180285Y0083422D01*
X0180287Y0083348D01*
X0180293Y0083273D01*
X0180303Y0083200D01*
X0180316Y0083126D01*
X0180333Y0083054D01*
X0180355Y0082983D01*
X0180379Y0082912D01*
X0180408Y0082844D01*
X0180440Y0082776D01*
X0180476Y0082711D01*
X0180514Y0082648D01*
X0180557Y0082586D01*
X0180602Y0082527D01*
X0180650Y0082470D01*
X0180701Y0082416D01*
X0180755Y0082365D01*
X0180812Y0082317D01*
X0180871Y0082272D01*
X0180933Y0082229D01*
X0180996Y0082191D01*
X0181061Y0082155D01*
X0181129Y0082123D01*
X0181197Y0082094D01*
X0181268Y0082070D01*
X0181339Y0082048D01*
X0181411Y0082031D01*
X0181485Y0082018D01*
X0181558Y0082008D01*
X0181633Y0082002D01*
X0181707Y0082000D01*
X0183840Y0082000D01*
X0186493Y0084489D02*
X0190760Y0084489D01*
X0188627Y0082356D02*
X0188627Y0086622D01*
X0189482Y0091000D02*
X0191260Y0091000D01*
X0191260Y0097400D01*
X0189482Y0097400D01*
X0189408Y0097398D01*
X0189333Y0097392D01*
X0189260Y0097382D01*
X0189186Y0097369D01*
X0189114Y0097352D01*
X0189043Y0097330D01*
X0188972Y0097306D01*
X0188904Y0097277D01*
X0188836Y0097245D01*
X0188771Y0097209D01*
X0188708Y0097171D01*
X0188646Y0097128D01*
X0188587Y0097083D01*
X0188530Y0097035D01*
X0188476Y0096984D01*
X0188425Y0096930D01*
X0188377Y0096873D01*
X0188332Y0096814D01*
X0188289Y0096752D01*
X0188251Y0096689D01*
X0188215Y0096624D01*
X0188183Y0096556D01*
X0188154Y0096488D01*
X0188130Y0096417D01*
X0188108Y0096346D01*
X0188091Y0096274D01*
X0188078Y0096200D01*
X0188068Y0096127D01*
X0188062Y0096052D01*
X0188060Y0095978D01*
X0188062Y0095904D01*
X0188068Y0095829D01*
X0188078Y0095756D01*
X0188091Y0095682D01*
X0188108Y0095610D01*
X0188130Y0095539D01*
X0188154Y0095468D01*
X0188183Y0095400D01*
X0188215Y0095332D01*
X0188251Y0095267D01*
X0188289Y0095204D01*
X0188332Y0095142D01*
X0188377Y0095083D01*
X0188425Y0095026D01*
X0188476Y0094972D01*
X0188530Y0094921D01*
X0188587Y0094873D01*
X0188646Y0094828D01*
X0188708Y0094785D01*
X0188771Y0094747D01*
X0188836Y0094711D01*
X0188904Y0094679D01*
X0188972Y0094650D01*
X0189043Y0094626D01*
X0189114Y0094604D01*
X0189186Y0094587D01*
X0189260Y0094574D01*
X0189333Y0094564D01*
X0189408Y0094558D01*
X0189482Y0094556D01*
X0191260Y0094556D01*
X0189482Y0094556D02*
X0189399Y0094554D01*
X0189316Y0094548D01*
X0189233Y0094538D01*
X0189150Y0094525D01*
X0189069Y0094507D01*
X0188988Y0094486D01*
X0188909Y0094461D01*
X0188831Y0094432D01*
X0188754Y0094400D01*
X0188679Y0094364D01*
X0188605Y0094325D01*
X0188534Y0094282D01*
X0188464Y0094236D01*
X0188397Y0094186D01*
X0188332Y0094134D01*
X0188270Y0094079D01*
X0188210Y0094020D01*
X0188153Y0093959D01*
X0188099Y0093896D01*
X0188048Y0093830D01*
X0188001Y0093761D01*
X0187956Y0093691D01*
X0187915Y0093618D01*
X0187878Y0093544D01*
X0187843Y0093468D01*
X0187813Y0093390D01*
X0187786Y0093312D01*
X0187763Y0093231D01*
X0187743Y0093150D01*
X0187728Y0093068D01*
X0187716Y0092986D01*
X0187708Y0092903D01*
X0187704Y0092820D01*
X0187704Y0092736D01*
X0187708Y0092653D01*
X0187716Y0092570D01*
X0187728Y0092488D01*
X0187743Y0092406D01*
X0187763Y0092325D01*
X0187786Y0092244D01*
X0187813Y0092166D01*
X0187843Y0092088D01*
X0187878Y0092012D01*
X0187915Y0091938D01*
X0187956Y0091865D01*
X0188001Y0091795D01*
X0188048Y0091726D01*
X0188099Y0091660D01*
X0188153Y0091597D01*
X0188210Y0091536D01*
X0188270Y0091477D01*
X0188332Y0091422D01*
X0188397Y0091370D01*
X0188464Y0091320D01*
X0188534Y0091274D01*
X0188605Y0091231D01*
X0188679Y0091192D01*
X0188754Y0091156D01*
X0188831Y0091124D01*
X0188909Y0091095D01*
X0188988Y0091070D01*
X0189069Y0091049D01*
X0189150Y0091031D01*
X0189233Y0091018D01*
X0189316Y0091008D01*
X0189399Y0091002D01*
X0189482Y0091000D01*
X0185394Y0096689D02*
X0185394Y0097400D01*
X0181839Y0097400D01*
X0183616Y0091000D01*
X0189482Y0101000D02*
X0191260Y0101000D01*
X0191260Y0107400D01*
X0189482Y0107400D01*
X0189408Y0107398D01*
X0189333Y0107392D01*
X0189260Y0107382D01*
X0189186Y0107369D01*
X0189114Y0107352D01*
X0189043Y0107330D01*
X0188972Y0107306D01*
X0188904Y0107277D01*
X0188836Y0107245D01*
X0188771Y0107209D01*
X0188708Y0107171D01*
X0188646Y0107128D01*
X0188587Y0107083D01*
X0188530Y0107035D01*
X0188476Y0106984D01*
X0188425Y0106930D01*
X0188377Y0106873D01*
X0188332Y0106814D01*
X0188289Y0106752D01*
X0188251Y0106689D01*
X0188215Y0106624D01*
X0188183Y0106556D01*
X0188154Y0106488D01*
X0188130Y0106417D01*
X0188108Y0106346D01*
X0188091Y0106274D01*
X0188078Y0106200D01*
X0188068Y0106127D01*
X0188062Y0106052D01*
X0188060Y0105978D01*
X0188062Y0105904D01*
X0188068Y0105829D01*
X0188078Y0105756D01*
X0188091Y0105682D01*
X0188108Y0105610D01*
X0188130Y0105539D01*
X0188154Y0105468D01*
X0188183Y0105400D01*
X0188215Y0105332D01*
X0188251Y0105267D01*
X0188289Y0105204D01*
X0188332Y0105142D01*
X0188377Y0105083D01*
X0188425Y0105026D01*
X0188476Y0104972D01*
X0188530Y0104921D01*
X0188587Y0104873D01*
X0188646Y0104828D01*
X0188708Y0104785D01*
X0188771Y0104747D01*
X0188836Y0104711D01*
X0188904Y0104679D01*
X0188972Y0104650D01*
X0189043Y0104626D01*
X0189114Y0104604D01*
X0189186Y0104587D01*
X0189260Y0104574D01*
X0189333Y0104564D01*
X0189408Y0104558D01*
X0189482Y0104556D01*
X0191260Y0104556D01*
X0189482Y0104556D02*
X0189399Y0104554D01*
X0189316Y0104548D01*
X0189233Y0104538D01*
X0189150Y0104525D01*
X0189069Y0104507D01*
X0188988Y0104486D01*
X0188909Y0104461D01*
X0188831Y0104432D01*
X0188754Y0104400D01*
X0188679Y0104364D01*
X0188605Y0104325D01*
X0188534Y0104282D01*
X0188464Y0104236D01*
X0188397Y0104186D01*
X0188332Y0104134D01*
X0188270Y0104079D01*
X0188210Y0104020D01*
X0188153Y0103959D01*
X0188099Y0103896D01*
X0188048Y0103830D01*
X0188001Y0103761D01*
X0187956Y0103691D01*
X0187915Y0103618D01*
X0187878Y0103544D01*
X0187843Y0103468D01*
X0187813Y0103390D01*
X0187786Y0103312D01*
X0187763Y0103231D01*
X0187743Y0103150D01*
X0187728Y0103068D01*
X0187716Y0102986D01*
X0187708Y0102903D01*
X0187704Y0102820D01*
X0187704Y0102736D01*
X0187708Y0102653D01*
X0187716Y0102570D01*
X0187728Y0102488D01*
X0187743Y0102406D01*
X0187763Y0102325D01*
X0187786Y0102244D01*
X0187813Y0102166D01*
X0187843Y0102088D01*
X0187878Y0102012D01*
X0187915Y0101938D01*
X0187956Y0101865D01*
X0188001Y0101795D01*
X0188048Y0101726D01*
X0188099Y0101660D01*
X0188153Y0101597D01*
X0188210Y0101536D01*
X0188270Y0101477D01*
X0188332Y0101422D01*
X0188397Y0101370D01*
X0188464Y0101320D01*
X0188534Y0101274D01*
X0188605Y0101231D01*
X0188679Y0101192D01*
X0188754Y0101156D01*
X0188831Y0101124D01*
X0188909Y0101095D01*
X0188988Y0101070D01*
X0189069Y0101049D01*
X0189150Y0101031D01*
X0189233Y0101018D01*
X0189316Y0101008D01*
X0189399Y0101002D01*
X0189482Y0101000D01*
X0185394Y0102778D02*
X0185392Y0102695D01*
X0185386Y0102612D01*
X0185376Y0102529D01*
X0185363Y0102446D01*
X0185345Y0102365D01*
X0185324Y0102284D01*
X0185299Y0102205D01*
X0185270Y0102127D01*
X0185238Y0102050D01*
X0185202Y0101975D01*
X0185163Y0101901D01*
X0185120Y0101830D01*
X0185074Y0101760D01*
X0185024Y0101693D01*
X0184972Y0101628D01*
X0184917Y0101566D01*
X0184858Y0101506D01*
X0184797Y0101449D01*
X0184734Y0101395D01*
X0184668Y0101344D01*
X0184599Y0101297D01*
X0184529Y0101252D01*
X0184456Y0101211D01*
X0184382Y0101174D01*
X0184306Y0101139D01*
X0184228Y0101109D01*
X0184150Y0101082D01*
X0184069Y0101059D01*
X0183988Y0101039D01*
X0183906Y0101024D01*
X0183824Y0101012D01*
X0183741Y0101004D01*
X0183658Y0101000D01*
X0183574Y0101000D01*
X0183491Y0101004D01*
X0183408Y0101012D01*
X0183326Y0101024D01*
X0183244Y0101039D01*
X0183163Y0101059D01*
X0183082Y0101082D01*
X0183004Y0101109D01*
X0182926Y0101139D01*
X0182850Y0101174D01*
X0182776Y0101211D01*
X0182703Y0101252D01*
X0182633Y0101297D01*
X0182564Y0101344D01*
X0182498Y0101395D01*
X0182435Y0101449D01*
X0182374Y0101506D01*
X0182315Y0101566D01*
X0182260Y0101628D01*
X0182208Y0101693D01*
X0182158Y0101760D01*
X0182112Y0101830D01*
X0182069Y0101901D01*
X0182030Y0101975D01*
X0181994Y0102050D01*
X0181962Y0102127D01*
X0181933Y0102205D01*
X0181908Y0102284D01*
X0181887Y0102365D01*
X0181869Y0102446D01*
X0181856Y0102529D01*
X0181846Y0102612D01*
X0181840Y0102695D01*
X0181838Y0102778D01*
X0181840Y0102861D01*
X0181846Y0102944D01*
X0181856Y0103027D01*
X0181869Y0103110D01*
X0181887Y0103191D01*
X0181908Y0103272D01*
X0181933Y0103351D01*
X0181962Y0103429D01*
X0181994Y0103506D01*
X0182030Y0103581D01*
X0182069Y0103655D01*
X0182112Y0103726D01*
X0182158Y0103796D01*
X0182208Y0103863D01*
X0182260Y0103928D01*
X0182315Y0103990D01*
X0182374Y0104050D01*
X0182435Y0104107D01*
X0182498Y0104161D01*
X0182564Y0104212D01*
X0182633Y0104259D01*
X0182703Y0104304D01*
X0182776Y0104345D01*
X0182850Y0104382D01*
X0182926Y0104417D01*
X0183004Y0104447D01*
X0183082Y0104474D01*
X0183163Y0104497D01*
X0183244Y0104517D01*
X0183326Y0104532D01*
X0183408Y0104544D01*
X0183491Y0104552D01*
X0183574Y0104556D01*
X0183658Y0104556D01*
X0183741Y0104552D01*
X0183824Y0104544D01*
X0183906Y0104532D01*
X0183988Y0104517D01*
X0184069Y0104497D01*
X0184150Y0104474D01*
X0184228Y0104447D01*
X0184306Y0104417D01*
X0184382Y0104382D01*
X0184456Y0104345D01*
X0184529Y0104304D01*
X0184599Y0104259D01*
X0184668Y0104212D01*
X0184734Y0104161D01*
X0184797Y0104107D01*
X0184858Y0104050D01*
X0184917Y0103990D01*
X0184972Y0103928D01*
X0185024Y0103863D01*
X0185074Y0103796D01*
X0185120Y0103726D01*
X0185163Y0103655D01*
X0185202Y0103581D01*
X0185238Y0103506D01*
X0185270Y0103429D01*
X0185299Y0103351D01*
X0185324Y0103272D01*
X0185345Y0103191D01*
X0185363Y0103110D01*
X0185376Y0103027D01*
X0185386Y0102944D01*
X0185392Y0102861D01*
X0185394Y0102778D01*
X0185038Y0105978D02*
X0185036Y0105904D01*
X0185030Y0105829D01*
X0185020Y0105756D01*
X0185007Y0105682D01*
X0184990Y0105610D01*
X0184968Y0105539D01*
X0184944Y0105468D01*
X0184915Y0105400D01*
X0184883Y0105332D01*
X0184847Y0105267D01*
X0184809Y0105204D01*
X0184766Y0105142D01*
X0184721Y0105083D01*
X0184673Y0105026D01*
X0184622Y0104972D01*
X0184568Y0104921D01*
X0184511Y0104873D01*
X0184452Y0104828D01*
X0184390Y0104785D01*
X0184327Y0104747D01*
X0184262Y0104711D01*
X0184194Y0104679D01*
X0184126Y0104650D01*
X0184055Y0104626D01*
X0183984Y0104604D01*
X0183912Y0104587D01*
X0183838Y0104574D01*
X0183765Y0104564D01*
X0183690Y0104558D01*
X0183616Y0104556D01*
X0183542Y0104558D01*
X0183467Y0104564D01*
X0183394Y0104574D01*
X0183320Y0104587D01*
X0183248Y0104604D01*
X0183177Y0104626D01*
X0183106Y0104650D01*
X0183038Y0104679D01*
X0182970Y0104711D01*
X0182905Y0104747D01*
X0182842Y0104785D01*
X0182780Y0104828D01*
X0182721Y0104873D01*
X0182664Y0104921D01*
X0182610Y0104972D01*
X0182559Y0105026D01*
X0182511Y0105083D01*
X0182466Y0105142D01*
X0182423Y0105204D01*
X0182385Y0105267D01*
X0182349Y0105332D01*
X0182317Y0105400D01*
X0182288Y0105468D01*
X0182264Y0105539D01*
X0182242Y0105610D01*
X0182225Y0105682D01*
X0182212Y0105756D01*
X0182202Y0105829D01*
X0182196Y0105904D01*
X0182194Y0105978D01*
X0182196Y0106052D01*
X0182202Y0106127D01*
X0182212Y0106200D01*
X0182225Y0106274D01*
X0182242Y0106346D01*
X0182264Y0106417D01*
X0182288Y0106488D01*
X0182317Y0106556D01*
X0182349Y0106624D01*
X0182385Y0106689D01*
X0182423Y0106752D01*
X0182466Y0106814D01*
X0182511Y0106873D01*
X0182559Y0106930D01*
X0182610Y0106984D01*
X0182664Y0107035D01*
X0182721Y0107083D01*
X0182780Y0107128D01*
X0182842Y0107171D01*
X0182905Y0107209D01*
X0182970Y0107245D01*
X0183038Y0107277D01*
X0183106Y0107306D01*
X0183177Y0107330D01*
X0183248Y0107352D01*
X0183320Y0107369D01*
X0183394Y0107382D01*
X0183467Y0107392D01*
X0183542Y0107398D01*
X0183616Y0107400D01*
X0183690Y0107398D01*
X0183765Y0107392D01*
X0183838Y0107382D01*
X0183912Y0107369D01*
X0183984Y0107352D01*
X0184055Y0107330D01*
X0184126Y0107306D01*
X0184194Y0107277D01*
X0184262Y0107245D01*
X0184327Y0107209D01*
X0184390Y0107171D01*
X0184452Y0107128D01*
X0184511Y0107083D01*
X0184568Y0107035D01*
X0184622Y0106984D01*
X0184673Y0106930D01*
X0184721Y0106873D01*
X0184766Y0106814D01*
X0184809Y0106752D01*
X0184847Y0106689D01*
X0184883Y0106624D01*
X0184915Y0106556D01*
X0184944Y0106488D01*
X0184968Y0106417D01*
X0184990Y0106346D01*
X0185007Y0106274D01*
X0185020Y0106200D01*
X0185030Y0106127D01*
X0185036Y0106052D01*
X0185038Y0105978D01*
X0189482Y0111500D02*
X0191260Y0111500D01*
X0191260Y0117900D01*
X0189482Y0117900D01*
X0189408Y0117898D01*
X0189333Y0117892D01*
X0189260Y0117882D01*
X0189186Y0117869D01*
X0189114Y0117852D01*
X0189043Y0117830D01*
X0188972Y0117806D01*
X0188904Y0117777D01*
X0188836Y0117745D01*
X0188771Y0117709D01*
X0188708Y0117671D01*
X0188646Y0117628D01*
X0188587Y0117583D01*
X0188530Y0117535D01*
X0188476Y0117484D01*
X0188425Y0117430D01*
X0188377Y0117373D01*
X0188332Y0117314D01*
X0188289Y0117252D01*
X0188251Y0117189D01*
X0188215Y0117124D01*
X0188183Y0117056D01*
X0188154Y0116988D01*
X0188130Y0116917D01*
X0188108Y0116846D01*
X0188091Y0116774D01*
X0188078Y0116700D01*
X0188068Y0116627D01*
X0188062Y0116552D01*
X0188060Y0116478D01*
X0188062Y0116404D01*
X0188068Y0116329D01*
X0188078Y0116256D01*
X0188091Y0116182D01*
X0188108Y0116110D01*
X0188130Y0116039D01*
X0188154Y0115968D01*
X0188183Y0115900D01*
X0188215Y0115832D01*
X0188251Y0115767D01*
X0188289Y0115704D01*
X0188332Y0115642D01*
X0188377Y0115583D01*
X0188425Y0115526D01*
X0188476Y0115472D01*
X0188530Y0115421D01*
X0188587Y0115373D01*
X0188646Y0115328D01*
X0188708Y0115285D01*
X0188771Y0115247D01*
X0188836Y0115211D01*
X0188904Y0115179D01*
X0188972Y0115150D01*
X0189043Y0115126D01*
X0189114Y0115104D01*
X0189186Y0115087D01*
X0189260Y0115074D01*
X0189333Y0115064D01*
X0189408Y0115058D01*
X0189482Y0115056D01*
X0191260Y0115056D01*
X0189482Y0115056D02*
X0189399Y0115054D01*
X0189316Y0115048D01*
X0189233Y0115038D01*
X0189150Y0115025D01*
X0189069Y0115007D01*
X0188988Y0114986D01*
X0188909Y0114961D01*
X0188831Y0114932D01*
X0188754Y0114900D01*
X0188679Y0114864D01*
X0188605Y0114825D01*
X0188534Y0114782D01*
X0188464Y0114736D01*
X0188397Y0114686D01*
X0188332Y0114634D01*
X0188270Y0114579D01*
X0188210Y0114520D01*
X0188153Y0114459D01*
X0188099Y0114396D01*
X0188048Y0114330D01*
X0188001Y0114261D01*
X0187956Y0114191D01*
X0187915Y0114118D01*
X0187878Y0114044D01*
X0187843Y0113968D01*
X0187813Y0113890D01*
X0187786Y0113812D01*
X0187763Y0113731D01*
X0187743Y0113650D01*
X0187728Y0113568D01*
X0187716Y0113486D01*
X0187708Y0113403D01*
X0187704Y0113320D01*
X0187704Y0113236D01*
X0187708Y0113153D01*
X0187716Y0113070D01*
X0187728Y0112988D01*
X0187743Y0112906D01*
X0187763Y0112825D01*
X0187786Y0112744D01*
X0187813Y0112666D01*
X0187843Y0112588D01*
X0187878Y0112512D01*
X0187915Y0112438D01*
X0187956Y0112365D01*
X0188001Y0112295D01*
X0188048Y0112226D01*
X0188099Y0112160D01*
X0188153Y0112097D01*
X0188210Y0112036D01*
X0188270Y0111977D01*
X0188332Y0111922D01*
X0188397Y0111870D01*
X0188464Y0111820D01*
X0188534Y0111774D01*
X0188605Y0111731D01*
X0188679Y0111692D01*
X0188754Y0111656D01*
X0188831Y0111624D01*
X0188909Y0111595D01*
X0188988Y0111570D01*
X0189069Y0111549D01*
X0189150Y0111531D01*
X0189233Y0111518D01*
X0189316Y0111508D01*
X0189399Y0111502D01*
X0189482Y0111500D01*
X0184683Y0111500D02*
X0184579Y0111502D01*
X0184475Y0111508D01*
X0184372Y0111517D01*
X0184269Y0111530D01*
X0184166Y0111547D01*
X0184065Y0111568D01*
X0183964Y0111592D01*
X0183864Y0111621D01*
X0183765Y0111652D01*
X0183667Y0111688D01*
X0183571Y0111727D01*
X0183476Y0111769D01*
X0183383Y0111815D01*
X0183291Y0111864D01*
X0183201Y0111916D01*
X0183114Y0111972D01*
X0183028Y0112031D01*
X0182945Y0112093D01*
X0182864Y0112158D01*
X0182785Y0112226D01*
X0182709Y0112297D01*
X0182636Y0112370D01*
X0182565Y0112446D01*
X0182497Y0112525D01*
X0182432Y0112606D01*
X0182370Y0112689D01*
X0182311Y0112775D01*
X0182255Y0112862D01*
X0182203Y0112952D01*
X0182154Y0113044D01*
X0182108Y0113137D01*
X0182066Y0113232D01*
X0182027Y0113328D01*
X0181991Y0113426D01*
X0181960Y0113525D01*
X0181931Y0113625D01*
X0181907Y0113726D01*
X0181886Y0113827D01*
X0181869Y0113930D01*
X0181856Y0114033D01*
X0181847Y0114136D01*
X0181841Y0114240D01*
X0181839Y0114344D01*
X0181839Y0116122D01*
X0181838Y0116122D02*
X0181840Y0116205D01*
X0181846Y0116288D01*
X0181856Y0116371D01*
X0181869Y0116454D01*
X0181887Y0116535D01*
X0181908Y0116616D01*
X0181933Y0116695D01*
X0181962Y0116773D01*
X0181994Y0116850D01*
X0182030Y0116925D01*
X0182069Y0116999D01*
X0182112Y0117070D01*
X0182158Y0117140D01*
X0182208Y0117207D01*
X0182260Y0117272D01*
X0182315Y0117334D01*
X0182374Y0117394D01*
X0182435Y0117451D01*
X0182498Y0117505D01*
X0182564Y0117556D01*
X0182633Y0117603D01*
X0182703Y0117648D01*
X0182776Y0117689D01*
X0182850Y0117726D01*
X0182926Y0117761D01*
X0183004Y0117791D01*
X0183082Y0117818D01*
X0183163Y0117841D01*
X0183244Y0117861D01*
X0183326Y0117876D01*
X0183408Y0117888D01*
X0183491Y0117896D01*
X0183574Y0117900D01*
X0183658Y0117900D01*
X0183741Y0117896D01*
X0183824Y0117888D01*
X0183906Y0117876D01*
X0183988Y0117861D01*
X0184069Y0117841D01*
X0184150Y0117818D01*
X0184228Y0117791D01*
X0184306Y0117761D01*
X0184382Y0117726D01*
X0184456Y0117689D01*
X0184529Y0117648D01*
X0184599Y0117603D01*
X0184668Y0117556D01*
X0184734Y0117505D01*
X0184797Y0117451D01*
X0184858Y0117394D01*
X0184917Y0117334D01*
X0184972Y0117272D01*
X0185024Y0117207D01*
X0185074Y0117140D01*
X0185120Y0117070D01*
X0185163Y0116999D01*
X0185202Y0116925D01*
X0185238Y0116850D01*
X0185270Y0116773D01*
X0185299Y0116695D01*
X0185324Y0116616D01*
X0185345Y0116535D01*
X0185363Y0116454D01*
X0185376Y0116371D01*
X0185386Y0116288D01*
X0185392Y0116205D01*
X0185394Y0116122D01*
X0185394Y0115767D01*
X0185392Y0115693D01*
X0185386Y0115618D01*
X0185376Y0115545D01*
X0185363Y0115471D01*
X0185346Y0115399D01*
X0185324Y0115328D01*
X0185300Y0115257D01*
X0185271Y0115189D01*
X0185239Y0115121D01*
X0185203Y0115056D01*
X0185165Y0114993D01*
X0185122Y0114931D01*
X0185077Y0114872D01*
X0185029Y0114815D01*
X0184978Y0114761D01*
X0184924Y0114710D01*
X0184867Y0114662D01*
X0184808Y0114617D01*
X0184746Y0114574D01*
X0184683Y0114536D01*
X0184618Y0114500D01*
X0184550Y0114468D01*
X0184482Y0114439D01*
X0184411Y0114415D01*
X0184340Y0114393D01*
X0184268Y0114376D01*
X0184194Y0114363D01*
X0184121Y0114353D01*
X0184046Y0114347D01*
X0183972Y0114345D01*
X0183972Y0114344D02*
X0181839Y0114344D01*
X0181839Y0121500D02*
X0185394Y0121500D01*
X0183616Y0121500D02*
X0183616Y0127900D01*
X0185394Y0126478D01*
X0189482Y0127900D02*
X0189408Y0127898D01*
X0189333Y0127892D01*
X0189260Y0127882D01*
X0189186Y0127869D01*
X0189114Y0127852D01*
X0189043Y0127830D01*
X0188972Y0127806D01*
X0188904Y0127777D01*
X0188836Y0127745D01*
X0188771Y0127709D01*
X0188708Y0127671D01*
X0188646Y0127628D01*
X0188587Y0127583D01*
X0188530Y0127535D01*
X0188476Y0127484D01*
X0188425Y0127430D01*
X0188377Y0127373D01*
X0188332Y0127314D01*
X0188289Y0127252D01*
X0188251Y0127189D01*
X0188215Y0127124D01*
X0188183Y0127056D01*
X0188154Y0126988D01*
X0188130Y0126917D01*
X0188108Y0126846D01*
X0188091Y0126774D01*
X0188078Y0126700D01*
X0188068Y0126627D01*
X0188062Y0126552D01*
X0188060Y0126478D01*
X0188062Y0126404D01*
X0188068Y0126329D01*
X0188078Y0126256D01*
X0188091Y0126182D01*
X0188108Y0126110D01*
X0188130Y0126039D01*
X0188154Y0125968D01*
X0188183Y0125900D01*
X0188215Y0125832D01*
X0188251Y0125767D01*
X0188289Y0125704D01*
X0188332Y0125642D01*
X0188377Y0125583D01*
X0188425Y0125526D01*
X0188476Y0125472D01*
X0188530Y0125421D01*
X0188587Y0125373D01*
X0188646Y0125328D01*
X0188708Y0125285D01*
X0188771Y0125247D01*
X0188836Y0125211D01*
X0188904Y0125179D01*
X0188972Y0125150D01*
X0189043Y0125126D01*
X0189114Y0125104D01*
X0189186Y0125087D01*
X0189260Y0125074D01*
X0189333Y0125064D01*
X0189408Y0125058D01*
X0189482Y0125056D01*
X0191260Y0125056D01*
X0189482Y0125056D02*
X0189399Y0125054D01*
X0189316Y0125048D01*
X0189233Y0125038D01*
X0189150Y0125025D01*
X0189069Y0125007D01*
X0188988Y0124986D01*
X0188909Y0124961D01*
X0188831Y0124932D01*
X0188754Y0124900D01*
X0188679Y0124864D01*
X0188605Y0124825D01*
X0188534Y0124782D01*
X0188464Y0124736D01*
X0188397Y0124686D01*
X0188332Y0124634D01*
X0188270Y0124579D01*
X0188210Y0124520D01*
X0188153Y0124459D01*
X0188099Y0124396D01*
X0188048Y0124330D01*
X0188001Y0124261D01*
X0187956Y0124191D01*
X0187915Y0124118D01*
X0187878Y0124044D01*
X0187843Y0123968D01*
X0187813Y0123890D01*
X0187786Y0123812D01*
X0187763Y0123731D01*
X0187743Y0123650D01*
X0187728Y0123568D01*
X0187716Y0123486D01*
X0187708Y0123403D01*
X0187704Y0123320D01*
X0187704Y0123236D01*
X0187708Y0123153D01*
X0187716Y0123070D01*
X0187728Y0122988D01*
X0187743Y0122906D01*
X0187763Y0122825D01*
X0187786Y0122744D01*
X0187813Y0122666D01*
X0187843Y0122588D01*
X0187878Y0122512D01*
X0187915Y0122438D01*
X0187956Y0122365D01*
X0188001Y0122295D01*
X0188048Y0122226D01*
X0188099Y0122160D01*
X0188153Y0122097D01*
X0188210Y0122036D01*
X0188270Y0121977D01*
X0188332Y0121922D01*
X0188397Y0121870D01*
X0188464Y0121820D01*
X0188534Y0121774D01*
X0188605Y0121731D01*
X0188679Y0121692D01*
X0188754Y0121656D01*
X0188831Y0121624D01*
X0188909Y0121595D01*
X0188988Y0121570D01*
X0189069Y0121549D01*
X0189150Y0121531D01*
X0189233Y0121518D01*
X0189316Y0121508D01*
X0189399Y0121502D01*
X0189482Y0121500D01*
X0191260Y0121500D01*
X0191260Y0127900D01*
X0189482Y0127900D01*
X0189482Y0131500D02*
X0191260Y0131500D01*
X0191260Y0137900D01*
X0189482Y0137900D01*
X0189408Y0137898D01*
X0189333Y0137892D01*
X0189260Y0137882D01*
X0189186Y0137869D01*
X0189114Y0137852D01*
X0189043Y0137830D01*
X0188972Y0137806D01*
X0188904Y0137777D01*
X0188836Y0137745D01*
X0188771Y0137709D01*
X0188708Y0137671D01*
X0188646Y0137628D01*
X0188587Y0137583D01*
X0188530Y0137535D01*
X0188476Y0137484D01*
X0188425Y0137430D01*
X0188377Y0137373D01*
X0188332Y0137314D01*
X0188289Y0137252D01*
X0188251Y0137189D01*
X0188215Y0137124D01*
X0188183Y0137056D01*
X0188154Y0136988D01*
X0188130Y0136917D01*
X0188108Y0136846D01*
X0188091Y0136774D01*
X0188078Y0136700D01*
X0188068Y0136627D01*
X0188062Y0136552D01*
X0188060Y0136478D01*
X0188062Y0136404D01*
X0188068Y0136329D01*
X0188078Y0136256D01*
X0188091Y0136182D01*
X0188108Y0136110D01*
X0188130Y0136039D01*
X0188154Y0135968D01*
X0188183Y0135900D01*
X0188215Y0135832D01*
X0188251Y0135767D01*
X0188289Y0135704D01*
X0188332Y0135642D01*
X0188377Y0135583D01*
X0188425Y0135526D01*
X0188476Y0135472D01*
X0188530Y0135421D01*
X0188587Y0135373D01*
X0188646Y0135328D01*
X0188708Y0135285D01*
X0188771Y0135247D01*
X0188836Y0135211D01*
X0188904Y0135179D01*
X0188972Y0135150D01*
X0189043Y0135126D01*
X0189114Y0135104D01*
X0189186Y0135087D01*
X0189260Y0135074D01*
X0189333Y0135064D01*
X0189408Y0135058D01*
X0189482Y0135056D01*
X0191260Y0135056D01*
X0189482Y0135056D02*
X0189399Y0135054D01*
X0189316Y0135048D01*
X0189233Y0135038D01*
X0189150Y0135025D01*
X0189069Y0135007D01*
X0188988Y0134986D01*
X0188909Y0134961D01*
X0188831Y0134932D01*
X0188754Y0134900D01*
X0188679Y0134864D01*
X0188605Y0134825D01*
X0188534Y0134782D01*
X0188464Y0134736D01*
X0188397Y0134686D01*
X0188332Y0134634D01*
X0188270Y0134579D01*
X0188210Y0134520D01*
X0188153Y0134459D01*
X0188099Y0134396D01*
X0188048Y0134330D01*
X0188001Y0134261D01*
X0187956Y0134191D01*
X0187915Y0134118D01*
X0187878Y0134044D01*
X0187843Y0133968D01*
X0187813Y0133890D01*
X0187786Y0133812D01*
X0187763Y0133731D01*
X0187743Y0133650D01*
X0187728Y0133568D01*
X0187716Y0133486D01*
X0187708Y0133403D01*
X0187704Y0133320D01*
X0187704Y0133236D01*
X0187708Y0133153D01*
X0187716Y0133070D01*
X0187728Y0132988D01*
X0187743Y0132906D01*
X0187763Y0132825D01*
X0187786Y0132744D01*
X0187813Y0132666D01*
X0187843Y0132588D01*
X0187878Y0132512D01*
X0187915Y0132438D01*
X0187956Y0132365D01*
X0188001Y0132295D01*
X0188048Y0132226D01*
X0188099Y0132160D01*
X0188153Y0132097D01*
X0188210Y0132036D01*
X0188270Y0131977D01*
X0188332Y0131922D01*
X0188397Y0131870D01*
X0188464Y0131820D01*
X0188534Y0131774D01*
X0188605Y0131731D01*
X0188679Y0131692D01*
X0188754Y0131656D01*
X0188831Y0131624D01*
X0188909Y0131595D01*
X0188988Y0131570D01*
X0189069Y0131549D01*
X0189150Y0131531D01*
X0189233Y0131518D01*
X0189316Y0131508D01*
X0189399Y0131502D01*
X0189482Y0131500D01*
X0185394Y0131500D02*
X0181839Y0131500D01*
X0183616Y0131500D02*
X0183616Y0137900D01*
X0185394Y0136478D01*
X0185394Y0141000D02*
X0181839Y0141000D01*
X0183616Y0141000D02*
X0183616Y0147400D01*
X0185394Y0145978D01*
X0189482Y0147400D02*
X0189408Y0147398D01*
X0189333Y0147392D01*
X0189260Y0147382D01*
X0189186Y0147369D01*
X0189114Y0147352D01*
X0189043Y0147330D01*
X0188972Y0147306D01*
X0188904Y0147277D01*
X0188836Y0147245D01*
X0188771Y0147209D01*
X0188708Y0147171D01*
X0188646Y0147128D01*
X0188587Y0147083D01*
X0188530Y0147035D01*
X0188476Y0146984D01*
X0188425Y0146930D01*
X0188377Y0146873D01*
X0188332Y0146814D01*
X0188289Y0146752D01*
X0188251Y0146689D01*
X0188215Y0146624D01*
X0188183Y0146556D01*
X0188154Y0146488D01*
X0188130Y0146417D01*
X0188108Y0146346D01*
X0188091Y0146274D01*
X0188078Y0146200D01*
X0188068Y0146127D01*
X0188062Y0146052D01*
X0188060Y0145978D01*
X0188062Y0145904D01*
X0188068Y0145829D01*
X0188078Y0145756D01*
X0188091Y0145682D01*
X0188108Y0145610D01*
X0188130Y0145539D01*
X0188154Y0145468D01*
X0188183Y0145400D01*
X0188215Y0145332D01*
X0188251Y0145267D01*
X0188289Y0145204D01*
X0188332Y0145142D01*
X0188377Y0145083D01*
X0188425Y0145026D01*
X0188476Y0144972D01*
X0188530Y0144921D01*
X0188587Y0144873D01*
X0188646Y0144828D01*
X0188708Y0144785D01*
X0188771Y0144747D01*
X0188836Y0144711D01*
X0188904Y0144679D01*
X0188972Y0144650D01*
X0189043Y0144626D01*
X0189114Y0144604D01*
X0189186Y0144587D01*
X0189260Y0144574D01*
X0189333Y0144564D01*
X0189408Y0144558D01*
X0189482Y0144556D01*
X0191260Y0144556D01*
X0189482Y0144556D02*
X0189399Y0144554D01*
X0189316Y0144548D01*
X0189233Y0144538D01*
X0189150Y0144525D01*
X0189069Y0144507D01*
X0188988Y0144486D01*
X0188909Y0144461D01*
X0188831Y0144432D01*
X0188754Y0144400D01*
X0188679Y0144364D01*
X0188605Y0144325D01*
X0188534Y0144282D01*
X0188464Y0144236D01*
X0188397Y0144186D01*
X0188332Y0144134D01*
X0188270Y0144079D01*
X0188210Y0144020D01*
X0188153Y0143959D01*
X0188099Y0143896D01*
X0188048Y0143830D01*
X0188001Y0143761D01*
X0187956Y0143691D01*
X0187915Y0143618D01*
X0187878Y0143544D01*
X0187843Y0143468D01*
X0187813Y0143390D01*
X0187786Y0143312D01*
X0187763Y0143231D01*
X0187743Y0143150D01*
X0187728Y0143068D01*
X0187716Y0142986D01*
X0187708Y0142903D01*
X0187704Y0142820D01*
X0187704Y0142736D01*
X0187708Y0142653D01*
X0187716Y0142570D01*
X0187728Y0142488D01*
X0187743Y0142406D01*
X0187763Y0142325D01*
X0187786Y0142244D01*
X0187813Y0142166D01*
X0187843Y0142088D01*
X0187878Y0142012D01*
X0187915Y0141938D01*
X0187956Y0141865D01*
X0188001Y0141795D01*
X0188048Y0141726D01*
X0188099Y0141660D01*
X0188153Y0141597D01*
X0188210Y0141536D01*
X0188270Y0141477D01*
X0188332Y0141422D01*
X0188397Y0141370D01*
X0188464Y0141320D01*
X0188534Y0141274D01*
X0188605Y0141231D01*
X0188679Y0141192D01*
X0188754Y0141156D01*
X0188831Y0141124D01*
X0188909Y0141095D01*
X0188988Y0141070D01*
X0189069Y0141049D01*
X0189150Y0141031D01*
X0189233Y0141018D01*
X0189316Y0141008D01*
X0189399Y0141002D01*
X0189482Y0141000D01*
X0191260Y0141000D01*
X0191260Y0147400D01*
X0189482Y0147400D01*
X0179240Y0147400D02*
X0179240Y0144556D01*
X0177107Y0144556D01*
X0177107Y0144555D02*
X0177033Y0144553D01*
X0176958Y0144547D01*
X0176885Y0144537D01*
X0176811Y0144524D01*
X0176739Y0144507D01*
X0176668Y0144485D01*
X0176597Y0144461D01*
X0176529Y0144432D01*
X0176461Y0144400D01*
X0176396Y0144364D01*
X0176333Y0144326D01*
X0176271Y0144283D01*
X0176212Y0144238D01*
X0176155Y0144190D01*
X0176101Y0144139D01*
X0176050Y0144085D01*
X0176002Y0144028D01*
X0175957Y0143969D01*
X0175914Y0143907D01*
X0175876Y0143844D01*
X0175840Y0143779D01*
X0175808Y0143711D01*
X0175779Y0143643D01*
X0175755Y0143572D01*
X0175733Y0143501D01*
X0175716Y0143429D01*
X0175703Y0143355D01*
X0175693Y0143282D01*
X0175687Y0143207D01*
X0175685Y0143133D01*
X0175685Y0142422D01*
X0175687Y0142348D01*
X0175693Y0142273D01*
X0175703Y0142200D01*
X0175716Y0142126D01*
X0175733Y0142054D01*
X0175755Y0141983D01*
X0175779Y0141912D01*
X0175808Y0141844D01*
X0175840Y0141776D01*
X0175876Y0141711D01*
X0175914Y0141648D01*
X0175957Y0141586D01*
X0176002Y0141527D01*
X0176050Y0141470D01*
X0176101Y0141416D01*
X0176155Y0141365D01*
X0176212Y0141317D01*
X0176271Y0141272D01*
X0176333Y0141229D01*
X0176396Y0141191D01*
X0176461Y0141155D01*
X0176529Y0141123D01*
X0176597Y0141094D01*
X0176668Y0141070D01*
X0176739Y0141048D01*
X0176811Y0141031D01*
X0176885Y0141018D01*
X0176958Y0141008D01*
X0177033Y0141002D01*
X0177107Y0141000D01*
X0179240Y0141000D01*
X0177818Y0137900D02*
X0179240Y0132922D01*
X0175685Y0132922D01*
X0176751Y0134344D02*
X0176751Y0131500D01*
X0177107Y0127900D02*
X0179240Y0127900D01*
X0177107Y0127900D02*
X0177033Y0127898D01*
X0176958Y0127892D01*
X0176885Y0127882D01*
X0176811Y0127869D01*
X0176739Y0127852D01*
X0176668Y0127830D01*
X0176597Y0127806D01*
X0176529Y0127777D01*
X0176461Y0127745D01*
X0176396Y0127709D01*
X0176333Y0127671D01*
X0176271Y0127628D01*
X0176212Y0127583D01*
X0176155Y0127535D01*
X0176101Y0127484D01*
X0176050Y0127430D01*
X0176002Y0127373D01*
X0175957Y0127314D01*
X0175914Y0127252D01*
X0175876Y0127189D01*
X0175840Y0127124D01*
X0175808Y0127056D01*
X0175779Y0126988D01*
X0175755Y0126917D01*
X0175733Y0126846D01*
X0175716Y0126774D01*
X0175703Y0126700D01*
X0175693Y0126627D01*
X0175687Y0126552D01*
X0175685Y0126478D01*
X0175687Y0126404D01*
X0175693Y0126329D01*
X0175703Y0126256D01*
X0175716Y0126182D01*
X0175733Y0126110D01*
X0175755Y0126039D01*
X0175779Y0125968D01*
X0175808Y0125900D01*
X0175840Y0125832D01*
X0175876Y0125767D01*
X0175914Y0125704D01*
X0175957Y0125642D01*
X0176002Y0125583D01*
X0176050Y0125526D01*
X0176101Y0125472D01*
X0176155Y0125421D01*
X0176212Y0125373D01*
X0176271Y0125328D01*
X0176333Y0125285D01*
X0176396Y0125247D01*
X0176461Y0125211D01*
X0176529Y0125179D01*
X0176597Y0125150D01*
X0176668Y0125126D01*
X0176739Y0125104D01*
X0176811Y0125087D01*
X0176885Y0125074D01*
X0176958Y0125064D01*
X0177033Y0125058D01*
X0177107Y0125056D01*
X0178529Y0125056D01*
X0177462Y0125056D02*
X0177379Y0125054D01*
X0177296Y0125048D01*
X0177213Y0125038D01*
X0177130Y0125025D01*
X0177049Y0125007D01*
X0176968Y0124986D01*
X0176889Y0124961D01*
X0176811Y0124932D01*
X0176734Y0124900D01*
X0176659Y0124864D01*
X0176585Y0124825D01*
X0176514Y0124782D01*
X0176444Y0124736D01*
X0176377Y0124686D01*
X0176312Y0124634D01*
X0176250Y0124579D01*
X0176190Y0124520D01*
X0176133Y0124459D01*
X0176079Y0124396D01*
X0176028Y0124330D01*
X0175981Y0124261D01*
X0175936Y0124191D01*
X0175895Y0124118D01*
X0175858Y0124044D01*
X0175823Y0123968D01*
X0175793Y0123890D01*
X0175766Y0123812D01*
X0175743Y0123731D01*
X0175723Y0123650D01*
X0175708Y0123568D01*
X0175696Y0123486D01*
X0175688Y0123403D01*
X0175684Y0123320D01*
X0175684Y0123236D01*
X0175688Y0123153D01*
X0175696Y0123070D01*
X0175708Y0122988D01*
X0175723Y0122906D01*
X0175743Y0122825D01*
X0175766Y0122744D01*
X0175793Y0122666D01*
X0175823Y0122588D01*
X0175858Y0122512D01*
X0175895Y0122438D01*
X0175936Y0122365D01*
X0175981Y0122295D01*
X0176028Y0122226D01*
X0176079Y0122160D01*
X0176133Y0122097D01*
X0176190Y0122036D01*
X0176250Y0121977D01*
X0176312Y0121922D01*
X0176377Y0121870D01*
X0176444Y0121820D01*
X0176514Y0121774D01*
X0176585Y0121731D01*
X0176659Y0121692D01*
X0176734Y0121656D01*
X0176811Y0121624D01*
X0176889Y0121595D01*
X0176968Y0121570D01*
X0177049Y0121549D01*
X0177130Y0121531D01*
X0177213Y0121518D01*
X0177296Y0121508D01*
X0177379Y0121502D01*
X0177462Y0121500D01*
X0179240Y0121500D01*
X0179240Y0147400D02*
X0175685Y0147400D01*
D12*
X0168060Y0043100D03*
X0168060Y0042100D03*
X0168060Y0041000D03*
X0167960Y0040200D03*
X0167560Y0040100D03*
X0165660Y0040000D03*
X0165660Y0039500D03*
X0165660Y0042100D03*
X0164460Y0042500D03*
X0164460Y0042600D03*
X0171760Y0041000D03*
X0175160Y0042100D03*
X0176560Y0042200D03*
X0180360Y0042300D03*
X0180460Y0042800D03*
X0183260Y0040300D03*
X0182860Y0039300D03*
X0183060Y0039200D03*
X0183460Y0038800D03*
X0183560Y0038700D03*
X0183960Y0037600D03*
X0185760Y0038500D03*
X0185860Y0038400D03*
X0185960Y0038200D03*
X0184260Y0040800D03*
X0183960Y0041600D03*
X0186460Y0042800D03*
X0189060Y0040400D03*
X0190360Y0040400D03*
X0190360Y0040300D03*
X0190360Y0040200D03*
X0190360Y0040100D03*
X0190360Y0040000D03*
X0190360Y0039900D03*
X0190360Y0039800D03*
X0190360Y0039700D03*
X0190360Y0039600D03*
X0190360Y0041000D03*
X0190360Y0041100D03*
X0190360Y0041500D03*
X0190360Y0041600D03*
X0191360Y0042200D03*
X0189860Y0036000D03*
X0189860Y0035900D03*
X0190160Y0034800D03*
X0189260Y0034800D03*
X0189360Y0031200D03*
X0190160Y0031200D03*
X0189560Y0028600D03*
X0189760Y0027400D03*
X0188760Y0027500D03*
X0183460Y0030300D03*
X0182960Y0034300D03*
X0182860Y0034400D03*
X0180960Y0037100D03*
X0175960Y0032000D03*
X0177060Y0030600D03*
X0177360Y0029200D03*
X0177360Y0029100D03*
X0177360Y0029000D03*
X0174560Y0028100D03*
X0174360Y0027800D03*
X0174160Y0027400D03*
X0174260Y0027200D03*
X0174260Y0027100D03*
X0175460Y0024900D03*
X0176660Y0025100D03*
X0175860Y0021900D03*
X0176160Y0021800D03*
X0176060Y0019200D03*
X0176160Y0017900D03*
X0175260Y0018000D03*
X0175160Y0017900D03*
X0175160Y0017800D03*
X0174860Y0014800D03*
X0174960Y0014700D03*
X0175060Y0014600D03*
X0175160Y0013700D03*
X0176060Y0013700D03*
X0177660Y0009500D03*
X0183560Y0012700D03*
X0183860Y0012900D03*
X0183960Y0013000D03*
X0184060Y0013100D03*
X0179260Y0021800D03*
X0172960Y0023100D03*
X0171160Y0023000D03*
X0171260Y0024300D03*
X0171260Y0024400D03*
X0171160Y0024700D03*
X0171060Y0024800D03*
X0170960Y0025000D03*
X0170860Y0025100D03*
X0170760Y0025200D03*
X0170460Y0025400D03*
X0169260Y0024600D03*
X0169360Y0024400D03*
X0169460Y0024300D03*
X0169460Y0024200D03*
X0169460Y0024100D03*
X0167660Y0023800D03*
X0167560Y0023900D03*
X0167360Y0023000D03*
X0168860Y0020800D03*
X0169060Y0020600D03*
X0169160Y0019400D03*
X0170360Y0021500D03*
X0167560Y0017300D03*
X0167760Y0017000D03*
X0167960Y0016700D03*
X0168160Y0016400D03*
X0168260Y0016300D03*
X0170360Y0014100D03*
X0170560Y0013900D03*
X0171160Y0013400D03*
X0171260Y0013300D03*
X0171360Y0013200D03*
D13*
X0176760Y0010000D03*
X0177760Y0009600D03*
X0175460Y0018700D03*
X0177660Y0021500D03*
X0170060Y0023100D03*
X0185660Y0037000D03*
X0186360Y0036800D03*
X0189960Y0040700D03*
X0190860Y0042600D03*
X0189760Y0031400D03*
X0189760Y0031300D03*
X0187660Y0029100D03*
X0173260Y0043700D03*
X0171260Y0042600D03*
X0166760Y0041500D03*
X0166160Y0041300D03*
D14*
X0167360Y0042700D03*
X0165160Y0043100D03*
X0174060Y0041300D03*
X0185760Y0041000D03*
X0188860Y0043300D03*
X0189160Y0043200D03*
X0185360Y0037100D03*
X0178760Y0028300D03*
X0173460Y0019500D03*
X0170360Y0020100D03*
X0177760Y0009700D03*
D15*
X0177760Y0009800D03*
X0170660Y0020000D03*
X0184460Y0029900D03*
X0181560Y0042500D03*
X0181560Y0042600D03*
X0187460Y0043700D03*
X0173860Y0041800D03*
X0166360Y0043500D03*
D16*
X0177760Y0041500D03*
X0186260Y0044000D03*
X0179060Y0027500D03*
X0177760Y0009900D03*
D17*
X0178810Y0010000D03*
X0175710Y0018100D03*
X0172310Y0023400D03*
X0171610Y0033500D03*
X0173310Y0041200D03*
X0173310Y0041600D03*
X0173410Y0043300D03*
X0169910Y0042200D03*
X0167510Y0040700D03*
X0178510Y0041400D03*
X0180910Y0044000D03*
X0184610Y0041300D03*
X0185910Y0043000D03*
X0189210Y0042200D03*
X0189510Y0042100D03*
X0189810Y0042000D03*
X0190610Y0042700D03*
X0187710Y0036400D03*
X0189310Y0035700D03*
X0189710Y0035100D03*
X0189710Y0035000D03*
X0189710Y0034900D03*
X0187910Y0032600D03*
X0186610Y0033000D03*
X0189310Y0032000D03*
X0186210Y0029600D03*
X0189010Y0028400D03*
X0189210Y0027800D03*
X0186010Y0036900D03*
D18*
X0187410Y0032700D03*
X0189710Y0031600D03*
X0186410Y0029500D03*
X0189110Y0028200D03*
X0178710Y0028900D03*
X0177110Y0029700D03*
X0176610Y0021700D03*
X0174310Y0019100D03*
X0174110Y0019200D03*
X0175610Y0018500D03*
X0175710Y0018400D03*
X0173610Y0015400D03*
X0175610Y0013900D03*
X0176410Y0010100D03*
X0179210Y0010100D03*
X0169610Y0019600D03*
X0167010Y0024200D03*
X0165910Y0041200D03*
X0167710Y0041900D03*
X0174910Y0042000D03*
X0178710Y0040800D03*
X0181110Y0040600D03*
X0180810Y0042700D03*
X0181710Y0043200D03*
X0184310Y0043500D03*
X0185010Y0042700D03*
X0184310Y0041400D03*
X0188010Y0041300D03*
X0191110Y0042400D03*
D19*
X0189760Y0040100D03*
X0189860Y0039300D03*
X0189260Y0038800D03*
X0190560Y0038300D03*
X0191060Y0038100D03*
X0187460Y0038400D03*
X0186560Y0036100D03*
X0186860Y0036000D03*
X0185660Y0036400D03*
X0184960Y0038600D03*
X0184660Y0038800D03*
X0185460Y0039900D03*
X0187260Y0041100D03*
X0186060Y0042400D03*
X0183560Y0041200D03*
X0182860Y0040900D03*
X0182460Y0038900D03*
X0182760Y0038700D03*
X0182860Y0036900D03*
X0183460Y0034900D03*
X0184060Y0034600D03*
X0184160Y0031900D03*
X0181860Y0032500D03*
X0181860Y0032600D03*
X0181260Y0032100D03*
X0181260Y0032000D03*
X0181260Y0031900D03*
X0181260Y0031800D03*
X0180060Y0031800D03*
X0180060Y0031900D03*
X0180060Y0032000D03*
X0180060Y0032100D03*
X0180060Y0032200D03*
X0180060Y0032300D03*
X0180060Y0032400D03*
X0180060Y0032500D03*
X0180060Y0032600D03*
X0180060Y0032700D03*
X0179360Y0032700D03*
X0178860Y0032600D03*
X0178860Y0032500D03*
X0178860Y0032400D03*
X0178860Y0032300D03*
X0178860Y0032200D03*
X0178860Y0032100D03*
X0178860Y0032000D03*
X0178860Y0031900D03*
X0179460Y0031800D03*
X0177960Y0031800D03*
X0177960Y0031900D03*
X0177960Y0032400D03*
X0177960Y0032500D03*
X0177960Y0032600D03*
X0177460Y0032400D03*
X0177460Y0032300D03*
X0177460Y0032200D03*
X0177460Y0032100D03*
X0177360Y0031900D03*
X0176860Y0031800D03*
X0176760Y0031900D03*
X0176760Y0032000D03*
X0176760Y0032100D03*
X0176360Y0031800D03*
X0176260Y0031900D03*
X0176160Y0032200D03*
X0175760Y0032300D03*
X0175760Y0032400D03*
X0175660Y0031900D03*
X0175560Y0031800D03*
X0175160Y0031900D03*
X0175160Y0032300D03*
X0175160Y0032400D03*
X0175160Y0032500D03*
X0175160Y0032600D03*
X0175060Y0032900D03*
X0174560Y0032300D03*
X0174660Y0031900D03*
X0173960Y0031900D03*
X0173960Y0032000D03*
X0173960Y0032100D03*
X0173960Y0032200D03*
X0173960Y0032300D03*
X0173960Y0031800D03*
X0175960Y0032900D03*
X0177260Y0032700D03*
X0177360Y0032600D03*
X0177860Y0031100D03*
X0176560Y0029100D03*
X0176860Y0028600D03*
X0175160Y0028800D03*
X0174160Y0028500D03*
X0174060Y0028700D03*
X0174160Y0029500D03*
X0172360Y0029500D03*
X0172360Y0029600D03*
X0172360Y0029700D03*
X0172360Y0029800D03*
X0172360Y0029900D03*
X0172360Y0030000D03*
X0172360Y0029400D03*
X0172360Y0029300D03*
X0172360Y0029200D03*
X0172360Y0029100D03*
X0172360Y0029000D03*
X0172360Y0028900D03*
X0172360Y0028800D03*
X0172360Y0028700D03*
X0172360Y0028600D03*
X0172360Y0028500D03*
X0172360Y0028400D03*
X0172360Y0028300D03*
X0172360Y0028200D03*
X0172360Y0028100D03*
X0172360Y0028000D03*
X0172360Y0027900D03*
X0172360Y0027800D03*
X0172360Y0027700D03*
X0172360Y0027600D03*
X0172360Y0027500D03*
X0172360Y0027400D03*
X0172360Y0027300D03*
X0172360Y0027200D03*
X0172360Y0027000D03*
X0172360Y0026900D03*
X0172260Y0026000D03*
X0172260Y0025900D03*
X0172360Y0025600D03*
X0172360Y0025500D03*
X0172360Y0025400D03*
X0172460Y0025000D03*
X0172460Y0024900D03*
X0172460Y0024800D03*
X0172460Y0024700D03*
X0172560Y0024500D03*
X0172660Y0024300D03*
X0172660Y0024200D03*
X0171760Y0021800D03*
X0170160Y0020900D03*
X0169860Y0021200D03*
X0169660Y0021300D03*
X0168760Y0020100D03*
X0168560Y0020200D03*
X0168460Y0020300D03*
X0168660Y0018900D03*
X0168960Y0018600D03*
X0169060Y0018700D03*
X0169160Y0018800D03*
X0168860Y0018500D03*
X0168760Y0018400D03*
X0168660Y0018300D03*
X0168360Y0018100D03*
X0170060Y0016300D03*
X0171460Y0014900D03*
X0174260Y0014500D03*
X0174560Y0014300D03*
X0174660Y0013100D03*
X0175360Y0013100D03*
X0175560Y0013300D03*
X0175760Y0013100D03*
X0175860Y0013000D03*
X0176460Y0013000D03*
X0178060Y0013000D03*
X0178060Y0013100D03*
X0178060Y0013200D03*
X0178060Y0013300D03*
X0178060Y0013400D03*
X0178060Y0013500D03*
X0178060Y0013600D03*
X0178060Y0013700D03*
X0178060Y0013800D03*
X0178060Y0013900D03*
X0178060Y0014000D03*
X0178060Y0014100D03*
X0178060Y0014200D03*
X0178060Y0014300D03*
X0178060Y0014400D03*
X0178060Y0014500D03*
X0178060Y0014600D03*
X0178060Y0014700D03*
X0178060Y0014800D03*
X0178060Y0012900D03*
X0178060Y0012800D03*
X0178060Y0012700D03*
X0178060Y0012600D03*
X0178060Y0012500D03*
X0178060Y0012400D03*
X0178060Y0012300D03*
X0178060Y0012200D03*
X0178060Y0012100D03*
X0178060Y0012000D03*
X0178060Y0011900D03*
X0178060Y0011800D03*
X0178060Y0011700D03*
X0178060Y0011600D03*
X0178060Y0011500D03*
X0178060Y0011400D03*
X0178060Y0011300D03*
X0178060Y0011200D03*
X0178060Y0011100D03*
X0178060Y0011000D03*
X0178060Y0010900D03*
X0178060Y0010800D03*
X0178060Y0010700D03*
X0178060Y0010600D03*
X0178060Y0010500D03*
X0178060Y0010400D03*
X0178060Y0010300D03*
X0178060Y0010200D03*
X0178060Y0010100D03*
X0175160Y0016200D03*
X0174660Y0017200D03*
X0174460Y0018300D03*
X0174060Y0018500D03*
X0173860Y0018600D03*
X0173560Y0018700D03*
X0172760Y0019000D03*
X0172260Y0019100D03*
X0173860Y0021200D03*
X0174260Y0022100D03*
X0174460Y0022000D03*
X0174560Y0021900D03*
X0175060Y0021600D03*
X0175760Y0021000D03*
X0175660Y0020900D03*
X0175660Y0020800D03*
X0176060Y0020800D03*
X0176160Y0021000D03*
X0176660Y0020900D03*
X0176860Y0020500D03*
X0176760Y0020400D03*
X0177460Y0020900D03*
X0178060Y0020800D03*
X0178060Y0020700D03*
X0178060Y0020600D03*
X0178060Y0020500D03*
X0178060Y0020400D03*
X0178060Y0020300D03*
X0178060Y0020200D03*
X0178060Y0020100D03*
X0178060Y0020000D03*
X0178060Y0019900D03*
X0178060Y0019800D03*
X0178060Y0019700D03*
X0178060Y0019600D03*
X0178160Y0019500D03*
X0179960Y0021400D03*
X0180360Y0021600D03*
X0180560Y0021700D03*
X0180860Y0021900D03*
X0181060Y0022000D03*
X0181460Y0022300D03*
X0181760Y0026700D03*
X0181660Y0027000D03*
X0181560Y0027200D03*
X0181360Y0027600D03*
X0180860Y0028200D03*
X0186460Y0028900D03*
X0187660Y0028300D03*
X0189260Y0027100D03*
X0188760Y0030700D03*
X0187960Y0030800D03*
X0188060Y0031800D03*
X0190560Y0030700D03*
X0190660Y0030800D03*
X0190660Y0034400D03*
X0180560Y0036300D03*
X0180060Y0036100D03*
X0178060Y0034900D03*
X0178060Y0034800D03*
X0178060Y0034700D03*
X0178060Y0034600D03*
X0178060Y0034500D03*
X0178060Y0034400D03*
X0178060Y0034300D03*
X0178060Y0034200D03*
X0177460Y0034400D03*
X0177460Y0034500D03*
X0177460Y0034600D03*
X0177460Y0034700D03*
X0177460Y0034800D03*
X0177460Y0034900D03*
X0177460Y0035000D03*
X0177460Y0035100D03*
X0177460Y0035200D03*
X0177460Y0035300D03*
X0177460Y0035400D03*
X0177460Y0035500D03*
X0177460Y0035600D03*
X0177460Y0035700D03*
X0177460Y0035800D03*
X0177460Y0035900D03*
X0177460Y0036000D03*
X0177460Y0036100D03*
X0177460Y0036200D03*
X0177460Y0036300D03*
X0177460Y0036400D03*
X0177460Y0036500D03*
X0177460Y0036600D03*
X0177460Y0036700D03*
X0177460Y0036800D03*
X0177460Y0036900D03*
X0177460Y0037000D03*
X0177360Y0037200D03*
X0178060Y0040400D03*
X0178060Y0040500D03*
X0178160Y0040700D03*
X0176160Y0041700D03*
X0175660Y0041700D03*
X0175560Y0041600D03*
X0171860Y0043900D03*
X0169460Y0043500D03*
X0169160Y0040900D03*
X0179260Y0042700D03*
X0179360Y0042800D03*
X0180660Y0041900D03*
X0180660Y0041800D03*
X0180560Y0041700D03*
X0180560Y0041600D03*
X0180760Y0042000D03*
X0169760Y0025300D03*
X0170160Y0025000D03*
X0168560Y0024400D03*
X0168460Y0024500D03*
X0168360Y0024600D03*
X0168260Y0024700D03*
X0166760Y0023700D03*
X0167660Y0022500D03*
X0167860Y0022600D03*
X0168060Y0022700D03*
X0167260Y0022200D03*
X0167160Y0022100D03*
X0167060Y0022000D03*
X0166660Y0021700D03*
X0175460Y0020400D03*
D20*
X0174810Y0018900D03*
X0173910Y0015300D03*
X0175710Y0014200D03*
X0175610Y0014000D03*
X0174310Y0011200D03*
X0174510Y0011100D03*
X0174810Y0010900D03*
X0175010Y0010800D03*
X0175210Y0010700D03*
X0179510Y0010200D03*
X0179710Y0010300D03*
X0179910Y0010400D03*
X0179710Y0026200D03*
X0178710Y0029000D03*
X0178710Y0029100D03*
X0178710Y0029200D03*
X0178710Y0029300D03*
X0177310Y0028800D03*
X0177310Y0028700D03*
X0177310Y0030000D03*
X0177410Y0030100D03*
X0177510Y0030300D03*
X0174310Y0028000D03*
X0168810Y0025100D03*
X0168610Y0025200D03*
X0167010Y0024300D03*
X0167810Y0040900D03*
X0165810Y0042200D03*
X0171510Y0042700D03*
X0174910Y0041400D03*
X0177810Y0043400D03*
X0180710Y0044100D03*
X0181310Y0043300D03*
X0181910Y0040500D03*
X0182610Y0040400D03*
X0184110Y0041500D03*
X0185710Y0040500D03*
X0186210Y0040800D03*
X0186310Y0042900D03*
X0187910Y0042700D03*
X0190210Y0041800D03*
X0188110Y0036100D03*
X0188610Y0032200D03*
X0188810Y0032100D03*
X0187210Y0029200D03*
D21*
X0186960Y0029300D03*
X0186660Y0029400D03*
X0187860Y0028900D03*
X0189160Y0028100D03*
X0189160Y0028000D03*
X0189560Y0031700D03*
X0189460Y0031800D03*
X0188360Y0032300D03*
X0188160Y0032400D03*
X0189560Y0035400D03*
X0189460Y0035500D03*
X0187960Y0036200D03*
X0180860Y0038500D03*
X0177160Y0029800D03*
X0177160Y0029300D03*
X0172560Y0023300D03*
X0167860Y0023300D03*
X0174560Y0019000D03*
X0174660Y0015000D03*
X0175760Y0014300D03*
X0175360Y0010600D03*
X0175560Y0010500D03*
X0175760Y0010400D03*
X0175960Y0010300D03*
X0176160Y0010200D03*
X0178760Y0021700D03*
X0165860Y0040100D03*
X0164660Y0042800D03*
X0167860Y0043000D03*
X0169660Y0042100D03*
D22*
X0170360Y0041800D03*
X0167860Y0042000D03*
X0165760Y0041100D03*
X0177460Y0030200D03*
X0177260Y0029900D03*
X0177260Y0029600D03*
X0177260Y0029500D03*
X0177260Y0029400D03*
X0178860Y0030300D03*
X0174660Y0028400D03*
X0174260Y0027900D03*
X0175660Y0025100D03*
X0172760Y0023200D03*
X0169460Y0024000D03*
X0169060Y0024900D03*
X0168960Y0025000D03*
X0167260Y0024100D03*
X0167660Y0023200D03*
X0169360Y0019500D03*
X0174960Y0018800D03*
X0176060Y0019100D03*
X0174160Y0015200D03*
X0174360Y0015100D03*
X0175660Y0014100D03*
X0173860Y0011500D03*
X0173660Y0011600D03*
X0173560Y0011700D03*
X0173360Y0011800D03*
X0173060Y0012000D03*
X0172760Y0012200D03*
X0172460Y0012400D03*
X0172160Y0012600D03*
X0171760Y0012900D03*
X0174160Y0011300D03*
X0174660Y0011000D03*
X0180160Y0010500D03*
X0180360Y0010600D03*
X0180560Y0010700D03*
X0180860Y0010900D03*
X0181060Y0011000D03*
X0181560Y0011300D03*
X0189760Y0027500D03*
X0188460Y0028500D03*
X0188160Y0028700D03*
X0187960Y0028800D03*
X0183760Y0029500D03*
X0182660Y0034500D03*
X0182460Y0034600D03*
X0181160Y0037200D03*
X0179960Y0040700D03*
X0180060Y0041400D03*
X0181260Y0042100D03*
X0185260Y0040600D03*
X0187860Y0041400D03*
X0190260Y0040500D03*
X0191260Y0042300D03*
X0188360Y0036000D03*
X0188560Y0035900D03*
D23*
X0188710Y0035800D03*
X0189810Y0035800D03*
X0184710Y0040700D03*
X0185710Y0042600D03*
X0184010Y0043100D03*
X0182510Y0043500D03*
X0182510Y0042300D03*
X0180010Y0041300D03*
X0178510Y0042400D03*
X0178810Y0043800D03*
X0181310Y0038300D03*
X0183210Y0039100D03*
X0183310Y0039000D03*
X0183410Y0038900D03*
X0187710Y0041500D03*
X0190310Y0041700D03*
X0178810Y0030200D03*
X0178810Y0030100D03*
X0178210Y0030600D03*
X0177310Y0028900D03*
X0174610Y0028300D03*
X0174610Y0028200D03*
X0174310Y0027000D03*
X0175610Y0025000D03*
X0171310Y0024200D03*
X0171310Y0024100D03*
X0171210Y0024500D03*
X0171210Y0024600D03*
X0171010Y0024900D03*
X0170610Y0025300D03*
X0169210Y0024700D03*
X0169110Y0024800D03*
X0169310Y0024500D03*
X0168510Y0025300D03*
X0167410Y0024000D03*
X0167510Y0023100D03*
X0168910Y0020700D03*
X0171410Y0015400D03*
X0172610Y0015900D03*
X0174710Y0014900D03*
X0172310Y0012500D03*
X0172610Y0012300D03*
X0172910Y0012100D03*
X0173210Y0011900D03*
X0174010Y0011400D03*
X0172010Y0012700D03*
X0171910Y0012800D03*
X0171610Y0013000D03*
X0171510Y0013100D03*
X0171010Y0013500D03*
X0176110Y0018000D03*
X0175910Y0018800D03*
X0176010Y0018900D03*
X0176010Y0019000D03*
X0183210Y0012400D03*
X0183310Y0012500D03*
X0183410Y0012600D03*
X0183710Y0012800D03*
X0183010Y0012300D03*
X0182910Y0012200D03*
X0182810Y0012100D03*
X0182610Y0012000D03*
X0182510Y0011900D03*
X0182310Y0011800D03*
X0182210Y0011700D03*
X0182010Y0011600D03*
X0181910Y0011500D03*
X0181710Y0011400D03*
X0181410Y0011200D03*
X0181210Y0011100D03*
X0180710Y0010800D03*
X0188310Y0028600D03*
X0189510Y0028500D03*
X0174910Y0032800D03*
X0169310Y0040600D03*
X0170910Y0041900D03*
X0164510Y0042700D03*
D24*
X0164360Y0040400D03*
X0164360Y0040300D03*
X0164360Y0040200D03*
X0164360Y0040100D03*
X0164360Y0040000D03*
X0164360Y0039900D03*
X0164360Y0039800D03*
X0164360Y0039700D03*
X0164360Y0039600D03*
X0164360Y0039500D03*
X0164360Y0039400D03*
X0164360Y0039300D03*
X0164360Y0039200D03*
X0164360Y0039100D03*
X0164360Y0039000D03*
X0164360Y0038900D03*
X0165360Y0039400D03*
X0166860Y0039900D03*
X0168160Y0040300D03*
X0169360Y0041900D03*
X0169360Y0042000D03*
X0169360Y0042500D03*
X0171760Y0042800D03*
X0171760Y0042900D03*
X0171760Y0043000D03*
X0171760Y0043100D03*
X0171760Y0042200D03*
X0171760Y0042100D03*
X0171760Y0042000D03*
X0171760Y0041900D03*
X0171760Y0041800D03*
X0171760Y0041700D03*
X0171760Y0041600D03*
X0171760Y0041500D03*
X0172760Y0043600D03*
X0175260Y0043600D03*
X0175260Y0043500D03*
X0175260Y0043400D03*
X0175260Y0043300D03*
X0175260Y0043200D03*
X0175260Y0043100D03*
X0175260Y0043000D03*
X0175260Y0042900D03*
X0175260Y0042800D03*
X0175260Y0042700D03*
X0175260Y0042600D03*
X0175260Y0042500D03*
X0175260Y0042400D03*
X0175260Y0042300D03*
X0175260Y0042200D03*
X0176460Y0042400D03*
X0176460Y0042500D03*
X0176460Y0042600D03*
X0176460Y0043800D03*
X0178960Y0043600D03*
X0178960Y0043500D03*
X0178960Y0043400D03*
X0180260Y0043400D03*
X0180260Y0043300D03*
X0180260Y0043200D03*
X0180260Y0043100D03*
X0180260Y0043000D03*
X0180060Y0041800D03*
X0180060Y0041700D03*
X0182560Y0041100D03*
X0182660Y0042200D03*
X0183860Y0042200D03*
X0183860Y0042300D03*
X0183860Y0042400D03*
X0183860Y0042500D03*
X0183860Y0042600D03*
X0183860Y0042100D03*
X0183860Y0042000D03*
X0184060Y0043600D03*
X0186560Y0042600D03*
X0186560Y0042500D03*
X0186560Y0042400D03*
X0186560Y0042300D03*
X0186560Y0042200D03*
X0186560Y0042100D03*
X0186560Y0042000D03*
X0186560Y0041900D03*
X0186560Y0041800D03*
X0186560Y0041700D03*
X0186560Y0041600D03*
X0186560Y0041500D03*
X0186560Y0041400D03*
X0187560Y0041800D03*
X0187560Y0041900D03*
X0188360Y0041900D03*
X0188560Y0041800D03*
X0188860Y0041700D03*
X0189160Y0041600D03*
X0188460Y0040600D03*
X0187760Y0040800D03*
X0186360Y0040300D03*
X0185460Y0038800D03*
X0184460Y0040100D03*
X0183860Y0038000D03*
X0184060Y0036800D03*
X0184260Y0035000D03*
X0184460Y0034900D03*
X0184760Y0034600D03*
X0184860Y0034500D03*
X0184960Y0034300D03*
X0185060Y0034100D03*
X0185060Y0034000D03*
X0185160Y0033700D03*
X0183160Y0034000D03*
X0182460Y0034700D03*
X0180760Y0037000D03*
X0181860Y0037800D03*
X0181760Y0038000D03*
X0181660Y0038100D03*
X0177060Y0032800D03*
X0177060Y0031700D03*
X0178160Y0030700D03*
X0177960Y0025900D03*
X0179660Y0026100D03*
X0180460Y0024700D03*
X0180760Y0022600D03*
X0180460Y0022400D03*
X0180360Y0022300D03*
X0180160Y0022200D03*
X0179960Y0022100D03*
X0179760Y0022000D03*
X0177060Y0024200D03*
X0176960Y0024300D03*
X0176660Y0024600D03*
X0175660Y0023600D03*
X0175760Y0023500D03*
X0175260Y0024200D03*
X0175160Y0024300D03*
X0175160Y0024400D03*
X0175160Y0024500D03*
X0175160Y0024600D03*
X0175060Y0022300D03*
X0175260Y0022200D03*
X0174360Y0020300D03*
X0174360Y0020200D03*
X0174360Y0020100D03*
X0174360Y0020000D03*
X0174360Y0019900D03*
X0174360Y0019800D03*
X0174260Y0019700D03*
X0174260Y0019600D03*
X0172660Y0020100D03*
X0172560Y0020600D03*
X0172560Y0020700D03*
X0172560Y0020800D03*
X0172460Y0021100D03*
X0172360Y0021300D03*
X0170960Y0020700D03*
X0170860Y0020900D03*
X0170760Y0021100D03*
X0171060Y0020400D03*
X0171060Y0020300D03*
X0171060Y0020200D03*
X0169460Y0020200D03*
X0169060Y0019300D03*
X0166960Y0018300D03*
X0167060Y0018100D03*
X0167260Y0017800D03*
X0166860Y0018500D03*
X0166760Y0018700D03*
X0166660Y0018800D03*
X0166660Y0018900D03*
X0166560Y0019000D03*
X0166460Y0019200D03*
X0166360Y0019400D03*
X0166260Y0019600D03*
X0166160Y0019800D03*
X0165960Y0020200D03*
X0165860Y0020500D03*
X0165760Y0020700D03*
X0165660Y0020900D03*
X0165560Y0021100D03*
X0165560Y0021200D03*
X0165460Y0021400D03*
X0165460Y0021500D03*
X0165360Y0021600D03*
X0165360Y0021700D03*
X0165260Y0021900D03*
X0165260Y0022000D03*
X0165160Y0022100D03*
X0165160Y0022200D03*
X0165160Y0022300D03*
X0165060Y0022500D03*
X0165060Y0022600D03*
X0165060Y0022700D03*
X0164960Y0022800D03*
X0164960Y0022900D03*
X0164960Y0023000D03*
X0164860Y0023100D03*
X0164860Y0023200D03*
X0164860Y0023300D03*
X0164860Y0023400D03*
X0164760Y0023500D03*
X0164760Y0023600D03*
X0164760Y0023700D03*
X0164760Y0023800D03*
X0164660Y0024000D03*
X0164660Y0024100D03*
X0164660Y0024200D03*
X0164660Y0024300D03*
X0164660Y0024400D03*
X0164560Y0024700D03*
X0164560Y0024800D03*
X0164560Y0024900D03*
X0164560Y0025000D03*
X0164460Y0025600D03*
X0164460Y0025700D03*
X0164460Y0025800D03*
X0164460Y0025900D03*
X0164460Y0026000D03*
X0164460Y0026200D03*
X0164460Y0026300D03*
X0164460Y0026400D03*
X0164460Y0026500D03*
X0164460Y0026600D03*
X0164460Y0026700D03*
X0164460Y0026800D03*
X0164460Y0026900D03*
X0164460Y0027000D03*
X0164460Y0027100D03*
X0167060Y0024400D03*
X0170760Y0016500D03*
X0170860Y0016400D03*
X0170960Y0016300D03*
X0171060Y0016200D03*
X0171160Y0016100D03*
X0171260Y0015900D03*
X0171360Y0015800D03*
X0171160Y0015300D03*
X0172460Y0015100D03*
X0173060Y0015000D03*
X0172660Y0016000D03*
X0172460Y0016500D03*
X0175060Y0017100D03*
X0175160Y0017700D03*
X0176160Y0013500D03*
X0176160Y0013400D03*
X0174960Y0013000D03*
X0170260Y0014200D03*
X0170160Y0014300D03*
X0170060Y0014400D03*
X0169960Y0014500D03*
X0169860Y0014600D03*
X0169760Y0014700D03*
X0169660Y0014800D03*
X0169560Y0014900D03*
X0169460Y0015000D03*
X0169360Y0015100D03*
X0169160Y0015300D03*
X0169060Y0015400D03*
X0168960Y0015500D03*
X0168860Y0015600D03*
X0168760Y0015700D03*
X0183360Y0030500D03*
X0183360Y0030600D03*
X0184660Y0031600D03*
X0184760Y0031500D03*
X0184860Y0031400D03*
X0185060Y0031100D03*
X0185260Y0030200D03*
X0188260Y0030300D03*
X0188260Y0030400D03*
X0188360Y0030100D03*
X0188360Y0030000D03*
X0188260Y0029200D03*
X0189260Y0030500D03*
X0189260Y0030900D03*
X0189260Y0031000D03*
X0189960Y0032200D03*
X0189960Y0032300D03*
X0189960Y0032400D03*
X0188460Y0032800D03*
X0188460Y0032900D03*
X0189160Y0034200D03*
X0189860Y0036100D03*
X0188360Y0037200D03*
X0188260Y0037500D03*
X0188260Y0037600D03*
X0190460Y0039000D03*
X0191360Y0038000D03*
X0191460Y0041100D03*
X0191460Y0041200D03*
X0191460Y0041300D03*
X0191460Y0041400D03*
X0191460Y0041500D03*
X0191460Y0041600D03*
X0191460Y0041700D03*
X0191460Y0041800D03*
X0191460Y0041900D03*
X0191460Y0042000D03*
X0190760Y0023000D03*
X0190660Y0022700D03*
X0190660Y0022600D03*
X0190560Y0022400D03*
X0190460Y0022000D03*
X0190460Y0021900D03*
X0190360Y0021700D03*
X0190360Y0021600D03*
X0190260Y0021500D03*
X0190260Y0021400D03*
X0190260Y0021300D03*
X0190160Y0021200D03*
X0190060Y0021000D03*
X0190060Y0020900D03*
X0189960Y0020800D03*
X0189960Y0020700D03*
X0189960Y0020600D03*
X0189860Y0020500D03*
X0189860Y0020400D03*
X0189760Y0020300D03*
X0189760Y0020200D03*
X0189660Y0020100D03*
X0189660Y0020000D03*
X0189560Y0019900D03*
X0189560Y0019800D03*
X0189360Y0019500D03*
X0189160Y0019200D03*
X0189160Y0019100D03*
X0188960Y0018800D03*
X0186360Y0015300D03*
X0186260Y0015100D03*
X0185860Y0014700D03*
X0185760Y0014600D03*
X0185160Y0014000D03*
X0164360Y0033800D03*
X0164360Y0033900D03*
X0164360Y0034000D03*
X0164360Y0037200D03*
D25*
X0165910Y0039600D03*
X0166210Y0039700D03*
X0166510Y0039800D03*
X0167210Y0040000D03*
X0168110Y0041100D03*
X0168110Y0041200D03*
X0168110Y0041300D03*
X0168110Y0041400D03*
X0168110Y0041500D03*
X0168110Y0042200D03*
X0168110Y0042300D03*
X0168110Y0042400D03*
X0168110Y0042500D03*
X0170110Y0041700D03*
X0171810Y0041100D03*
X0172710Y0041100D03*
X0172810Y0041500D03*
X0175210Y0043700D03*
X0176510Y0042700D03*
X0176510Y0042300D03*
X0176810Y0041400D03*
X0178910Y0043200D03*
X0178910Y0043300D03*
X0178910Y0043700D03*
X0180310Y0043600D03*
X0180310Y0043500D03*
X0180310Y0042900D03*
X0180310Y0042200D03*
X0180210Y0042100D03*
X0180210Y0042000D03*
X0180110Y0041900D03*
X0182010Y0041900D03*
X0183910Y0041900D03*
X0183910Y0041800D03*
X0183910Y0041700D03*
X0183910Y0042700D03*
X0183910Y0042800D03*
X0183910Y0042900D03*
X0183910Y0043000D03*
X0184710Y0042800D03*
X0186510Y0042700D03*
X0187710Y0042800D03*
X0187610Y0042200D03*
X0187610Y0042100D03*
X0187610Y0042000D03*
X0187610Y0041700D03*
X0187610Y0041600D03*
X0186510Y0041300D03*
X0188810Y0040500D03*
X0189310Y0040300D03*
X0189510Y0041500D03*
X0190410Y0041400D03*
X0190410Y0041300D03*
X0190410Y0041200D03*
X0191410Y0042100D03*
X0190410Y0039500D03*
X0190210Y0039100D03*
X0186110Y0037900D03*
X0186110Y0037800D03*
X0186110Y0037700D03*
X0186110Y0037600D03*
X0186110Y0037500D03*
X0186110Y0037400D03*
X0186110Y0037300D03*
X0186010Y0038000D03*
X0186010Y0038100D03*
X0185910Y0038300D03*
X0185710Y0038600D03*
X0185610Y0038700D03*
X0183810Y0038200D03*
X0183810Y0038100D03*
X0183910Y0037900D03*
X0183910Y0037800D03*
X0183910Y0037700D03*
X0183710Y0038300D03*
X0183710Y0038400D03*
X0183710Y0038500D03*
X0183610Y0038600D03*
X0183810Y0040200D03*
X0181510Y0038200D03*
X0180910Y0038600D03*
X0183010Y0034200D03*
X0183110Y0034100D03*
X0181610Y0031700D03*
X0179710Y0031700D03*
X0183410Y0030400D03*
X0180910Y0027900D03*
X0176610Y0025000D03*
X0176710Y0024500D03*
X0176810Y0024400D03*
X0175310Y0024800D03*
X0175210Y0024700D03*
X0175410Y0022100D03*
X0175610Y0022000D03*
X0176010Y0021200D03*
X0176110Y0019300D03*
X0176210Y0017800D03*
X0176210Y0014600D03*
X0176210Y0014500D03*
X0176110Y0014400D03*
X0176110Y0013600D03*
X0175110Y0013600D03*
X0175310Y0014400D03*
X0175210Y0014500D03*
X0170910Y0013600D03*
X0170810Y0013700D03*
X0170710Y0013800D03*
X0170510Y0014000D03*
X0169210Y0015200D03*
X0168710Y0015800D03*
X0168610Y0015900D03*
X0168510Y0016000D03*
X0168410Y0016100D03*
X0168310Y0016200D03*
X0168110Y0016500D03*
X0168010Y0016600D03*
X0167910Y0016800D03*
X0167810Y0016900D03*
X0167710Y0017100D03*
X0167610Y0017200D03*
X0167510Y0017400D03*
X0167410Y0017500D03*
X0167410Y0017600D03*
X0167310Y0017700D03*
X0167210Y0017900D03*
X0167110Y0018000D03*
X0167010Y0018200D03*
X0166910Y0018400D03*
X0166810Y0018600D03*
X0166510Y0019100D03*
X0166410Y0019300D03*
X0166310Y0019500D03*
X0166210Y0019700D03*
X0166110Y0019900D03*
X0166110Y0020000D03*
X0166010Y0020100D03*
X0165910Y0020300D03*
X0165910Y0020400D03*
X0165810Y0020600D03*
X0165710Y0020800D03*
X0165610Y0021000D03*
X0165510Y0021300D03*
X0165310Y0021800D03*
X0165110Y0022400D03*
X0167210Y0022800D03*
X0167310Y0022900D03*
X0167710Y0023700D03*
X0170210Y0021600D03*
X0170510Y0021400D03*
X0170610Y0021300D03*
X0170710Y0021200D03*
X0169410Y0020300D03*
X0169310Y0020400D03*
X0169210Y0020500D03*
X0172610Y0020000D03*
X0173110Y0023000D03*
X0174210Y0027300D03*
X0174810Y0028500D03*
X0174810Y0028600D03*
X0174910Y0032100D03*
X0165610Y0041000D03*
X0164410Y0041000D03*
X0164410Y0041100D03*
X0164410Y0041200D03*
X0164410Y0041300D03*
X0164410Y0041400D03*
X0164410Y0041500D03*
X0164410Y0041600D03*
X0164410Y0041700D03*
X0164410Y0041800D03*
X0164410Y0041900D03*
X0164410Y0042000D03*
X0164410Y0042100D03*
X0164410Y0042200D03*
X0164410Y0042300D03*
X0164410Y0042400D03*
X0164410Y0040900D03*
X0164410Y0040800D03*
X0164410Y0040700D03*
X0164410Y0040600D03*
X0164410Y0040500D03*
X0164510Y0033500D03*
X0164510Y0026100D03*
X0179510Y0021900D03*
X0185610Y0014500D03*
X0185510Y0014400D03*
X0185410Y0014300D03*
X0185310Y0014200D03*
X0185210Y0014100D03*
X0185010Y0013900D03*
X0184910Y0013800D03*
X0184810Y0013700D03*
X0184710Y0013600D03*
X0184610Y0013500D03*
X0184410Y0013400D03*
X0184310Y0013300D03*
X0184210Y0013200D03*
X0185910Y0014800D03*
X0186110Y0015000D03*
X0186310Y0015200D03*
X0186510Y0015400D03*
X0186510Y0015500D03*
X0190510Y0022500D03*
X0188710Y0027400D03*
X0189610Y0028700D03*
X0189310Y0031100D03*
X0190210Y0031100D03*
X0189910Y0032100D03*
X0188410Y0032700D03*
X0189210Y0034700D03*
D26*
X0189460Y0034300D03*
X0189960Y0034300D03*
X0188360Y0033800D03*
X0188160Y0034100D03*
X0188460Y0033400D03*
X0186860Y0033400D03*
X0186860Y0033500D03*
X0186560Y0032400D03*
X0186860Y0032300D03*
X0187560Y0032000D03*
X0187860Y0031900D03*
X0188060Y0030700D03*
X0188360Y0029600D03*
X0186860Y0029900D03*
X0186860Y0030000D03*
X0186860Y0030100D03*
X0186860Y0030200D03*
X0186860Y0030300D03*
X0186860Y0030400D03*
X0186860Y0030500D03*
X0186860Y0030600D03*
X0186460Y0031300D03*
X0185160Y0032800D03*
X0184360Y0031800D03*
X0183360Y0032800D03*
X0182660Y0032800D03*
X0182660Y0032900D03*
X0182660Y0033000D03*
X0182660Y0033100D03*
X0182660Y0033200D03*
X0182660Y0032700D03*
X0182660Y0032600D03*
X0182660Y0032500D03*
X0182660Y0032400D03*
X0182660Y0032300D03*
X0182660Y0032200D03*
X0182660Y0032100D03*
X0182660Y0032000D03*
X0182660Y0031900D03*
X0182660Y0031800D03*
X0182660Y0031700D03*
X0182660Y0031600D03*
X0181560Y0031600D03*
X0181360Y0032200D03*
X0181460Y0032700D03*
X0181760Y0034300D03*
X0183360Y0033800D03*
X0183760Y0034800D03*
X0181360Y0036700D03*
X0180460Y0036800D03*
X0182260Y0039000D03*
X0183860Y0040900D03*
X0182760Y0041400D03*
X0182760Y0042900D03*
X0182760Y0043000D03*
X0182760Y0043100D03*
X0182760Y0043200D03*
X0182760Y0043300D03*
X0182160Y0043100D03*
X0180960Y0043400D03*
X0179160Y0042600D03*
X0176260Y0041600D03*
X0174560Y0043500D03*
X0171660Y0041400D03*
X0168360Y0040400D03*
X0165460Y0040900D03*
X0165460Y0042000D03*
X0173860Y0032800D03*
X0175960Y0032700D03*
X0175960Y0032600D03*
X0177960Y0032800D03*
X0178060Y0030800D03*
X0179260Y0030400D03*
X0180860Y0028100D03*
X0180660Y0027800D03*
X0180560Y0027700D03*
X0180760Y0026100D03*
X0180760Y0025300D03*
X0180760Y0025200D03*
X0180760Y0025100D03*
X0180760Y0025000D03*
X0180760Y0024900D03*
X0180660Y0024800D03*
X0180360Y0024500D03*
X0181760Y0023700D03*
X0181860Y0023800D03*
X0181960Y0024000D03*
X0182060Y0024100D03*
X0182060Y0024200D03*
X0182160Y0024300D03*
X0182160Y0024400D03*
X0182260Y0024500D03*
X0182260Y0024600D03*
X0182360Y0024800D03*
X0182460Y0025100D03*
X0182560Y0025400D03*
X0182560Y0025500D03*
X0182560Y0025600D03*
X0182560Y0025700D03*
X0181660Y0023500D03*
X0181560Y0023400D03*
X0179360Y0021200D03*
X0178260Y0021000D03*
X0177260Y0021000D03*
X0176460Y0020800D03*
X0176160Y0020900D03*
X0175760Y0020700D03*
X0175760Y0021300D03*
X0174060Y0021000D03*
X0173860Y0022300D03*
X0173360Y0022900D03*
X0173860Y0023400D03*
X0173960Y0023300D03*
X0173760Y0023500D03*
X0173660Y0023600D03*
X0173660Y0023700D03*
X0173560Y0023800D03*
X0173460Y0024000D03*
X0173360Y0024200D03*
X0173260Y0024400D03*
X0173260Y0024500D03*
X0173160Y0024700D03*
X0173060Y0025000D03*
X0173060Y0025100D03*
X0172960Y0025300D03*
X0172960Y0025400D03*
X0172960Y0025500D03*
X0172960Y0025600D03*
X0172960Y0025700D03*
X0171660Y0022900D03*
X0172560Y0022700D03*
X0171960Y0021700D03*
X0168960Y0023000D03*
X0167060Y0022600D03*
X0166960Y0022500D03*
X0166160Y0023900D03*
X0167960Y0024900D03*
X0172260Y0030100D03*
X0174360Y0029300D03*
X0174460Y0029200D03*
X0174560Y0029000D03*
X0174660Y0028800D03*
X0174660Y0028700D03*
X0176660Y0029200D03*
X0177560Y0023900D03*
X0177760Y0023800D03*
X0177860Y0023700D03*
X0177960Y0023600D03*
X0178060Y0023500D03*
X0178060Y0023400D03*
X0178160Y0023300D03*
X0176260Y0023000D03*
X0176160Y0023200D03*
X0176060Y0023300D03*
X0176260Y0017700D03*
X0175260Y0016000D03*
X0175260Y0015700D03*
X0175260Y0015600D03*
X0175260Y0015500D03*
X0175160Y0015400D03*
X0175160Y0015300D03*
X0175160Y0015200D03*
X0175060Y0015100D03*
X0174060Y0014600D03*
X0173660Y0014800D03*
X0174060Y0015900D03*
X0174060Y0016000D03*
X0174060Y0016100D03*
X0174060Y0016200D03*
X0174060Y0016300D03*
X0173960Y0016500D03*
X0173960Y0016600D03*
X0173860Y0016700D03*
X0173860Y0016800D03*
X0173760Y0016900D03*
X0171760Y0017100D03*
X0170860Y0015100D03*
X0168460Y0018200D03*
X0168860Y0019100D03*
X0175060Y0013500D03*
X0188760Y0027300D03*
X0191260Y0027300D03*
X0191260Y0027400D03*
X0191260Y0027500D03*
X0191260Y0027600D03*
X0191260Y0027700D03*
X0191260Y0027800D03*
X0191260Y0027900D03*
X0191260Y0028000D03*
X0191260Y0028100D03*
X0191260Y0028200D03*
X0191260Y0028300D03*
X0191260Y0028400D03*
X0191260Y0028500D03*
X0191260Y0028600D03*
X0191260Y0028700D03*
X0191260Y0028800D03*
X0191260Y0028900D03*
X0191260Y0029000D03*
X0191260Y0029100D03*
X0191260Y0029200D03*
X0191260Y0029300D03*
X0191260Y0029400D03*
X0191260Y0029500D03*
X0191260Y0029600D03*
X0191360Y0030600D03*
X0191360Y0030700D03*
X0191360Y0030800D03*
X0191360Y0030900D03*
X0191360Y0031000D03*
X0191360Y0031100D03*
X0191360Y0031200D03*
X0191360Y0031300D03*
X0191360Y0031400D03*
X0191360Y0031500D03*
X0191360Y0031600D03*
X0191360Y0031700D03*
X0191360Y0031800D03*
X0191360Y0031900D03*
X0191360Y0032000D03*
X0191360Y0032100D03*
X0191360Y0032200D03*
X0191360Y0032300D03*
X0191360Y0032400D03*
X0188060Y0035500D03*
X0187560Y0035700D03*
X0187360Y0035800D03*
X0187660Y0038300D03*
X0188660Y0039000D03*
X0188960Y0038900D03*
X0190560Y0039400D03*
X0191460Y0038900D03*
X0191460Y0038800D03*
X0191460Y0038700D03*
X0191460Y0038600D03*
X0191460Y0038500D03*
X0191460Y0038400D03*
X0191460Y0038300D03*
X0191460Y0038200D03*
X0189660Y0041400D03*
X0188160Y0042000D03*
X0187360Y0041000D03*
X0186460Y0040700D03*
X0186260Y0039700D03*
X0186960Y0039500D03*
X0191260Y0027200D03*
X0191260Y0027100D03*
X0191260Y0027000D03*
X0191260Y0026900D03*
X0191260Y0026800D03*
X0191260Y0026700D03*
X0191260Y0026600D03*
X0191260Y0026500D03*
X0191260Y0026400D03*
X0191260Y0026300D03*
X0191260Y0026200D03*
D27*
X0189110Y0028300D03*
X0189810Y0031500D03*
X0189410Y0031900D03*
X0188010Y0032500D03*
X0187110Y0032800D03*
X0186910Y0032900D03*
X0187810Y0036300D03*
X0187010Y0036600D03*
X0186710Y0036700D03*
X0189410Y0035600D03*
X0189710Y0035200D03*
X0190010Y0041900D03*
X0191010Y0042500D03*
X0188010Y0042600D03*
X0182210Y0043600D03*
X0181610Y0042000D03*
X0178410Y0041800D03*
X0174110Y0043400D03*
X0167610Y0041800D03*
X0167710Y0040800D03*
X0166410Y0041400D03*
X0166010Y0040200D03*
X0164810Y0042900D03*
X0179010Y0029900D03*
X0178810Y0028700D03*
X0171010Y0024000D03*
X0175710Y0018200D03*
X0175610Y0013800D03*
D28*
X0173910Y0014700D03*
X0175310Y0015800D03*
X0175310Y0015900D03*
X0175210Y0016100D03*
X0173610Y0017000D03*
X0173510Y0017100D03*
X0174310Y0018400D03*
X0171810Y0015000D03*
X0170910Y0014600D03*
X0170710Y0014500D03*
X0170810Y0015000D03*
X0171410Y0016800D03*
X0169710Y0019100D03*
X0169510Y0019000D03*
X0169310Y0018900D03*
X0168710Y0019000D03*
X0168010Y0020500D03*
X0166910Y0021900D03*
X0166910Y0022400D03*
X0167410Y0022300D03*
X0167510Y0022400D03*
X0168310Y0022800D03*
X0166610Y0023800D03*
X0168110Y0024800D03*
X0172210Y0026800D03*
X0172910Y0026800D03*
X0172910Y0026700D03*
X0172910Y0026600D03*
X0172910Y0026500D03*
X0172910Y0026400D03*
X0172910Y0026300D03*
X0172910Y0026200D03*
X0172910Y0026100D03*
X0172910Y0026000D03*
X0172910Y0025900D03*
X0172910Y0025800D03*
X0173010Y0025200D03*
X0173110Y0024900D03*
X0173110Y0024800D03*
X0173210Y0024600D03*
X0173310Y0024300D03*
X0173410Y0024100D03*
X0173510Y0023900D03*
X0172910Y0022600D03*
X0173510Y0022400D03*
X0174110Y0022200D03*
X0174910Y0021700D03*
X0175310Y0021500D03*
X0175810Y0021100D03*
X0176610Y0021000D03*
X0176510Y0020700D03*
X0178110Y0020900D03*
X0179710Y0021300D03*
X0180110Y0021500D03*
X0181610Y0022400D03*
X0182310Y0024700D03*
X0182410Y0024900D03*
X0182410Y0025000D03*
X0182510Y0025200D03*
X0182510Y0025300D03*
X0182610Y0025800D03*
X0182610Y0025900D03*
X0182610Y0026000D03*
X0182610Y0026100D03*
X0182610Y0026200D03*
X0182610Y0026300D03*
X0182610Y0026400D03*
X0182610Y0026500D03*
X0182610Y0026600D03*
X0182610Y0026700D03*
X0182610Y0026800D03*
X0182610Y0026900D03*
X0182610Y0027000D03*
X0182610Y0027100D03*
X0182610Y0027200D03*
X0182610Y0027300D03*
X0182610Y0027400D03*
X0182610Y0027500D03*
X0182610Y0027600D03*
X0182610Y0027700D03*
X0182610Y0027800D03*
X0182610Y0027900D03*
X0182610Y0028000D03*
X0182610Y0028100D03*
X0182610Y0028200D03*
X0182610Y0028300D03*
X0182610Y0028400D03*
X0182610Y0028500D03*
X0182610Y0028600D03*
X0182610Y0028700D03*
X0182610Y0028800D03*
X0182610Y0028900D03*
X0182610Y0029000D03*
X0182610Y0029100D03*
X0182610Y0029200D03*
X0182610Y0029300D03*
X0182610Y0029400D03*
X0182610Y0029500D03*
X0182610Y0029600D03*
X0182610Y0029700D03*
X0182610Y0029800D03*
X0182610Y0029900D03*
X0182610Y0030000D03*
X0182610Y0030100D03*
X0182610Y0030200D03*
X0182610Y0030300D03*
X0182610Y0030400D03*
X0182610Y0030500D03*
X0182610Y0030600D03*
X0182610Y0030700D03*
X0182610Y0030800D03*
X0182610Y0030900D03*
X0182610Y0031000D03*
X0182610Y0031100D03*
X0182610Y0031200D03*
X0182610Y0031300D03*
X0182610Y0031400D03*
X0182610Y0031500D03*
X0183310Y0030900D03*
X0183210Y0029400D03*
X0185110Y0029300D03*
X0185810Y0029100D03*
X0186110Y0029000D03*
X0187910Y0028200D03*
X0189610Y0028900D03*
X0189510Y0030600D03*
X0189810Y0030800D03*
X0190210Y0031000D03*
X0190410Y0030600D03*
X0188910Y0030600D03*
X0188310Y0031700D03*
X0187310Y0032100D03*
X0187110Y0032200D03*
X0186310Y0031400D03*
X0186010Y0032600D03*
X0185610Y0032700D03*
X0183310Y0033200D03*
X0181810Y0032700D03*
X0181810Y0032400D03*
X0180710Y0032400D03*
X0180710Y0032500D03*
X0180710Y0032600D03*
X0180710Y0032700D03*
X0180710Y0032300D03*
X0180710Y0032200D03*
X0180710Y0032100D03*
X0180710Y0032000D03*
X0180710Y0031900D03*
X0179710Y0031600D03*
X0179410Y0031900D03*
X0179410Y0032000D03*
X0179410Y0032100D03*
X0179410Y0032200D03*
X0179410Y0032300D03*
X0179410Y0032400D03*
X0179410Y0032500D03*
X0179410Y0032600D03*
X0178810Y0032700D03*
X0178010Y0032700D03*
X0178010Y0032300D03*
X0178010Y0032200D03*
X0178010Y0032100D03*
X0178010Y0032000D03*
X0177410Y0032000D03*
X0177310Y0031800D03*
X0176810Y0032200D03*
X0176810Y0032300D03*
X0177410Y0032500D03*
X0176210Y0032100D03*
X0176110Y0032300D03*
X0176110Y0032400D03*
X0175910Y0032800D03*
X0175710Y0032200D03*
X0175710Y0032100D03*
X0175110Y0032200D03*
X0175110Y0032000D03*
X0174710Y0032000D03*
X0174510Y0032400D03*
X0174510Y0032500D03*
X0174510Y0032600D03*
X0174510Y0032700D03*
X0173910Y0032700D03*
X0173910Y0032600D03*
X0173910Y0032500D03*
X0173910Y0032400D03*
X0172910Y0032400D03*
X0172910Y0032500D03*
X0172910Y0032600D03*
X0172910Y0032700D03*
X0172910Y0032800D03*
X0172910Y0032900D03*
X0172910Y0033000D03*
X0172910Y0033100D03*
X0172910Y0033200D03*
X0172910Y0032300D03*
X0172910Y0032200D03*
X0172910Y0032100D03*
X0172910Y0032000D03*
X0172910Y0031900D03*
X0172910Y0031800D03*
X0172910Y0031700D03*
X0172910Y0031600D03*
X0172910Y0031500D03*
X0172910Y0031400D03*
X0172910Y0031300D03*
X0172910Y0031200D03*
X0172910Y0031100D03*
X0172910Y0031000D03*
X0172910Y0030900D03*
X0172910Y0030800D03*
X0172910Y0030700D03*
X0172910Y0030600D03*
X0172910Y0030500D03*
X0172910Y0030400D03*
X0172910Y0030300D03*
X0172910Y0030200D03*
X0172910Y0030100D03*
X0172910Y0030000D03*
X0172910Y0029900D03*
X0172910Y0029800D03*
X0172910Y0029700D03*
X0172910Y0029600D03*
X0172910Y0029500D03*
X0172910Y0029400D03*
X0172910Y0029300D03*
X0172910Y0029200D03*
X0172910Y0029100D03*
X0172910Y0029000D03*
X0172910Y0028900D03*
X0172910Y0028800D03*
X0172910Y0028700D03*
X0172910Y0028600D03*
X0172910Y0028500D03*
X0172910Y0028400D03*
X0172910Y0028300D03*
X0172910Y0028200D03*
X0172910Y0028100D03*
X0172910Y0028000D03*
X0172910Y0027900D03*
X0172910Y0027800D03*
X0172910Y0027700D03*
X0172910Y0027600D03*
X0172910Y0027500D03*
X0172910Y0027400D03*
X0172910Y0027300D03*
X0172910Y0027200D03*
X0172910Y0027100D03*
X0172910Y0027000D03*
X0172910Y0026900D03*
X0173810Y0027500D03*
X0174110Y0028600D03*
X0174610Y0028900D03*
X0175110Y0028700D03*
X0174210Y0029400D03*
X0176510Y0029600D03*
X0177910Y0031000D03*
X0178010Y0030900D03*
X0179810Y0029300D03*
X0181210Y0027800D03*
X0181310Y0027700D03*
X0181410Y0027500D03*
X0181510Y0027400D03*
X0181510Y0027300D03*
X0181610Y0027100D03*
X0181710Y0026900D03*
X0181710Y0026800D03*
X0181810Y0026600D03*
X0181810Y0026500D03*
X0181810Y0026400D03*
X0181910Y0026300D03*
X0180810Y0026000D03*
X0180810Y0025900D03*
X0180810Y0025800D03*
X0180810Y0025700D03*
X0180810Y0025600D03*
X0180810Y0025500D03*
X0180810Y0025400D03*
X0176210Y0023100D03*
X0173910Y0021100D03*
X0175210Y0032700D03*
X0177410Y0034200D03*
X0177410Y0034300D03*
X0177410Y0037100D03*
X0180410Y0036700D03*
X0180710Y0036400D03*
X0180910Y0036500D03*
X0182010Y0034200D03*
X0183910Y0034700D03*
X0184010Y0035100D03*
X0185310Y0036500D03*
X0187110Y0035900D03*
X0188410Y0035300D03*
X0188810Y0034300D03*
X0188010Y0034200D03*
X0189710Y0034400D03*
X0190510Y0034300D03*
X0190810Y0038200D03*
X0190610Y0038900D03*
X0189810Y0038600D03*
X0189510Y0038700D03*
X0188010Y0039200D03*
X0186610Y0039600D03*
X0184810Y0038700D03*
X0183710Y0041000D03*
X0182110Y0039100D03*
X0178310Y0043600D03*
X0176210Y0043400D03*
X0175410Y0041500D03*
X0171510Y0040900D03*
X0171210Y0042000D03*
X0168210Y0043200D03*
X0165210Y0039300D03*
X0190110Y0026900D03*
D29*
X0189810Y0027300D03*
X0189610Y0028800D03*
X0188310Y0029300D03*
X0188310Y0029400D03*
X0188310Y0029500D03*
X0188410Y0029700D03*
X0188410Y0029800D03*
X0188410Y0029900D03*
X0188310Y0030200D03*
X0188210Y0030500D03*
X0188110Y0030600D03*
X0186810Y0030700D03*
X0186810Y0030800D03*
X0186710Y0030900D03*
X0186710Y0031000D03*
X0186610Y0031100D03*
X0186510Y0031200D03*
X0185210Y0030800D03*
X0185210Y0030700D03*
X0185210Y0030600D03*
X0185210Y0030500D03*
X0185310Y0030400D03*
X0185310Y0030300D03*
X0185110Y0030900D03*
X0185110Y0031000D03*
X0185010Y0031200D03*
X0184910Y0031300D03*
X0184510Y0031700D03*
X0183310Y0030800D03*
X0183310Y0030700D03*
X0184610Y0029400D03*
X0186810Y0029800D03*
X0188510Y0033000D03*
X0188510Y0033100D03*
X0188510Y0033200D03*
X0188510Y0033300D03*
X0188410Y0033500D03*
X0188410Y0033600D03*
X0188410Y0033700D03*
X0188310Y0033900D03*
X0188210Y0034000D03*
X0188210Y0035400D03*
X0187810Y0035600D03*
X0188310Y0036600D03*
X0188410Y0036700D03*
X0188410Y0036800D03*
X0188410Y0036900D03*
X0188410Y0037000D03*
X0188410Y0037100D03*
X0188310Y0037300D03*
X0188310Y0037400D03*
X0188210Y0037700D03*
X0188110Y0037800D03*
X0188110Y0037900D03*
X0188010Y0038000D03*
X0187910Y0038100D03*
X0187810Y0038200D03*
X0188310Y0039100D03*
X0187710Y0039300D03*
X0187310Y0039400D03*
X0187510Y0040900D03*
X0188110Y0040700D03*
X0189510Y0040200D03*
X0190010Y0039200D03*
X0191410Y0039200D03*
X0191410Y0039100D03*
X0191410Y0039000D03*
X0191410Y0039300D03*
X0191410Y0039400D03*
X0191410Y0039500D03*
X0191410Y0039600D03*
X0191410Y0039700D03*
X0191410Y0039800D03*
X0191410Y0039900D03*
X0191410Y0040000D03*
X0191410Y0040100D03*
X0191410Y0040200D03*
X0191410Y0040300D03*
X0191410Y0040400D03*
X0191410Y0040500D03*
X0191410Y0040600D03*
X0191410Y0040700D03*
X0191410Y0040800D03*
X0191410Y0040900D03*
X0191410Y0041000D03*
X0191410Y0038100D03*
X0191410Y0037900D03*
X0191410Y0037800D03*
X0191410Y0037700D03*
X0191410Y0037600D03*
X0191410Y0037500D03*
X0191410Y0037400D03*
X0191410Y0037300D03*
X0191410Y0037200D03*
X0191410Y0037100D03*
X0191410Y0037000D03*
X0191410Y0036900D03*
X0191410Y0036800D03*
X0191410Y0036700D03*
X0191410Y0036600D03*
X0191410Y0036500D03*
X0191410Y0036400D03*
X0191410Y0036300D03*
X0191410Y0036200D03*
X0191410Y0036100D03*
X0191410Y0036000D03*
X0191410Y0035900D03*
X0191410Y0035800D03*
X0191410Y0035700D03*
X0191410Y0035600D03*
X0191410Y0035500D03*
X0191410Y0035400D03*
X0191410Y0035300D03*
X0191410Y0035200D03*
X0191410Y0035100D03*
X0191410Y0035000D03*
X0191410Y0034900D03*
X0191410Y0034800D03*
X0191410Y0034700D03*
X0191410Y0034600D03*
X0191410Y0034500D03*
X0191410Y0034400D03*
X0191410Y0034300D03*
X0191410Y0034200D03*
X0191410Y0034100D03*
X0191410Y0034000D03*
X0191410Y0033900D03*
X0191410Y0033800D03*
X0191410Y0033700D03*
X0191410Y0033600D03*
X0191410Y0033500D03*
X0191410Y0033400D03*
X0191410Y0033300D03*
X0191410Y0033200D03*
X0191410Y0033100D03*
X0191410Y0033000D03*
X0191410Y0032900D03*
X0191410Y0032800D03*
X0191410Y0032700D03*
X0191410Y0032600D03*
X0191410Y0032500D03*
X0191310Y0030500D03*
X0191310Y0030400D03*
X0191310Y0030300D03*
X0191310Y0030200D03*
X0191310Y0030100D03*
X0191310Y0030000D03*
X0191310Y0029900D03*
X0191310Y0029800D03*
X0191310Y0029700D03*
X0190210Y0034700D03*
X0186810Y0033800D03*
X0186810Y0033700D03*
X0186810Y0033600D03*
X0186710Y0033900D03*
X0186710Y0034000D03*
X0186710Y0034100D03*
X0186710Y0034200D03*
X0186610Y0034300D03*
X0186610Y0034400D03*
X0186510Y0034500D03*
X0186410Y0034600D03*
X0186310Y0034700D03*
X0186210Y0034800D03*
X0185010Y0034200D03*
X0184910Y0034400D03*
X0184710Y0034700D03*
X0184610Y0034800D03*
X0185110Y0033900D03*
X0185110Y0033800D03*
X0183410Y0033700D03*
X0183310Y0033900D03*
X0181610Y0032800D03*
X0181610Y0032300D03*
X0180710Y0032800D03*
X0178810Y0032800D03*
X0175910Y0032500D03*
X0174710Y0032200D03*
X0174510Y0029100D03*
X0174410Y0027700D03*
X0174410Y0027600D03*
X0174310Y0027500D03*
X0173910Y0026900D03*
X0175810Y0027400D03*
X0176610Y0024900D03*
X0176610Y0024800D03*
X0176610Y0024700D03*
X0177210Y0024100D03*
X0177410Y0024000D03*
X0176310Y0022900D03*
X0176310Y0022800D03*
X0175910Y0023400D03*
X0175610Y0023700D03*
X0175510Y0023800D03*
X0175410Y0023900D03*
X0175410Y0024000D03*
X0175310Y0024100D03*
X0174210Y0023000D03*
X0174310Y0022900D03*
X0174410Y0022800D03*
X0174510Y0022700D03*
X0174610Y0022600D03*
X0174710Y0022500D03*
X0174910Y0022400D03*
X0174110Y0023100D03*
X0174010Y0023200D03*
X0172110Y0022800D03*
X0172110Y0021600D03*
X0172210Y0021500D03*
X0172310Y0021400D03*
X0172410Y0021200D03*
X0172510Y0021000D03*
X0172510Y0020900D03*
X0172610Y0020500D03*
X0172610Y0020400D03*
X0172610Y0020300D03*
X0172610Y0020200D03*
X0171010Y0020500D03*
X0171010Y0020600D03*
X0170910Y0020800D03*
X0170810Y0021000D03*
X0168910Y0019200D03*
X0168210Y0020400D03*
X0167110Y0022700D03*
X0164710Y0023900D03*
X0164610Y0024500D03*
X0164610Y0024600D03*
X0164510Y0025100D03*
X0164510Y0025200D03*
X0164510Y0025300D03*
X0164510Y0025400D03*
X0164510Y0025500D03*
X0164410Y0027200D03*
X0164410Y0027300D03*
X0164410Y0027400D03*
X0164410Y0027500D03*
X0164410Y0027600D03*
X0164410Y0027700D03*
X0164410Y0027800D03*
X0164410Y0027900D03*
X0164410Y0028000D03*
X0164410Y0028100D03*
X0164410Y0028200D03*
X0164410Y0028300D03*
X0164410Y0028400D03*
X0164410Y0028500D03*
X0164410Y0028600D03*
X0164410Y0028700D03*
X0164410Y0028800D03*
X0164410Y0028900D03*
X0164410Y0029000D03*
X0164410Y0029100D03*
X0164410Y0029200D03*
X0164410Y0029300D03*
X0164410Y0029400D03*
X0164410Y0029500D03*
X0164410Y0029600D03*
X0164410Y0029700D03*
X0164410Y0029800D03*
X0164410Y0029900D03*
X0164410Y0030000D03*
X0164410Y0030100D03*
X0164410Y0030200D03*
X0164410Y0030300D03*
X0164410Y0030400D03*
X0164410Y0030500D03*
X0164410Y0030600D03*
X0164410Y0030700D03*
X0164410Y0033600D03*
X0164410Y0033700D03*
X0164310Y0034200D03*
X0164310Y0034300D03*
X0164310Y0034400D03*
X0164310Y0034500D03*
X0164310Y0034600D03*
X0164310Y0034700D03*
X0164310Y0034800D03*
X0164310Y0034900D03*
X0164310Y0035000D03*
X0164310Y0035100D03*
X0164310Y0035200D03*
X0164310Y0035300D03*
X0164310Y0035400D03*
X0164310Y0035500D03*
X0164310Y0035600D03*
X0164310Y0035700D03*
X0164310Y0035800D03*
X0164310Y0035900D03*
X0164310Y0036000D03*
X0164310Y0036100D03*
X0164310Y0036200D03*
X0164310Y0036300D03*
X0164310Y0036400D03*
X0164310Y0036500D03*
X0164310Y0036600D03*
X0164310Y0036700D03*
X0164310Y0036800D03*
X0164310Y0036900D03*
X0164310Y0037000D03*
X0164310Y0037100D03*
X0164310Y0037300D03*
X0164310Y0037400D03*
X0164310Y0037500D03*
X0164310Y0037600D03*
X0164310Y0037700D03*
X0164310Y0038600D03*
X0164310Y0038700D03*
X0164310Y0038800D03*
X0165510Y0039900D03*
X0169110Y0040500D03*
X0169510Y0040700D03*
X0169310Y0041000D03*
X0169310Y0041100D03*
X0169310Y0041200D03*
X0169310Y0041300D03*
X0169310Y0041400D03*
X0169310Y0041500D03*
X0169310Y0041600D03*
X0169310Y0041700D03*
X0169310Y0041800D03*
X0169310Y0042600D03*
X0169310Y0042700D03*
X0169310Y0042800D03*
X0169310Y0042900D03*
X0169310Y0043000D03*
X0169310Y0043100D03*
X0169310Y0043200D03*
X0169310Y0043300D03*
X0169310Y0043400D03*
X0171710Y0043400D03*
X0171710Y0043500D03*
X0171710Y0043600D03*
X0171710Y0043700D03*
X0171710Y0043800D03*
X0171710Y0043300D03*
X0171710Y0043200D03*
X0172510Y0043100D03*
X0180610Y0036900D03*
X0181810Y0036800D03*
X0181910Y0037700D03*
X0181810Y0037900D03*
X0184610Y0036700D03*
X0185310Y0038900D03*
X0185810Y0039800D03*
X0185010Y0040000D03*
X0182710Y0041000D03*
X0182710Y0041500D03*
X0182710Y0041600D03*
X0182710Y0041700D03*
X0182710Y0041800D03*
X0182710Y0041900D03*
X0182710Y0042000D03*
X0182710Y0042100D03*
X0182710Y0042700D03*
X0182710Y0042800D03*
X0182710Y0043400D03*
X0185910Y0042500D03*
X0180910Y0028000D03*
X0180710Y0026200D03*
X0180410Y0024600D03*
X0181710Y0023600D03*
X0181910Y0023900D03*
X0181510Y0023300D03*
X0181410Y0023200D03*
X0181310Y0023100D03*
X0181210Y0023000D03*
X0181110Y0022900D03*
X0181010Y0022800D03*
X0180910Y0022700D03*
X0180610Y0022500D03*
X0178310Y0019400D03*
X0176110Y0019400D03*
X0176710Y0021100D03*
X0174310Y0020600D03*
X0174310Y0020500D03*
X0174310Y0020400D03*
X0174210Y0020700D03*
X0174210Y0020800D03*
X0174110Y0020900D03*
X0175110Y0017600D03*
X0174010Y0016400D03*
X0174010Y0015800D03*
X0174010Y0015700D03*
X0173410Y0014900D03*
X0172610Y0016100D03*
X0172610Y0016200D03*
X0172610Y0016300D03*
X0172510Y0016400D03*
X0172410Y0016600D03*
X0172310Y0016700D03*
X0172210Y0016800D03*
X0172110Y0016900D03*
X0171910Y0017000D03*
X0171210Y0016000D03*
X0171010Y0015200D03*
X0176210Y0014700D03*
X0189010Y0018900D03*
X0189110Y0019000D03*
X0189310Y0019400D03*
X0189410Y0019600D03*
X0189510Y0019700D03*
X0190110Y0021100D03*
X0190410Y0021800D03*
X0190510Y0022100D03*
X0190510Y0022200D03*
X0190610Y0022300D03*
X0190710Y0022800D03*
X0190710Y0022900D03*
D30*
X0187160Y0024800D03*
X0187160Y0024900D03*
X0187160Y0025000D03*
X0187160Y0025100D03*
X0187260Y0025300D03*
X0187260Y0025400D03*
X0187260Y0025500D03*
X0187260Y0025600D03*
X0187260Y0025700D03*
X0187260Y0025800D03*
X0187260Y0025900D03*
X0182160Y0014900D03*
D31*
X0180110Y0015000D03*
X0170210Y0023900D03*
X0170810Y0026700D03*
X0179110Y0027600D03*
X0177710Y0043000D03*
X0177710Y0043900D03*
X0177710Y0044000D03*
X0174010Y0043900D03*
X0174010Y0043800D03*
X0186710Y0043900D03*
D32*
X0181460Y0043800D03*
X0181460Y0043700D03*
X0177760Y0043100D03*
X0177660Y0042900D03*
X0177660Y0044100D03*
X0174060Y0041900D03*
X0170560Y0042300D03*
X0170560Y0042400D03*
X0166660Y0043600D03*
X0184660Y0033400D03*
X0172660Y0015600D03*
X0172660Y0015500D03*
D33*
X0182510Y0015600D03*
X0182510Y0015700D03*
X0186510Y0023100D03*
X0173010Y0039800D03*
D34*
X0173710Y0041700D03*
X0177310Y0043500D03*
X0165710Y0043300D03*
X0165410Y0043200D03*
X0178910Y0027800D03*
X0184310Y0030100D03*
X0188510Y0042300D03*
X0172310Y0015700D03*
D35*
X0182560Y0015800D03*
D36*
X0175760Y0018300D03*
X0175460Y0018600D03*
X0173860Y0019300D03*
X0170860Y0019300D03*
X0172560Y0015800D03*
X0168060Y0023400D03*
X0178760Y0028800D03*
X0178960Y0030000D03*
X0182360Y0037600D03*
X0180960Y0038400D03*
X0186160Y0040400D03*
X0188260Y0041200D03*
X0188560Y0041100D03*
X0188860Y0041000D03*
X0190060Y0040600D03*
X0189660Y0035300D03*
X0187760Y0029000D03*
X0189260Y0027900D03*
X0174660Y0044100D03*
X0173060Y0043200D03*
X0167760Y0042900D03*
X0165960Y0042300D03*
D37*
X0182610Y0015900D03*
D38*
X0182660Y0016000D03*
D39*
X0182710Y0016100D03*
X0182710Y0016200D03*
X0172810Y0039700D03*
X0177510Y0045200D03*
D40*
X0182760Y0016300D03*
D41*
X0182810Y0016400D03*
D42*
X0182860Y0016500D03*
X0182860Y0016600D03*
X0172660Y0039600D03*
D43*
X0182910Y0016700D03*
D44*
X0182960Y0016800D03*
D45*
X0183010Y0016900D03*
X0183010Y0017000D03*
X0177810Y0033300D03*
X0177810Y0033400D03*
X0177810Y0033500D03*
X0172510Y0039500D03*
D46*
X0183060Y0017100D03*
D47*
X0183110Y0017200D03*
D48*
X0183160Y0017300D03*
X0183160Y0017400D03*
D49*
X0183210Y0017500D03*
X0172310Y0039400D03*
D50*
X0177460Y0045100D03*
X0183260Y0017700D03*
X0183260Y0017600D03*
D51*
X0183310Y0017800D03*
D52*
X0183360Y0017900D03*
X0183360Y0018000D03*
X0172160Y0039300D03*
D53*
X0183410Y0018200D03*
X0183410Y0018100D03*
D54*
X0183460Y0018300D03*
D55*
X0183510Y0018400D03*
X0183510Y0018500D03*
X0183610Y0018700D03*
X0172010Y0039200D03*
D56*
X0183560Y0018600D03*
D57*
X0183810Y0019300D03*
D58*
X0185860Y0019400D03*
X0175660Y0040700D03*
D59*
X0167460Y0041700D03*
X0166160Y0042400D03*
X0166160Y0040300D03*
X0179060Y0029800D03*
X0179060Y0029400D03*
X0183960Y0030200D03*
X0189260Y0027700D03*
X0189260Y0027600D03*
X0185960Y0040900D03*
X0188160Y0042500D03*
X0190060Y0042900D03*
X0190360Y0042800D03*
X0173660Y0019400D03*
D60*
X0172810Y0019600D03*
X0168510Y0023500D03*
X0176110Y0025700D03*
X0179210Y0029500D03*
X0178010Y0030400D03*
X0185210Y0029800D03*
X0186010Y0029700D03*
X0187510Y0036500D03*
X0188310Y0042400D03*
X0189510Y0043100D03*
X0174410Y0044000D03*
X0171010Y0042500D03*
X0167310Y0041600D03*
D61*
X0169410Y0044200D03*
X0167110Y0030100D03*
X0170110Y0026100D03*
X0171310Y0019700D03*
X0184210Y0044400D03*
D62*
X0183010Y0037400D03*
X0176810Y0026200D03*
X0171210Y0019800D03*
D63*
X0171110Y0019900D03*
X0176710Y0026000D03*
X0168410Y0044000D03*
X0168010Y0043900D03*
D64*
X0167160Y0042600D03*
X0178860Y0027700D03*
X0176260Y0025900D03*
X0177660Y0021600D03*
X0184360Y0030000D03*
X0185560Y0041100D03*
X0187860Y0043600D03*
X0188160Y0043500D03*
D65*
X0187610Y0022400D03*
D66*
X0186560Y0023200D03*
X0186660Y0023400D03*
D67*
X0186710Y0023500D03*
X0186610Y0023300D03*
D68*
X0184510Y0033500D03*
X0185110Y0037200D03*
X0185010Y0043200D03*
X0181310Y0043900D03*
X0166010Y0043400D03*
X0171710Y0023500D03*
D69*
X0186760Y0023600D03*
D70*
X0177860Y0027200D03*
X0177360Y0026700D03*
X0170160Y0023600D03*
D71*
X0186810Y0023700D03*
X0186910Y0023900D03*
X0186910Y0024000D03*
D72*
X0170360Y0023700D03*
X0168860Y0044100D03*
D73*
X0173260Y0039900D03*
X0187060Y0024500D03*
X0187060Y0024400D03*
X0186960Y0024200D03*
X0186960Y0024100D03*
X0186860Y0023800D03*
D74*
X0183010Y0037500D03*
X0167510Y0043800D03*
X0170210Y0023800D03*
D75*
X0187010Y0024300D03*
X0187110Y0024600D03*
X0187110Y0024700D03*
D76*
X0187210Y0025200D03*
X0187310Y0026000D03*
X0187310Y0026100D03*
X0173410Y0040000D03*
X0168310Y0033400D03*
X0168310Y0033300D03*
X0168310Y0033200D03*
X0168310Y0033100D03*
X0168310Y0033000D03*
X0168310Y0032900D03*
X0168310Y0032800D03*
X0168310Y0032700D03*
X0168310Y0032600D03*
X0168310Y0032500D03*
X0168310Y0032400D03*
X0168310Y0032300D03*
X0168310Y0032200D03*
X0168310Y0032100D03*
X0168310Y0032000D03*
X0168310Y0031900D03*
X0168310Y0031800D03*
X0168310Y0031700D03*
X0168310Y0031600D03*
X0168310Y0031500D03*
X0168310Y0031400D03*
X0168310Y0031300D03*
X0168310Y0031200D03*
X0168310Y0031100D03*
X0168310Y0031000D03*
X0168310Y0030900D03*
X0168310Y0030800D03*
D77*
X0176110Y0025200D03*
X0176210Y0025300D03*
X0179110Y0029700D03*
X0177810Y0030500D03*
X0186310Y0033100D03*
X0178310Y0042500D03*
X0184610Y0043400D03*
X0167510Y0042800D03*
X0166410Y0042500D03*
X0165010Y0043000D03*
X0166510Y0040400D03*
X0167210Y0040600D03*
D78*
X0166860Y0040500D03*
X0179160Y0029600D03*
X0176160Y0025600D03*
X0176160Y0025500D03*
X0176160Y0025400D03*
X0189760Y0040800D03*
X0189760Y0043000D03*
X0185660Y0043100D03*
D79*
X0184810Y0043300D03*
X0189610Y0040900D03*
X0185910Y0033200D03*
X0178710Y0028400D03*
X0178610Y0028500D03*
X0178510Y0028600D03*
X0178810Y0028200D03*
X0178810Y0028100D03*
X0176110Y0025800D03*
D80*
X0176760Y0026100D03*
D81*
X0177860Y0026300D03*
X0174460Y0040400D03*
D82*
X0177810Y0026400D03*
D83*
X0177560Y0026500D03*
D84*
X0177410Y0026600D03*
X0177310Y0026800D03*
X0177610Y0027000D03*
X0177710Y0027100D03*
X0174810Y0040500D03*
D85*
X0177310Y0026900D03*
D86*
X0177960Y0027300D03*
D87*
X0178910Y0027400D03*
X0167110Y0043700D03*
D88*
X0178860Y0028000D03*
X0178860Y0027900D03*
X0184360Y0033600D03*
X0188560Y0043400D03*
D89*
X0185310Y0044200D03*
X0185110Y0033300D03*
D90*
X0170760Y0034100D03*
D91*
X0183060Y0037300D03*
D92*
X0177410Y0044900D03*
X0170810Y0038500D03*
X0170810Y0038400D03*
X0170810Y0038300D03*
X0170810Y0038200D03*
X0170810Y0038100D03*
X0170810Y0038000D03*
X0170810Y0037900D03*
X0170810Y0037800D03*
D93*
X0171210Y0038600D03*
D94*
X0171310Y0038700D03*
D95*
X0171460Y0038800D03*
D96*
X0171560Y0038900D03*
D97*
X0171710Y0039000D03*
D98*
X0171860Y0039100D03*
D99*
X0173660Y0040100D03*
D100*
X0173860Y0040200D03*
D101*
X0174160Y0040300D03*
D102*
X0175160Y0040600D03*
D103*
X0176110Y0040800D03*
X0177710Y0041900D03*
X0177710Y0042000D03*
X0177710Y0042100D03*
X0177610Y0042800D03*
X0181510Y0042400D03*
X0185410Y0041200D03*
X0187110Y0043800D03*
D104*
X0185860Y0044100D03*
D105*
X0184660Y0044300D03*
D106*
X0170110Y0044300D03*
D107*
X0170560Y0044400D03*
D108*
X0183410Y0044500D03*
D109*
X0171410Y0044500D03*
D110*
X0182410Y0044600D03*
D111*
X0172410Y0044600D03*
D112*
X0177310Y0044700D03*
D113*
X0177360Y0044800D03*
D114*
X0177410Y0045000D03*
D115*
X0177560Y0045300D03*
D116*
X0177710Y0045400D03*
D117*
X0103306Y0182700D02*
X0086814Y0182700D01*
X0082310Y0184450D02*
X0082310Y0188950D01*
X0080810Y0186450D01*
X0079310Y0188950D01*
X0079310Y0184450D01*
X0077125Y0185450D02*
X0077125Y0187950D01*
X0077123Y0188010D01*
X0077118Y0188071D01*
X0077109Y0188130D01*
X0077096Y0188189D01*
X0077080Y0188248D01*
X0077060Y0188305D01*
X0077037Y0188360D01*
X0077010Y0188415D01*
X0076981Y0188467D01*
X0076948Y0188518D01*
X0076912Y0188567D01*
X0076874Y0188613D01*
X0076832Y0188657D01*
X0076788Y0188699D01*
X0076742Y0188737D01*
X0076693Y0188773D01*
X0076642Y0188806D01*
X0076590Y0188835D01*
X0076535Y0188862D01*
X0076480Y0188885D01*
X0076423Y0188905D01*
X0076364Y0188921D01*
X0076305Y0188934D01*
X0076246Y0188943D01*
X0076185Y0188948D01*
X0076125Y0188950D01*
X0075125Y0188950D01*
X0073135Y0188950D02*
X0071885Y0188950D01*
X0071816Y0188948D01*
X0071747Y0188942D01*
X0071679Y0188933D01*
X0071612Y0188920D01*
X0071545Y0188903D01*
X0071479Y0188882D01*
X0071415Y0188858D01*
X0071352Y0188830D01*
X0071290Y0188799D01*
X0071230Y0188765D01*
X0071173Y0188727D01*
X0071117Y0188686D01*
X0071064Y0188643D01*
X0071013Y0188596D01*
X0070965Y0188547D01*
X0070920Y0188495D01*
X0070878Y0188440D01*
X0070839Y0188384D01*
X0070802Y0188325D01*
X0070770Y0188264D01*
X0070740Y0188202D01*
X0070714Y0188138D01*
X0070692Y0188073D01*
X0070673Y0188007D01*
X0070658Y0187940D01*
X0070647Y0187872D01*
X0070639Y0187803D01*
X0070635Y0187734D01*
X0070635Y0187666D01*
X0070639Y0187597D01*
X0070647Y0187528D01*
X0070658Y0187460D01*
X0070673Y0187393D01*
X0070692Y0187327D01*
X0070714Y0187262D01*
X0070740Y0187198D01*
X0070770Y0187136D01*
X0070802Y0187075D01*
X0070839Y0187016D01*
X0070878Y0186960D01*
X0070920Y0186905D01*
X0070965Y0186853D01*
X0071013Y0186804D01*
X0071064Y0186757D01*
X0071117Y0186714D01*
X0071173Y0186673D01*
X0071230Y0186635D01*
X0071290Y0186601D01*
X0071352Y0186570D01*
X0071415Y0186542D01*
X0071479Y0186518D01*
X0071545Y0186497D01*
X0071612Y0186480D01*
X0071679Y0186467D01*
X0071747Y0186458D01*
X0071816Y0186452D01*
X0071885Y0186450D01*
X0073135Y0186450D01*
X0073135Y0184450D02*
X0073135Y0188950D01*
X0073760Y0191950D02*
X0072510Y0191950D01*
X0072441Y0191952D01*
X0072372Y0191958D01*
X0072304Y0191967D01*
X0072237Y0191980D01*
X0072170Y0191997D01*
X0072104Y0192018D01*
X0072040Y0192042D01*
X0071977Y0192070D01*
X0071915Y0192101D01*
X0071855Y0192135D01*
X0071798Y0192173D01*
X0071742Y0192214D01*
X0071689Y0192257D01*
X0071638Y0192304D01*
X0071590Y0192353D01*
X0071545Y0192405D01*
X0071503Y0192460D01*
X0071464Y0192516D01*
X0071427Y0192575D01*
X0071395Y0192636D01*
X0071365Y0192698D01*
X0071339Y0192762D01*
X0071317Y0192827D01*
X0071298Y0192893D01*
X0071283Y0192960D01*
X0071272Y0193028D01*
X0071264Y0193097D01*
X0071260Y0193166D01*
X0071260Y0193234D01*
X0071264Y0193303D01*
X0071272Y0193372D01*
X0071283Y0193440D01*
X0071298Y0193507D01*
X0071317Y0193573D01*
X0071339Y0193638D01*
X0071365Y0193702D01*
X0071395Y0193764D01*
X0071427Y0193825D01*
X0071464Y0193884D01*
X0071503Y0193940D01*
X0071545Y0193995D01*
X0071590Y0194047D01*
X0071638Y0194096D01*
X0071689Y0194143D01*
X0071742Y0194186D01*
X0071798Y0194227D01*
X0071855Y0194265D01*
X0071915Y0194299D01*
X0071977Y0194330D01*
X0072040Y0194358D01*
X0072104Y0194382D01*
X0072170Y0194403D01*
X0072237Y0194420D01*
X0072304Y0194433D01*
X0072372Y0194442D01*
X0072441Y0194448D01*
X0072510Y0194450D01*
X0072260Y0194450D02*
X0073260Y0194450D01*
X0072260Y0194450D02*
X0072198Y0194452D01*
X0072137Y0194458D01*
X0072076Y0194467D01*
X0072016Y0194480D01*
X0071957Y0194497D01*
X0071899Y0194518D01*
X0071842Y0194542D01*
X0071787Y0194569D01*
X0071734Y0194600D01*
X0071682Y0194634D01*
X0071633Y0194671D01*
X0071586Y0194711D01*
X0071542Y0194754D01*
X0071501Y0194799D01*
X0071462Y0194847D01*
X0071426Y0194898D01*
X0071394Y0194950D01*
X0071365Y0195004D01*
X0071339Y0195060D01*
X0071317Y0195118D01*
X0071298Y0195176D01*
X0071283Y0195236D01*
X0071272Y0195297D01*
X0071264Y0195358D01*
X0071260Y0195419D01*
X0071260Y0195481D01*
X0071264Y0195542D01*
X0071272Y0195603D01*
X0071283Y0195664D01*
X0071298Y0195724D01*
X0071317Y0195782D01*
X0071339Y0195840D01*
X0071365Y0195896D01*
X0071394Y0195950D01*
X0071426Y0196002D01*
X0071462Y0196053D01*
X0071501Y0196101D01*
X0071542Y0196146D01*
X0071586Y0196189D01*
X0071633Y0196229D01*
X0071682Y0196266D01*
X0071734Y0196300D01*
X0071787Y0196331D01*
X0071842Y0196358D01*
X0071899Y0196382D01*
X0071957Y0196403D01*
X0072016Y0196420D01*
X0072076Y0196433D01*
X0072137Y0196442D01*
X0072198Y0196448D01*
X0072260Y0196450D01*
X0073760Y0196450D01*
X0076710Y0196450D02*
X0076710Y0191950D01*
X0076335Y0192450D02*
X0076283Y0192462D01*
X0076232Y0192477D01*
X0076182Y0192495D01*
X0076134Y0192517D01*
X0076087Y0192543D01*
X0076042Y0192572D01*
X0076000Y0192604D01*
X0075960Y0192639D01*
X0075922Y0192676D01*
X0075887Y0192716D01*
X0075855Y0192759D01*
X0075827Y0192804D01*
X0075801Y0192850D01*
X0075779Y0192899D01*
X0075760Y0192948D01*
X0075745Y0192999D01*
X0075734Y0193051D01*
X0075726Y0193104D01*
X0075723Y0193157D01*
X0075722Y0193210D01*
X0075726Y0193263D01*
X0075734Y0193316D01*
X0075745Y0193368D01*
X0075760Y0193419D01*
X0075778Y0193469D01*
X0075800Y0193517D01*
X0075825Y0193564D01*
X0075854Y0193609D01*
X0075886Y0193651D01*
X0075920Y0193692D01*
X0075958Y0193730D01*
X0075998Y0193765D01*
X0076040Y0193797D01*
X0076085Y0193826D01*
X0076085Y0193825D02*
X0076710Y0194200D01*
X0077335Y0194575D01*
X0077710Y0192699D02*
X0077637Y0192658D01*
X0077563Y0192619D01*
X0077486Y0192584D01*
X0077409Y0192552D01*
X0077330Y0192523D01*
X0077250Y0192497D01*
X0077169Y0192475D01*
X0077087Y0192457D01*
X0077004Y0192442D01*
X0076921Y0192430D01*
X0076837Y0192422D01*
X0076753Y0192418D01*
X0076669Y0192417D01*
X0076585Y0192420D01*
X0076501Y0192426D01*
X0076418Y0192436D01*
X0076335Y0192449D01*
X0075710Y0195701D02*
X0075783Y0195742D01*
X0075857Y0195781D01*
X0075934Y0195816D01*
X0076011Y0195848D01*
X0076090Y0195877D01*
X0076170Y0195903D01*
X0076251Y0195925D01*
X0076333Y0195943D01*
X0076416Y0195958D01*
X0076499Y0195970D01*
X0076583Y0195978D01*
X0076667Y0195982D01*
X0076751Y0195983D01*
X0076835Y0195980D01*
X0076919Y0195974D01*
X0077002Y0195964D01*
X0077085Y0195951D01*
X0077085Y0195950D02*
X0077137Y0195938D01*
X0077188Y0195923D01*
X0077238Y0195905D01*
X0077286Y0195883D01*
X0077333Y0195857D01*
X0077378Y0195828D01*
X0077420Y0195796D01*
X0077460Y0195761D01*
X0077498Y0195724D01*
X0077533Y0195684D01*
X0077565Y0195641D01*
X0077593Y0195596D01*
X0077619Y0195550D01*
X0077641Y0195501D01*
X0077660Y0195452D01*
X0077675Y0195401D01*
X0077686Y0195349D01*
X0077694Y0195296D01*
X0077697Y0195243D01*
X0077698Y0195190D01*
X0077694Y0195137D01*
X0077686Y0195084D01*
X0077675Y0195032D01*
X0077660Y0194981D01*
X0077642Y0194931D01*
X0077620Y0194883D01*
X0077595Y0194836D01*
X0077566Y0194791D01*
X0077534Y0194749D01*
X0077500Y0194708D01*
X0077462Y0194670D01*
X0077422Y0194635D01*
X0077380Y0194603D01*
X0077335Y0194574D01*
X0079810Y0193200D02*
X0079810Y0196450D01*
X0082310Y0196450D02*
X0082310Y0193200D01*
X0082308Y0193131D01*
X0082302Y0193062D01*
X0082293Y0192994D01*
X0082280Y0192927D01*
X0082263Y0192860D01*
X0082242Y0192794D01*
X0082218Y0192730D01*
X0082190Y0192667D01*
X0082159Y0192605D01*
X0082125Y0192545D01*
X0082087Y0192488D01*
X0082046Y0192432D01*
X0082003Y0192379D01*
X0081956Y0192328D01*
X0081907Y0192280D01*
X0081855Y0192235D01*
X0081800Y0192193D01*
X0081744Y0192154D01*
X0081685Y0192117D01*
X0081624Y0192085D01*
X0081562Y0192055D01*
X0081498Y0192029D01*
X0081433Y0192007D01*
X0081367Y0191988D01*
X0081300Y0191973D01*
X0081232Y0191962D01*
X0081163Y0191954D01*
X0081094Y0191950D01*
X0081026Y0191950D01*
X0080957Y0191954D01*
X0080888Y0191962D01*
X0080820Y0191973D01*
X0080753Y0191988D01*
X0080687Y0192007D01*
X0080622Y0192029D01*
X0080558Y0192055D01*
X0080496Y0192085D01*
X0080435Y0192117D01*
X0080376Y0192154D01*
X0080320Y0192193D01*
X0080265Y0192235D01*
X0080213Y0192280D01*
X0080164Y0192328D01*
X0080117Y0192379D01*
X0080074Y0192432D01*
X0080033Y0192488D01*
X0079995Y0192545D01*
X0079961Y0192605D01*
X0079930Y0192667D01*
X0079902Y0192730D01*
X0079878Y0192794D01*
X0079857Y0192860D01*
X0079840Y0192927D01*
X0079827Y0192994D01*
X0079818Y0193062D01*
X0079812Y0193131D01*
X0079810Y0193200D01*
X0084608Y0188200D02*
X0086187Y0188200D01*
X0093933Y0188200D02*
X0096187Y0188200D01*
X0103306Y0182700D02*
X0103459Y0182899D01*
X0103607Y0183101D01*
X0103750Y0183306D01*
X0103888Y0183515D01*
X0104021Y0183727D01*
X0104149Y0183942D01*
X0104271Y0184160D01*
X0104389Y0184381D01*
X0104501Y0184605D01*
X0104608Y0184831D01*
X0104709Y0185060D01*
X0104805Y0185291D01*
X0104896Y0185525D01*
X0104981Y0185760D01*
X0105060Y0185998D01*
X0105133Y0186237D01*
X0105201Y0186478D01*
X0105263Y0186720D01*
X0105319Y0186964D01*
X0105370Y0187210D01*
X0105414Y0187456D01*
X0105453Y0187703D01*
X0105485Y0187951D01*
X0105512Y0188200D01*
X0103933Y0188200D01*
X0091964Y0199233D02*
X0091722Y0199155D01*
X0091482Y0199071D01*
X0091244Y0198982D01*
X0091008Y0198886D01*
X0090774Y0198785D01*
X0090543Y0198679D01*
X0090315Y0198566D01*
X0090089Y0198449D01*
X0089866Y0198326D01*
X0089647Y0198197D01*
X0089430Y0198063D01*
X0089217Y0197924D01*
X0089007Y0197780D01*
X0088801Y0197631D01*
X0088599Y0197477D01*
X0088400Y0197318D01*
X0088205Y0197154D01*
X0088014Y0196985D01*
X0087828Y0196812D01*
X0087645Y0196635D01*
X0087467Y0196453D01*
X0087294Y0196267D01*
X0087125Y0196076D01*
X0086961Y0195882D01*
X0086801Y0195684D01*
X0086646Y0195482D01*
X0086497Y0195276D01*
X0086352Y0195067D01*
X0086212Y0194854D01*
X0086078Y0194638D01*
X0085949Y0194418D01*
X0085825Y0194196D01*
X0085706Y0193971D01*
X0085594Y0193743D01*
X0085486Y0193512D01*
X0085385Y0193279D01*
X0085289Y0193043D01*
X0085198Y0192805D01*
X0085114Y0192565D01*
X0085035Y0192323D01*
X0084962Y0192079D01*
X0084896Y0191833D01*
X0084835Y0191586D01*
X0084780Y0191338D01*
X0084731Y0191088D01*
X0084688Y0190837D01*
X0084652Y0190585D01*
X0084621Y0190333D01*
X0084597Y0190079D01*
X0084579Y0189826D01*
X0084567Y0189571D01*
X0084561Y0189317D01*
X0084561Y0189062D01*
X0084567Y0188808D01*
X0084580Y0188554D01*
X0084599Y0188300D01*
X0084624Y0188047D01*
X0084655Y0187794D01*
X0084692Y0187542D01*
X0084735Y0187292D01*
X0084784Y0187042D01*
X0084839Y0186793D01*
X0084901Y0186546D01*
X0084968Y0186301D01*
X0085041Y0186057D01*
X0085120Y0185815D01*
X0085205Y0185576D01*
X0085296Y0185338D01*
X0085393Y0185102D01*
X0085495Y0184869D01*
X0085603Y0184639D01*
X0085716Y0184411D01*
X0085835Y0184186D01*
X0085959Y0183964D01*
X0086088Y0183745D01*
X0086223Y0183529D01*
X0086363Y0183316D01*
X0086509Y0183107D01*
X0086659Y0182902D01*
X0086814Y0182700D01*
X0105512Y0188200D02*
X0105534Y0188455D01*
X0105549Y0188711D01*
X0105557Y0188967D01*
X0105560Y0189224D01*
X0105556Y0189480D01*
X0105546Y0189736D01*
X0105530Y0189992D01*
X0105508Y0190247D01*
X0105479Y0190502D01*
X0105444Y0190756D01*
X0105403Y0191009D01*
X0105356Y0191261D01*
X0105302Y0191511D01*
X0105243Y0191760D01*
X0105177Y0192008D01*
X0105106Y0192254D01*
X0105028Y0192499D01*
X0104945Y0192741D01*
X0104856Y0192981D01*
X0104760Y0193219D01*
X0104659Y0193455D01*
X0104553Y0193688D01*
X0104440Y0193918D01*
X0104322Y0194146D01*
X0104199Y0194370D01*
X0104070Y0194592D01*
X0103936Y0194810D01*
X0103796Y0195025D01*
X0103651Y0195236D01*
X0103501Y0195444D01*
X0103347Y0195648D01*
X0103187Y0195849D01*
X0103022Y0196045D01*
X0102853Y0196237D01*
X0102678Y0196426D01*
X0102500Y0196609D01*
X0102317Y0196789D01*
X0102129Y0196964D01*
X0101938Y0197134D01*
X0101742Y0197299D01*
X0101542Y0197460D01*
X0101339Y0197616D01*
X0101132Y0197766D01*
X0100921Y0197912D01*
X0100706Y0198053D01*
X0100489Y0198188D01*
X0100268Y0198318D01*
X0100044Y0198442D01*
X0099817Y0198561D01*
X0099587Y0198674D01*
X0099354Y0198782D01*
X0099119Y0198884D01*
X0098881Y0198980D01*
X0098642Y0199070D01*
X0098400Y0199155D01*
X0098156Y0199233D01*
X0077125Y0185450D02*
X0077123Y0185390D01*
X0077118Y0185329D01*
X0077109Y0185270D01*
X0077096Y0185211D01*
X0077080Y0185152D01*
X0077060Y0185095D01*
X0077037Y0185040D01*
X0077010Y0184985D01*
X0076981Y0184933D01*
X0076948Y0184882D01*
X0076912Y0184833D01*
X0076874Y0184787D01*
X0076832Y0184743D01*
X0076788Y0184701D01*
X0076742Y0184663D01*
X0076693Y0184627D01*
X0076642Y0184594D01*
X0076590Y0184565D01*
X0076535Y0184538D01*
X0076480Y0184515D01*
X0076423Y0184495D01*
X0076364Y0184479D01*
X0076305Y0184466D01*
X0076246Y0184457D01*
X0076185Y0184452D01*
X0076125Y0184450D01*
X0075125Y0184450D01*
X0068860Y0184450D02*
X0066360Y0184450D01*
X0067610Y0184450D02*
X0067610Y0188950D01*
X0068860Y0187950D01*
X0064360Y0188450D02*
X0064360Y0188950D01*
X0061860Y0188950D01*
X0063110Y0184450D01*
X0057735Y0185075D02*
X0057684Y0185184D01*
X0057637Y0185294D01*
X0057593Y0185406D01*
X0057553Y0185520D01*
X0057517Y0185634D01*
X0057484Y0185750D01*
X0057455Y0185866D01*
X0057430Y0185984D01*
X0057409Y0186102D01*
X0057391Y0186221D01*
X0057378Y0186340D01*
X0057368Y0186460D01*
X0057362Y0186580D01*
X0057360Y0186700D01*
X0059860Y0186700D02*
X0059858Y0186580D01*
X0059852Y0186460D01*
X0059842Y0186340D01*
X0059829Y0186221D01*
X0059811Y0186102D01*
X0059790Y0185984D01*
X0059765Y0185866D01*
X0059736Y0185750D01*
X0059703Y0185634D01*
X0059667Y0185520D01*
X0059627Y0185406D01*
X0059583Y0185294D01*
X0059536Y0185184D01*
X0059485Y0185075D01*
X0059610Y0185450D02*
X0057610Y0187950D01*
X0057735Y0188325D02*
X0057756Y0188381D01*
X0057782Y0188436D01*
X0057810Y0188490D01*
X0057842Y0188541D01*
X0057877Y0188590D01*
X0057916Y0188636D01*
X0057957Y0188680D01*
X0058001Y0188722D01*
X0058048Y0188760D01*
X0058097Y0188795D01*
X0058149Y0188827D01*
X0058202Y0188855D01*
X0058257Y0188880D01*
X0058313Y0188901D01*
X0058371Y0188919D01*
X0058430Y0188932D01*
X0058490Y0188942D01*
X0058550Y0188948D01*
X0058610Y0188950D01*
X0058670Y0188948D01*
X0058730Y0188942D01*
X0058790Y0188932D01*
X0058849Y0188919D01*
X0058907Y0188901D01*
X0058963Y0188880D01*
X0059018Y0188855D01*
X0059071Y0188827D01*
X0059123Y0188795D01*
X0059172Y0188760D01*
X0059219Y0188722D01*
X0059263Y0188680D01*
X0059304Y0188636D01*
X0059343Y0188590D01*
X0059378Y0188541D01*
X0059410Y0188490D01*
X0059438Y0188436D01*
X0059464Y0188381D01*
X0059485Y0188325D01*
X0057735Y0188325D02*
X0057684Y0188216D01*
X0057637Y0188106D01*
X0057593Y0187994D01*
X0057553Y0187880D01*
X0057517Y0187766D01*
X0057484Y0187650D01*
X0057455Y0187534D01*
X0057430Y0187416D01*
X0057409Y0187298D01*
X0057391Y0187179D01*
X0057378Y0187060D01*
X0057368Y0186940D01*
X0057362Y0186820D01*
X0057360Y0186700D01*
X0059860Y0186700D02*
X0059858Y0186820D01*
X0059852Y0186940D01*
X0059842Y0187060D01*
X0059829Y0187179D01*
X0059811Y0187298D01*
X0059790Y0187416D01*
X0059765Y0187534D01*
X0059736Y0187650D01*
X0059703Y0187766D01*
X0059667Y0187880D01*
X0059627Y0187994D01*
X0059583Y0188106D01*
X0059536Y0188216D01*
X0059485Y0188325D01*
X0057735Y0185075D02*
X0057756Y0185019D01*
X0057782Y0184964D01*
X0057810Y0184910D01*
X0057842Y0184859D01*
X0057877Y0184810D01*
X0057916Y0184764D01*
X0057957Y0184720D01*
X0058001Y0184678D01*
X0058048Y0184640D01*
X0058097Y0184605D01*
X0058149Y0184573D01*
X0058202Y0184545D01*
X0058257Y0184520D01*
X0058313Y0184499D01*
X0058371Y0184481D01*
X0058430Y0184468D01*
X0058490Y0184458D01*
X0058550Y0184452D01*
X0058610Y0184450D01*
X0058670Y0184452D01*
X0058730Y0184458D01*
X0058790Y0184468D01*
X0058849Y0184481D01*
X0058907Y0184499D01*
X0058963Y0184520D01*
X0059018Y0184545D01*
X0059071Y0184573D01*
X0059123Y0184605D01*
X0059172Y0184640D01*
X0059219Y0184678D01*
X0059263Y0184720D01*
X0059304Y0184764D01*
X0059343Y0184810D01*
X0059378Y0184859D01*
X0059410Y0184910D01*
X0059438Y0184964D01*
X0059464Y0185019D01*
X0059485Y0185075D01*
X0055360Y0184450D02*
X0052860Y0184450D01*
X0055360Y0184450D02*
X0053235Y0186950D01*
X0053985Y0188950D02*
X0054058Y0188948D01*
X0054130Y0188943D01*
X0054202Y0188934D01*
X0054274Y0188921D01*
X0054345Y0188905D01*
X0054415Y0188885D01*
X0054483Y0188861D01*
X0054551Y0188835D01*
X0054617Y0188804D01*
X0054682Y0188771D01*
X0054744Y0188734D01*
X0054805Y0188695D01*
X0054864Y0188652D01*
X0054921Y0188606D01*
X0054975Y0188558D01*
X0055026Y0188507D01*
X0055076Y0188453D01*
X0055122Y0188397D01*
X0055165Y0188339D01*
X0055206Y0188278D01*
X0055243Y0188216D01*
X0055277Y0188152D01*
X0055308Y0188086D01*
X0055336Y0188019D01*
X0055360Y0187950D01*
X0053235Y0186950D02*
X0053189Y0186996D01*
X0053145Y0187045D01*
X0053105Y0187096D01*
X0053067Y0187149D01*
X0053032Y0187204D01*
X0053000Y0187261D01*
X0052971Y0187319D01*
X0052945Y0187379D01*
X0052923Y0187441D01*
X0052904Y0187503D01*
X0052888Y0187566D01*
X0052876Y0187630D01*
X0052867Y0187695D01*
X0052862Y0187760D01*
X0052860Y0187825D01*
X0052862Y0187890D01*
X0052868Y0187956D01*
X0052877Y0188020D01*
X0052890Y0188084D01*
X0052907Y0188148D01*
X0052928Y0188210D01*
X0052952Y0188271D01*
X0052980Y0188330D01*
X0053011Y0188388D01*
X0053045Y0188443D01*
X0053083Y0188497D01*
X0053123Y0188548D01*
X0053167Y0188597D01*
X0053213Y0188643D01*
X0053262Y0188687D01*
X0053313Y0188727D01*
X0053367Y0188765D01*
X0053423Y0188799D01*
X0053480Y0188830D01*
X0053539Y0188858D01*
X0053600Y0188882D01*
X0053662Y0188903D01*
X0053726Y0188920D01*
X0053790Y0188933D01*
X0053854Y0188942D01*
X0053920Y0188948D01*
X0053985Y0188950D01*
X0040729Y0194554D02*
X0005296Y0194554D01*
X0005296Y0163846D01*
X0040729Y0163846D01*
X0040729Y0194554D01*
X0026950Y0182153D02*
X0026950Y0176247D01*
X0007265Y0174279D01*
X0007265Y0171326D02*
X0024981Y0173294D01*
X0024981Y0165420D02*
X0007265Y0167389D01*
X0007265Y0171326D01*
X0007265Y0184121D02*
X0026950Y0182153D01*
X0023013Y0185106D02*
X0007265Y0187074D01*
X0007265Y0191011D01*
X0023013Y0192980D01*
M02*
