%
M48
M72
T01C0.01378
T02C0.03150
T03C0.03200
T04C0.03937
T05C0.04000
T06C0.07480
%
T01
X20060Y24200
X25060Y19200
X30060Y49200
X35560Y58200
X30060Y84200
X10060Y64200
X63560Y94200
X72560Y103700
X72560Y127700
X100060Y124200
X120060Y103700
X120060Y94200
X106560Y73700
X100060Y39200
X106560Y28700
X100060Y24200
X75060Y21700
X65060Y24200
X65060Y34200
X75060Y39200
X140060Y24200
X170060Y54200
X165060Y59200
X160060Y64200
X170060Y89200
X165060Y94200
X160060Y99200
X145060Y109200
X145060Y149200
X150060Y149200
X132560Y159200
X155060Y169200
X150060Y184200
X132560Y185200
X95060Y169200
X80060Y159200
X63560Y179200
X30560Y177200
X25060Y154200
X30560Y127700
X185060Y149200
T02
X35414Y182350
X40139Y185499
X40139Y179200
X35414Y176050
X40139Y172901
X54686Y192200
X62560Y192200
X70434Y192200
T03
X70060Y174200
X70060Y164200
X90060Y159200
X90060Y149200
X90060Y139200
X90060Y129200
X90060Y119200
X90060Y109200
X90060Y99200
X90060Y89200
X90060Y79200
X90060Y69200
X90060Y59200
X90060Y49200
X90060Y39200
X90060Y29200
X105060Y14200
X120060Y29200
X120060Y39200
X120060Y49200
X120060Y59200
X120060Y69200
X120060Y79200
X120060Y89200
X120060Y99200
X120060Y109200
X120060Y119200
X120060Y129200
X120060Y139200
X120060Y149200
X120060Y159200
X120060Y174200
X140060Y184200
X140060Y194200
X120060Y194200
X100060Y189200
X95060Y196700
X90060Y189200
X145060Y169200
X185060Y169200
X150060Y124200
X140060Y124200
X140060Y99200
X150060Y99200
X140060Y84200
X140060Y64200
X140060Y14200
X130060Y14200
X65060Y14200
X55060Y9200
X35060Y9200
X35060Y49200
X20060Y59200
X10060Y59200
X55060Y49200
T04
X46812Y192200
X78308Y192200
T05
X10060Y144200
X10060Y134200
X10060Y124200
X10060Y114200
X10060Y104200
X10060Y94200
X10060Y84200
X10060Y74200
X15060Y39200
X15060Y19200
X75060Y64200
X75060Y74200
X75060Y84200
X155060Y189200
X175060Y189200
X195060Y184200
X195060Y174200
X195060Y164200
X195060Y154200
X195060Y144200
X195060Y134200
X195060Y124200
X195060Y114200
X195060Y104200
X195060Y94200
X195060Y84200
X195060Y74200
X195060Y194200
T06
X20060Y193570
X20060Y164830
M30
