G75*
%MOIN*%
%OFA0B0*%
%FSLAX25Y25*%
%IPPOS*%
%LPD*%
%AMOC8*
5,1,8,0,0,1.08239X$1,22.5*
%
%ADD10C,0.00000*%
%ADD11OC8,0.05600*%
%ADD12C,0.05600*%
%ADD13C,0.05550*%
%ADD14C,0.11620*%
%ADD15C,0.05600*%
%ADD16C,0.06337*%
%ADD17C,0.07800*%
D10*
X0005060Y0004200D02*
X0005060Y0201050D01*
X0201910Y0201050D01*
X0201910Y0004200D01*
X0005060Y0004200D01*
D11*
X0035060Y0009200D03*
X0055060Y0009200D03*
X0065060Y0014200D03*
X0055060Y0049200D03*
X0035060Y0049200D03*
X0020060Y0059200D03*
X0010060Y0059200D03*
X0105060Y0014200D03*
X0130060Y0014200D03*
X0140060Y0014200D03*
X0140060Y0064200D03*
X0140060Y0099200D03*
X0150060Y0099200D03*
X0150060Y0124200D03*
X0140060Y0124200D03*
X0145060Y0169200D03*
X0140060Y0184200D03*
X0140060Y0194200D03*
X0120060Y0174200D03*
X0100060Y0189200D03*
X0095060Y0196700D03*
X0090060Y0189200D03*
X0070060Y0174200D03*
X0070060Y0164200D03*
X0185060Y0169200D03*
D12*
X0120060Y0194200D03*
X0140060Y0084200D03*
D13*
X0040139Y0172901D03*
X0035414Y0176050D03*
X0040139Y0179200D03*
X0035414Y0182350D03*
X0040139Y0185499D03*
X0054686Y0192200D03*
X0062560Y0192200D03*
X0070434Y0192200D03*
D14*
X0020060Y0193570D03*
X0020060Y0164830D03*
D15*
X0087460Y0159200D02*
X0092660Y0159200D01*
X0092660Y0149200D02*
X0087460Y0149200D01*
X0087460Y0139200D02*
X0092660Y0139200D01*
X0092660Y0129200D02*
X0087460Y0129200D01*
X0087460Y0119200D02*
X0092660Y0119200D01*
X0092660Y0109200D02*
X0087460Y0109200D01*
X0087460Y0099200D02*
X0092660Y0099200D01*
X0092660Y0089200D02*
X0087460Y0089200D01*
X0087460Y0079200D02*
X0092660Y0079200D01*
X0092660Y0069200D02*
X0087460Y0069200D01*
X0087460Y0059200D02*
X0092660Y0059200D01*
X0092660Y0049200D02*
X0087460Y0049200D01*
X0087460Y0039200D02*
X0092660Y0039200D01*
X0092660Y0029200D02*
X0087460Y0029200D01*
X0117460Y0029200D02*
X0122660Y0029200D01*
X0122660Y0039200D02*
X0117460Y0039200D01*
X0117460Y0049200D02*
X0122660Y0049200D01*
X0122660Y0059200D02*
X0117460Y0059200D01*
X0117460Y0069200D02*
X0122660Y0069200D01*
X0122660Y0079200D02*
X0117460Y0079200D01*
X0117460Y0089200D02*
X0122660Y0089200D01*
X0122660Y0099200D02*
X0117460Y0099200D01*
X0117460Y0109200D02*
X0122660Y0109200D01*
X0122660Y0119200D02*
X0117460Y0119200D01*
X0117460Y0129200D02*
X0122660Y0129200D01*
X0122660Y0139200D02*
X0117460Y0139200D01*
X0117460Y0149200D02*
X0122660Y0149200D01*
X0122660Y0159200D02*
X0117460Y0159200D01*
D16*
X0078308Y0192200D03*
X0046812Y0192200D03*
D17*
X0010060Y0144200D03*
X0010060Y0134200D03*
X0010060Y0124200D03*
X0010060Y0114200D03*
X0010060Y0104200D03*
X0010060Y0094200D03*
X0010060Y0084200D03*
X0010060Y0074200D03*
X0015060Y0039200D03*
X0015060Y0019200D03*
X0075060Y0064200D03*
X0075060Y0074200D03*
X0075060Y0084200D03*
X0155060Y0189200D03*
X0175060Y0189200D03*
X0195060Y0184200D03*
X0195060Y0174200D03*
X0195060Y0164200D03*
X0195060Y0154200D03*
X0195060Y0144200D03*
X0195060Y0134200D03*
X0195060Y0124200D03*
X0195060Y0114200D03*
X0195060Y0104200D03*
X0195060Y0094200D03*
X0195060Y0084200D03*
X0195060Y0074200D03*
X0195060Y0194200D03*
M02*
